Dakdam-Regular.ufo
<glyph name="hyphen" format="2">
  <advance width="1112"/>
  <unicode hex="002D"/>
  <unicode hex="00AD"/>
  <outline>
    <contour>
      <point x="921" y="736" type="line"/>
      <point x="921" y="582" type="line"/>
      <point x="268" y="582" type="line"/>
      <point x="268" y="736" type="line"/>
    </contour>
  </outline>
</glyph>
<glyph name="Igrave" format="2">
  <advance width="722"/>
  <unicode hex="00CC"/>
  <outline>
    <contour>
      <point x="251" y="229" type="line" smooth="yes"/>
      <point x="251" y="75"/>
      <point x="198" y="37"/>
      <point x="48" y="37" type="curve"/>
      <point x="48" y="0" type="line"/>
      <point x="674" y="0" type="line"/>
      <point x="674" y="37" type="line"/>
      <point x="528" y="37"/>
      <point x="472" y="75"/>
      <point x="472" y="229" type="curve" smooth="yes"/>
      <point x="472" y="1209" type="line" smooth="yes"/>
      <point x="472" y="1362"/>
      <point x="528" y="1400"/>
      <point x="674" y="1400" type="curve"/>
      <point x="674" y="1437" type="line"/>
      <point x="48" y="1437" type="line"/>
      <point x="48" y="1400" type="line"/>
      <point x="198" y="1400"/>
      <point x="251" y="1362"/>
      <point x="251" y="1209" type="curve" smooth="yes"/>
    </contour>
    <contour>
      <point x="60" y="1807" type="line"/>
      <point x="453" y="1508" type="line"/>
      <point x="513" y="1508" type="line"/>
      <point x="326" y="1807" type="line"/>
    </contour>
  </outline>
</glyph>
<glyph name="uni1786" format="2">
  <advance width="1516"/>
  <unicode hex="1786"/>
  <anchor x="1238" y="0" name="L"/>
  <anchor x="1200" y="1440" name="U"/>
  <anchor x="803" y="0" name="lm"/>
  <anchor x="803" y="1440" name="um"/>
  <outline>
    <contour>
      <point x="523" y="451" type="curve"/>
      <point x="523" y="1000" type="line"/>
      <point x="440" y="1016"/>
      <point x="340" y="1041"/>
      <point x="340" y="1104" type="curve" smooth="yes"/>
      <point x="340" y="1107" type="line" smooth="yes"/>
      <point x="340" y="1115"/>
      <point x="341" y="1136"/>
      <point x="351" y="1160" type="curve" smooth="yes"/>
      <point x="360" y="1182"/>
      <point x="391" y="1215"/>
      <point x="409" y="1227" type="curve" smooth="yes"/>
      <point x="417" y="1233"/>
      <point x="427" y="1236"/>
      <point x="437" y="1236" type="curve" smooth="yes"/>
      <point x="506" y="1236"/>
      <point x="679" y="1114"/>
      <point x="764" y="1114" type="curve" smooth="yes"/>
      <point x="801" y="1114"/>
      <point x="832" y="1148"/>
      <point x="851" y="1172" type="curve" smooth="yes"/>
      <point x="875" y="1201"/>
      <point x="904" y="1236"/>
      <point x="935" y="1236" type="curve" smooth="yes"/>
      <point x="1004" y="1236"/>
      <point x="1177" y="1114"/>
      <point x="1262" y="1114" type="curve" smooth="yes"/>
      <point x="1343" y="1114"/>
      <point x="1372" y="1219"/>
      <point x="1403" y="1305" type="curve"/>
      <point x="1380" y="1295"/>
      <point x="1356" y="1293"/>
      <point x="1333" y="1293" type="curve" smooth="yes"/>
      <point x="1268" y="1293"/>
      <point x="1063" y="1440"/>
      <point x="991" y="1440" type="curve" smooth="yes"/>
      <point x="967" y="1440"/>
      <point x="930" y="1419"/>
      <point x="896" y="1387" type="curve" smooth="yes"/>
      <point x="869" y="1361"/>
      <point x="839" y="1331"/>
      <point x="811" y="1298" type="curve"/>
      <point x="732" y="1323"/>
      <point x="547" y="1440"/>
      <point x="483" y="1440" type="curve" smooth="yes"/>
      <point x="399" y="1440"/>
      <point x="206" y="1185"/>
      <point x="181" y="1081" type="curve" smooth="yes"/>
      <point x="180" y="1076"/>
      <point x="180" y="1055"/>
      <point x="180" y="1049" type="curve" smooth="yes"/>
      <point x="180" y="980"/>
      <point x="263" y="953"/>
      <point x="335" y="931" type="curve"/>
      <point x="335" y="451" type="line"/>
      <point x="209" y="439"/>
      <point x="108" y="363"/>
      <point x="108" y="248" type="curve" smooth="yes"/>
      <point x="108" y="169"/>
      <point x="186" y="31"/>
      <point x="352" y="0" type="curve"/>
      <point x="417" y="0"/>
      <point x="498" y="15"/>
      <point x="523" y="78" type="curve"/>
      <point x="523" y="315" type="line"/>
      <point x="559" y="300"/>
      <point x="605" y="251"/>
      <point x="656" y="200" type="curve" smooth="yes"/>
      <point x="748" y="108"/>
      <point x="854" y="0"/>
      <point x="1019" y="0" type="curve" smooth="yes"/>
      <point x="1199" y="0"/>
      <point x="1271" y="104"/>
      <point x="1271" y="207" type="curve" smooth="yes"/>
      <point x="1271" y="822" type="line"/>
      <point x="1246" y="885"/>
      <point x="1165" y="900"/>
      <point x="1100" y="900" type="curve"/>
      <point x="934" y="869"/>
      <point x="856" y="729"/>
      <point x="856" y="640" type="curve" smooth="yes"/>
      <point x="856" y="526"/>
      <point x="953" y="458"/>
      <point x="1083" y="445" type="curve"/>
      <point x="1083" y="226" type="line" smooth="yes"/>
      <point x="1083" y="168"/>
      <point x="1048" y="136"/>
      <point x="994" y="136" type="curve" smooth="yes"/>
      <point x="933" y="136"/>
      <point x="848" y="194"/>
      <point x="777" y="267" type="curve" smooth="yes"/>
      <point x="701" y="345"/>
      <point x="613" y="432"/>
    </contour>
    <contour>
      <point x="978" y="640" type="curve" smooth="yes"/>
      <point x="978" y="701"/>
      <point x="1032" y="741"/>
      <point x="1083" y="763" type="curve"/>
      <point x="1083" y="532" type="line"/>
      <point x="1017" y="551"/>
      <point x="978" y="587"/>
    </contour>
    <contour>
      <point x="230" y="257" type="curve" smooth="yes"/>
      <point x="230" y="307"/>
      <point x="287" y="338"/>
      <point x="335" y="345" type="curve"/>
      <point x="335" y="137" type="line"/>
      <point x="284" y="159"/>
      <point x="230" y="196"/>
    </contour>
  </outline>
</glyph>
<glyph name="uni17A5" format="2">
  <advance width="1476"/>
  <unicode hex="17A5"/>
  <anchor x="1231" y="0" name="L"/>
  <anchor x="1231" y="1743" name="U"/>
  <anchor x="763" y="0" name="lm"/>
  <anchor x="763" y="1743" name="um"/>
  <outline>
    <contour>
      <point x="295" y="845" type="curve"/>
      <point x="295" y="78" type="line"/>
      <point x="320" y="15"/>
      <point x="401" y="0"/>
      <point x="466" y="0" type="curve"/>
      <point x="632" y="31"/>
      <point x="710" y="171"/>
      <point x="710" y="270" type="curve" smooth="yes"/>
      <point x="710" y="384"/>
      <point x="613" y="482"/>
      <point x="483" y="495" type="curve"/>
      <point x="483" y="827" type="line" smooth="yes"/>
      <point x="483" y="891"/>
      <point x="685" y="918"/>
      <point x="763" y="918" type="curve" smooth="yes"/>
      <point x="841" y="918"/>
      <point x="1043" y="891"/>
      <point x="1043" y="827" type="curve" smooth="yes"/>
      <point x="1043" y="0" type="line"/>
      <point x="1231" y="0" type="line"/>
      <point x="1231" y="845" type="line" smooth="yes"/>
      <point x="1231" y="945"/>
      <point x="959" y="1030"/>
      <point x="763" y="1030" type="curve" smooth="yes"/>
      <point x="567" y="1030"/>
      <point x="295" y="945"/>
    </contour>
    <contour>
      <point x="462" y="1004" type="line"/>
      <point x="379" y="1020"/>
      <point x="300" y="1047"/>
      <point x="300" y="1104" type="curve" smooth="yes"/>
      <point x="300" y="1107" type="line" smooth="yes"/>
      <point x="300" y="1115"/>
      <point x="301" y="1136"/>
      <point x="311" y="1160" type="curve" smooth="yes"/>
      <point x="320" y="1182"/>
      <point x="351" y="1215"/>
      <point x="369" y="1227" type="curve" smooth="yes"/>
      <point x="377" y="1233"/>
      <point x="387" y="1236"/>
      <point x="397" y="1236" type="curve" smooth="yes"/>
      <point x="486" y="1236"/>
      <point x="789" y="1054"/>
      <point x="894" y="1054" type="curve" smooth="yes"/>
      <point x="1056" y="1054"/>
      <point x="1231" y="1186"/>
      <point x="1231" y="1374" type="curve" smooth="yes"/>
      <point x="1231" y="1468"/>
      <point x="1215" y="1519"/>
      <point x="1158" y="1602" type="curve" smooth="yes"/>
      <point x="1098" y="1689"/>
      <point x="1026" y="1743"/>
      <point x="930" y="1743" type="curve" smooth="yes"/>
      <point x="843" y="1743"/>
      <point x="813" y="1704"/>
      <point x="813" y="1658" type="curve" smooth="yes"/>
      <point x="813" y="1594"/>
      <point x="887" y="1550"/>
      <point x="951" y="1531" type="curve" smooth="yes"/>
      <point x="1092" y="1489"/>
      <point x="1111" y="1425"/>
      <point x="1111" y="1374" type="curve" smooth="yes"/>
      <point x="1111" y="1305"/>
      <point x="1040" y="1250"/>
      <point x="938" y="1250" type="curve" smooth="yes"/>
      <point x="859" y="1250"/>
      <point x="537" y="1440"/>
      <point x="443" y="1440" type="curve" smooth="yes"/>
      <point x="359" y="1440"/>
      <point x="166" y="1185"/>
      <point x="141" y="1081" type="curve" smooth="yes"/>
      <point x="140" y="1076"/>
      <point x="140" y="1055"/>
      <point x="140" y="1049" type="curve" smooth="yes"/>
      <point x="140" y="977"/>
      <point x="229" y="952"/>
      <point x="301" y="930" type="curve"/>
    </contour>
    <contour>
      <point x="588" y="270" type="curve" smooth="yes"/>
      <point x="588" y="199"/>
      <point x="534" y="159"/>
      <point x="483" y="137" type="curve"/>
      <point x="483" y="408" type="line"/>
      <point x="549" y="389"/>
      <point x="588" y="323"/>
    </contour>
  </outline>
</glyph>
<glyph name="uni17A8" format="2">
  <advance width="1358"/>
  <unicode hex="17A8"/>
  <anchor x="1192" y="-230" name="L"/>
  <anchor x="1192" y="1747" name="U"/>
  <anchor x="704" y="-230" name="lm"/>
  <anchor x="671" y="1747" name="um"/>
  <outline>
    <contour>
      <point x="425" y="322" type="curve"/>
      <point x="631" y="394"/>
      <point x="1192" y="676"/>
      <point x="1192" y="1024" type="curve" smooth="yes"/>
      <point x="1192" y="1295"/>
      <point x="983" y="1440"/>
      <point x="671" y="1440" type="curve" smooth="yes"/>
      <point x="475" y="1440"/>
      <point x="217" y="1332"/>
      <point x="217" y="1118" type="curve" smooth="yes"/>
      <point x="217" y="1016"/>
      <point x="253" y="949"/>
      <point x="332" y="888" type="curve"/>
      <point x="370" y="863"/>
      <point x="412" y="852"/>
      <point x="468" y="852" type="curve" smooth="yes"/>
      <point x="557" y="852"/>
      <point x="633" y="905"/>
      <point x="633" y="984" type="curve" smooth="yes"/>
      <point x="633" y="1039"/>
      <point x="580" y="1078"/>
      <point x="514" y="1078" type="curve" smooth="yes"/>
      <point x="472" y="1078"/>
      <point x="443" y="1067"/>
      <point x="416" y="1046" type="curve"/>
      <point x="409" y="1063"/>
      <point x="405" y="1088"/>
      <point x="405" y="1125" type="curve" smooth="yes"/>
      <point x="405" y="1231"/>
      <point x="517" y="1310"/>
      <point x="689" y="1310" type="curve" smooth="yes"/>
      <point x="869" y="1310"/>
      <point x="1004" y="1235"/>
      <point x="1004" y="1024" type="curve" smooth="yes"/>
      <point x="1004" y="720"/>
      <point x="370" y="467"/>
      <point x="217" y="425" type="curve"/>
      <point x="217" y="256"/>
      <point x="372" y="0"/>
      <point x="597" y="0" type="curve" smooth="yes"/>
      <point x="796" y="0"/>
      <point x="934" y="134"/>
      <point x="1004" y="209" type="curve"/>
      <point x="1004" y="-170" type="line" smooth="yes"/>
      <point x="1004" y="-197"/>
      <point x="1017" y="-230"/>
      <point x="1043" y="-230" type="curve" smooth="yes"/>
      <point x="1225" y="-230" type="line"/>
      <point x="1201" y="-227"/>
      <point x="1192" y="-196"/>
      <point x="1192" y="-170" type="curve" smooth="yes"/>
      <point x="1192" y="584" type="line"/>
      <point x="1004" y="584" type="line"/>
      <point x="1004" y="409" type="line"/>
      <point x="974" y="339"/>
      <point x="789" y="130"/>
      <point x="604" y="130" type="curve" smooth="yes"/>
      <point x="498" y="130"/>
      <point x="425" y="269"/>
    </contour>
    <contour>
      <point x="606" y="1546" type="curve" smooth="yes"/>
      <point x="643" y="1546"/>
      <point x="674" y="1570"/>
      <point x="693" y="1594" type="curve" smooth="yes"/>
      <point x="717" y="1623"/>
      <point x="746" y="1648"/>
      <point x="777" y="1648" type="curve" smooth="yes"/>
      <point x="846" y="1648"/>
      <point x="1019" y="1546"/>
      <point x="1104" y="1546" type="curve" smooth="yes"/>
      <point x="1185" y="1546"/>
      <point x="1214" y="1651"/>
      <point x="1245" y="1737" type="curve"/>
      <point x="1222" y="1727"/>
      <point x="1198" y="1725"/>
      <point x="1175" y="1725" type="curve" smooth="yes"/>
      <point x="1110" y="1725"/>
      <point x="887" y="1852"/>
      <point x="815" y="1852" type="curve" smooth="yes"/>
      <point x="791" y="1852"/>
      <point x="762" y="1835"/>
      <point x="732" y="1809" type="curve" smooth="yes"/>
      <point x="704" y="1784"/>
      <point x="681" y="1763"/>
      <point x="653" y="1730" type="curve"/>
      <point x="574" y="1755"/>
      <point x="389" y="1852"/>
      <point x="325" y="1852" type="curve" smooth="yes"/>
      <point x="241" y="1852"/>
      <point x="56" y="1636"/>
      <point x="25" y="1564" type="curve" smooth="yes"/>
      <point x="22" y="1557"/>
      <point x="22" y="1549"/>
      <point x="22" y="1543" type="curve" smooth="yes"/>
      <point x="22" y="1512"/>
      <point x="70" y="1474"/>
      <point x="143" y="1452" type="curve"/>
      <point x="304" y="1496" type="line"/>
      <point x="221" y="1512"/>
      <point x="182" y="1549"/>
      <point x="182" y="1576" type="curve" smooth="yes"/>
      <point x="182" y="1592"/>
      <point x="207" y="1623"/>
      <point x="236" y="1639" type="curve" smooth="yes"/>
      <point x="245" y="1644"/>
      <point x="254" y="1648"/>
      <point x="264" y="1648" type="curve" smooth="yes"/>
      <point x="333" y="1648"/>
      <point x="521" y="1546"/>
    </contour>
  </outline>
</glyph>
<glyph name="uni17AA" format="2">
  <advance width="1358"/>
  <unicode hex="17AA"/>
  <anchor x="1437" y="-190" name="NG"/>
  <anchor x="730" y="-100" name="def"/>
  <outline>
    <component base="uni17A7"/>
    <contour>
      <point x="292" y="1363" type="curve"/>
      <point x="335" y="1402"/>
      <point x="387" y="1427"/>
      <point x="465" y="1443" type="curve"/>
      <point x="348" y="1455"/>
      <point x="297" y="1497"/>
      <point x="297" y="1537" type="curve" smooth="yes"/>
      <point x="297" y="1589"/>
      <point x="368" y="1681"/>
      <point x="414" y="1681" type="curve" smooth="yes"/>
      <point x="497" y="1681"/>
      <point x="796" y="1499"/>
      <point x="966" y="1499" type="curve" smooth="yes"/>
      <point x="1149" y="1499"/>
      <point x="1230" y="1623"/>
      <point x="1230" y="1758" type="curve" smooth="yes"/>
      <point x="1230" y="1920"/>
      <point x="1115" y="2096"/>
      <point x="923" y="2096" type="curve" smooth="yes"/>
      <point x="864" y="2096"/>
      <point x="820" y="2067"/>
      <point x="820" y="2007" type="curve" smooth="yes"/>
      <point x="820" y="1864"/>
      <point x="1085" y="1911"/>
      <point x="1085" y="1765" type="curve" smooth="yes"/>
      <point x="1085" y="1706"/>
      <point x="1034" y="1683"/>
      <point x="983" y="1683" type="curve" smooth="yes"/>
      <point x="862" y="1683"/>
      <point x="548" y="1873"/>
      <point x="435" y="1873" type="curve" smooth="yes"/>
      <point x="356" y="1873"/>
      <point x="137" y="1595"/>
      <point x="137" y="1482" type="curve" smooth="yes"/>
      <point x="137" y="1412"/>
      <point x="215" y="1382"/>
    </contour>
  </outline>
</glyph>
<glyph name="uni17B1" format="2">
  <advance width="1358"/>
  <unicode hex="17B1"/>
  <anchor x="1437" y="-190" name="NG"/>
  <anchor x="730" y="-100" name="def"/>
  <outline>
    <component base="uni17A7"/>
    <contour>
      <point x="441" y="1850" type="curve" smooth="yes"/>
      <point x="348" y="1850"/>
      <point x="106" y="1594"/>
      <point x="106" y="1503" type="curve" smooth="yes"/>
      <point x="106" y="1428"/>
      <point x="186" y="1364"/>
      <point x="279" y="1335" type="curve"/>
      <point x="313" y="1372"/>
      <point x="376" y="1412"/>
      <point x="445" y="1430" type="curve"/>
      <point x="344" y="1464"/>
      <point x="273" y="1521"/>
      <point x="273" y="1557" type="curve" smooth="yes"/>
      <point x="273" y="1600"/>
      <point x="344" y="1661"/>
      <point x="387" y="1661" type="curve" smooth="yes"/>
      <point x="467" y="1661"/>
      <point x="871" y="1466"/>
      <point x="1046" y="1466" type="curve" smooth="yes"/>
      <point x="1127" y="1466"/>
      <point x="1182" y="1554"/>
      <point x="1191" y="1640" type="curve"/>
      <point x="1163" y="1629"/>
      <point x="1150" y="1628"/>
      <point x="1117" y="1628" type="curve" smooth="yes"/>
      <point x="972" y="1628"/>
      <point x="543" y="1850"/>
    </contour>
  </outline>
</glyph>
<glyph name="uni17B3" format="2">
  <advance width="1358"/>
  <unicode hex="17B3"/>
  <anchor x="1437" y="-190" name="NG"/>
  <anchor x="730" y="-100" name="def"/>
  <outline>
    <component base="uni17A7"/>
    <contour>
      <point x="106" y="1503" type="curve" smooth="yes"/>
      <point x="106" y="1428"/>
      <point x="186" y="1364"/>
      <point x="279" y="1335" type="curve"/>
      <point x="313" y="1372"/>
      <point x="376" y="1412"/>
      <point x="445" y="1430" type="curve"/>
      <point x="344" y="1464"/>
      <point x="273" y="1521"/>
      <point x="273" y="1557" type="curve" smooth="yes"/>
      <point x="273" y="1600"/>
      <point x="344" y="1661"/>
      <point x="387" y="1661" type="curve" smooth="yes"/>
      <point x="467" y="1661"/>
      <point x="861" y="1474"/>
      <point x="976" y="1474" type="curve" smooth="yes"/>
      <point x="1058" y="1474"/>
      <point x="1172" y="1588"/>
      <point x="1172" y="1643" type="curve" smooth="yes"/>
      <point x="1172" y="1819"/>
      <point x="1201" y="1879"/>
      <point x="1310" y="1954" type="curve"/>
      <point x="1295" y="1956"/>
      <point x="1279" y="1957"/>
      <point x="1264" y="1957" type="curve" smooth="yes"/>
      <point x="1153" y="1957"/>
      <point x="1051" y="1905"/>
      <point x="1036" y="1749" type="curve" smooth="yes"/>
      <point x="1028" y="1663"/>
      <point x="1018" y="1646"/>
      <point x="1003" y="1646" type="curve" smooth="yes"/>
      <point x="945" y="1646"/>
      <point x="525" y="1840"/>
      <point x="441" y="1840" type="curve" smooth="yes"/>
      <point x="348" y="1840"/>
      <point x="106" y="1594"/>
    </contour>
  </outline>
</glyph>
<glyph name="uni17B8" format="2">
  <unicode hex="17B8"/>
  <anchor x="0" y="400" name="A0"/>
  <anchor x="-700" y="0" name="_H"/>
  <outline>
    <component base="uni17B7"/>
    <contour>
      <point x="-304" y="1691" type="curve"/>
      <point x="-209" y="1626" type="line"/>
      <point x="-135" y="1729"/>
      <point x="-104" y="1831"/>
      <point x="-104" y="1924" type="curve" smooth="yes"/>
      <point x="-104" y="2066"/>
      <point x="-211" y="2188"/>
      <point x="-306" y="2188" type="curve" smooth="yes"/>
      <point x="-359" y="2188"/>
      <point x="-398" y="2161"/>
      <point x="-398" y="2111" type="curve" smooth="yes"/>
      <point x="-398" y="2005"/>
      <point x="-256" y="1984"/>
      <point x="-256" y="1860" type="curve" smooth="yes"/>
      <point x="-256" y="1796"/>
      <point x="-269" y="1761"/>
    </contour>
  </outline>
</glyph>
<glyph name="uni17C3" format="2">
  <advance width="729"/>
  <unicode hex="17C3"/>
  <outline>
    <contour>
      <point x="483" y="495" type="curve"/>
      <point x="483" y="950" type="line" smooth="yes"/>
      <point x="483" y="1015"/>
      <point x="344" y="1114"/>
      <point x="224" y="1154" type="curve"/>
      <point x="222" y="1155"/>
      <point x="221" y="1156"/>
      <point x="221" y="1158" type="curve"/>
      <point x="221" y="1160" type="line"/>
      <point x="226" y="1183"/>
      <point x="241" y="1215"/>
      <point x="259" y="1227" type="curve"/>
      <point x="267" y="1233"/>
      <point x="277" y="1236"/>
      <point x="287" y="1236" type="curve" smooth="yes"/>
      <point x="356" y="1236"/>
      <point x="389" y="1165"/>
      <point x="474" y="1165" type="curve" smooth="yes"/>
      <point x="565" y="1165"/>
      <point x="584" y="1260"/>
      <point x="615" y="1346" type="curve"/>
      <point x="592" y="1336"/>
      <point x="568" y="1334"/>
      <point x="545" y="1334" type="curve" smooth="yes"/>
      <point x="490" y="1334"/>
      <point x="405" y="1440"/>
      <point x="333" y="1440" type="curve" smooth="yes"/>
      <point x="249" y="1440"/>
      <point x="146" y="1185"/>
      <point x="121" y="1081" type="curve"/>
      <point x="121" y="1079" type="line"/>
      <point x="121" y="1075"/>
      <point x="123" y="1070"/>
      <point x="128" y="1069" type="curve"/>
      <point x="233" y="1057"/>
      <point x="295" y="983"/>
      <point x="295" y="939" type="curve" smooth="yes"/>
      <point x="295" y="78" type="line"/>
      <point x="320" y="15"/>
      <point x="401" y="0"/>
      <point x="466" y="0" type="curve"/>
      <point x="632" y="31"/>
      <point x="710" y="171"/>
      <point x="710" y="270" type="curve" smooth="yes"/>
      <point x="710" y="384"/>
      <point x="613" y="482"/>
    </contour>
    <contour>
      <point x="375" y="1590" type="curve" smooth="yes"/>
      <point x="511" y="1590"/>
      <point x="621" y="1693"/>
      <point x="621" y="1815" type="curve" smooth="yes"/>
      <point x="621" y="1909"/>
      <point x="541" y="2052"/>
      <point x="345" y="2079" type="curve"/>
      <point x="290" y="2090"/>
      <point x="226" y="2139"/>
      <point x="226" y="2230" type="curve" smooth="yes"/>
      <point x="226" y="2303"/>
      <point x="162" y="2388"/>
      <point x="0" y="2399" type="curve"/>
      <point x="36" y="2371"/>
      <point x="58" y="2335"/>
      <point x="58" y="2259" type="curve" smooth="yes"/>
      <point x="58" y="2083"/>
      <point x="164" y="1966"/>
      <point x="319" y="1947" type="curve" smooth="yes"/>
      <point x="398" y="1937"/>
      <point x="453" y="1873"/>
      <point x="453" y="1815" type="curve" smooth="yes"/>
      <point x="453" y="1760"/>
      <point x="420" y="1726"/>
      <point x="375" y="1726" type="curve" smooth="yes"/>
      <point x="354" y="1726"/>
      <point x="330" y="1737"/>
      <point x="311" y="1764" type="curve"/>
      <point x="294" y="1794"/>
      <point x="269" y="1813"/>
      <point x="226" y="1813" type="curve" smooth="yes"/>
      <point x="172" y="1813"/>
      <point x="148" y="1783"/>
      <point x="148" y="1755" type="curve" smooth="yes"/>
      <point x="148" y="1682"/>
      <point x="247" y="1590"/>
    </contour>
    <contour>
      <point x="588" y="270" type="curve" smooth="yes"/>
      <point x="588" y="199"/>
      <point x="534" y="159"/>
      <point x="483" y="137" type="curve"/>
      <point x="483" y="408" type="line"/>
      <point x="549" y="389"/>
      <point x="588" y="323"/>
    </contour>
  </outline>
</glyph>
<glyph name="uni17C9" format="2">
  <unicode hex="17C9"/>
  <guideline x="-719" y="0" angle="90"/>
  <anchor x="-719" y="1440" name="_um"/>
  <anchor x="-719" y="1992" name="um"/>
  <outline>
    <contour>
      <point x="-591" y="1887" type="curve" smooth="yes"/>
      <point x="-591" y="1815"/>
      <point x="-548" y="1788"/>
      <point x="-522" y="1784" type="curve"/>
      <point x="-519" y="1781"/>
      <point x="-519" y="1762"/>
      <point x="-519" y="1755" type="curve" smooth="yes"/>
      <point x="-519" y="1679"/>
      <point x="-549" y="1639"/>
      <point x="-549" y="1626" type="curve" smooth="yes"/>
      <point x="-549" y="1619"/>
      <point x="-538" y="1615"/>
      <point x="-502" y="1615" type="curve" smooth="yes"/>
      <point x="-401" y="1615"/>
      <point x="-345" y="1726"/>
      <point x="-345" y="1875" type="curve" smooth="yes"/>
      <point x="-345" y="1938"/>
      <point x="-402" y="1992"/>
      <point x="-477" y="1992" type="curve" smooth="yes"/>
      <point x="-543" y="1992"/>
      <point x="-591" y="1951"/>
    </contour>
    <contour>
      <point x="-1073" y="1887" type="curve" smooth="yes"/>
      <point x="-1073" y="1815"/>
      <point x="-1030" y="1788"/>
      <point x="-1004" y="1784" type="curve"/>
      <point x="-1001" y="1781"/>
      <point x="-1001" y="1762"/>
      <point x="-1001" y="1755" type="curve" smooth="yes"/>
      <point x="-1001" y="1679"/>
      <point x="-1031" y="1639"/>
      <point x="-1031" y="1626" type="curve" smooth="yes"/>
      <point x="-1031" y="1619"/>
      <point x="-1020" y="1615"/>
      <point x="-984" y="1615" type="curve" smooth="yes"/>
      <point x="-883" y="1615"/>
      <point x="-827" y="1726"/>
      <point x="-827" y="1875" type="curve" smooth="yes"/>
      <point x="-827" y="1938"/>
      <point x="-884" y="1992"/>
      <point x="-959" y="1992" type="curve" smooth="yes"/>
      <point x="-1025" y="1992"/>
      <point x="-1073" y="1951"/>
    </contour>
  </outline>
</glyph>
<glyph name="uni17CA" format="2">
  <unicode hex="17CA"/>
  <anchor x="0" y="80" name="A0"/>
  <anchor x="-700" y="0" name="_H"/>
  <anchor x="20" y="1000" name="_UR"/>
  <anchor x="0" y="0" name="_def"/>
  <outline>
    <contour>
      <point x="-747" y="1610" type="curve" smooth="yes"/>
      <point x="-674" y="1610"/>
      <point x="-605" y="1714"/>
      <point x="-544" y="1714" type="curve" smooth="yes"/>
      <point x="-515" y="1714"/>
      <point x="-360" y="1610"/>
      <point x="-275" y="1610" type="curve" smooth="yes"/>
      <point x="-194" y="1610"/>
      <point x="-139" y="1684"/>
      <point x="-130" y="1755" type="curve"/>
      <point x="-158" y="1746"/>
      <point x="-171" y="1745"/>
      <point x="-184" y="1745" type="curve" smooth="yes"/>
      <point x="-259" y="1745"/>
      <point x="-438" y="1871"/>
      <point x="-490" y="1871" type="curve" smooth="yes"/>
      <point x="-565" y="1871"/>
      <point x="-666" y="1745"/>
      <point x="-690" y="1745" type="curve" smooth="yes"/>
      <point x="-748" y="1745"/>
      <point x="-914" y="1871"/>
      <point x="-968" y="1871" type="curve" smooth="yes"/>
      <point x="-1061" y="1871"/>
      <point x="-1273" y="1699"/>
      <point x="-1273" y="1623" type="curve" smooth="yes"/>
      <point x="-1273" y="1581"/>
      <point x="-1233" y="1547"/>
      <point x="-1140" y="1523" type="curve"/>
      <point x="-1096" y="1548"/>
      <point x="-1014" y="1587"/>
      <point x="-974" y="1602" type="curve"/>
      <point x="-1075" y="1631"/>
      <point x="-1106" y="1638"/>
      <point x="-1106" y="1668" type="curve" smooth="yes"/>
      <point x="-1106" y="1684"/>
      <point x="-1065" y="1714"/>
      <point x="-1022" y="1714" type="curve" smooth="yes"/>
      <point x="-985" y="1714"/>
      <point x="-832" y="1610"/>
    </contour>
  </outline>
</glyph>
<glyph name="uni17CC" format="2">
  <unicode hex="17CC"/>
  <anchor x="-719" y="1440" name="_um"/>
  <anchor x="-719" y="2056" name="um"/>
  <outline>
    <contour>
      <point x="-925" y="1557" type="line"/>
      <point x="-958" y="1663"/>
      <point x="-1067" y="1690"/>
      <point x="-1067" y="1757" type="curve" smooth="yes"/>
      <point x="-1067" y="1797"/>
      <point x="-1035" y="1819"/>
      <point x="-980" y="1819" type="curve" smooth="yes"/>
      <point x="-891" y="1819"/>
      <point x="-638" y="1637"/>
      <point x="-533" y="1637" type="curve" smooth="yes"/>
      <point x="-371" y="1637"/>
      <point x="-245" y="1769"/>
      <point x="-245" y="1957" type="curve" smooth="yes"/>
      <point x="-245" y="2005"/>
      <point x="-267" y="2056"/>
      <point x="-315" y="2056" type="curve" smooth="yes"/>
      <point x="-363" y="2056"/>
      <point x="-385" y="2005"/>
      <point x="-385" y="1957" type="curve" smooth="yes"/>
      <point x="-385" y="1888"/>
      <point x="-417" y="1833"/>
      <point x="-489" y="1833" type="curve" smooth="yes"/>
      <point x="-568" y="1833"/>
      <point x="-840" y="2023"/>
      <point x="-934" y="2023" type="curve" smooth="yes"/>
      <point x="-1100" y="2023"/>
      <point x="-1227" y="1883"/>
      <point x="-1227" y="1772" type="curve" smooth="yes"/>
      <point x="-1227" y="1650"/>
      <point x="-1109" y="1609"/>
      <point x="-1076" y="1523" type="curve"/>
    </contour>
  </outline>
</glyph>
<glyph name="uni17DB" format="2">
  <advance width="768"/>
  <unicode hex="17DB"/>
  <anchor x="523" y="0" name="L"/>
  <anchor x="523" y="1440" name="U"/>
  <anchor x="355" y="0" name="lm"/>
  <anchor x="399" y="1440" name="um"/>
  <outline>
    <contour>
      <point x="530" y="100" type="curve"/>
      <point x="530" y="670" type="line"/>
      <point x="675" y="670" type="line"/>
      <point x="675" y="820" type="line"/>
      <point x="530" y="820" type="line"/>
      <point x="530" y="1050" type="line" smooth="yes"/>
      <point x="530" y="1103"/>
      <point x="442" y="1149"/>
      <point x="266" y="1188" type="curve"/>
      <point x="293" y="1247" type="line" smooth="yes"/>
      <point x="302" y="1268"/>
      <point x="318" y="1279"/>
      <point x="341" y="1279" type="curve" smooth="yes"/>
      <point x="359" y="1279"/>
      <point x="381" y="1272"/>
      <point x="408" y="1258" type="curve" smooth="yes"/>
      <point x="459" y="1230"/>
      <point x="501" y="1216"/>
      <point x="533" y="1216" type="curve" smooth="yes"/>
      <point x="538" y="1216"/>
      <point x="542" y="1216"/>
      <point x="546" y="1217" type="curve" smooth="yes"/>
      <point x="579" y="1221"/>
      <point x="608" y="1241"/>
      <point x="633" y="1277" type="curve" smooth="yes"/>
      <point x="658" y="1312"/>
      <point x="673" y="1353"/>
      <point x="680" y="1400" type="curve"/>
      <point x="663" y="1397"/>
      <point x="648" y="1395"/>
      <point x="633" y="1395" type="curve" smooth="yes"/>
      <point x="605" y="1395"/>
      <point x="581" y="1401"/>
      <point x="560" y="1414" type="curve" smooth="yes"/>
      <point x="490" y="1457" type="line" smooth="yes"/>
      <point x="443" y="1486"/>
      <point x="404" y="1500"/>
      <point x="375" y="1500" type="curve" smooth="yes"/>
      <point x="339" y="1500"/>
      <point x="293" y="1455"/>
      <point x="236" y="1366" type="curve" smooth="yes"/>
      <point x="179" y="1277"/>
      <point x="143" y="1198"/>
      <point x="130" y="1131" type="curve"/>
      <point x="263" y="1110"/>
      <point x="330" y="1064"/>
      <point x="330" y="993" type="curve" smooth="yes"/>
      <point x="330" y="820" type="line"/>
      <point x="187" y="820" type="line"/>
      <point x="187" y="670" type="line"/>
      <point x="330" y="670" type="line"/>
      <point x="330" y="500" type="line"/>
      <point x="210" y="500"/>
      <point x="150" y="433"/>
      <point x="150" y="300" type="curve" smooth="yes"/>
      <point x="150" y="233"/>
      <point x="167" y="167"/>
      <point x="202" y="100" type="curve" smooth="yes"/>
      <point x="237" y="33"/>
      <point x="297" y="0"/>
      <point x="380" y="0" type="curve" smooth="yes"/>
      <point x="480" y="0"/>
      <point x="530" y="33"/>
    </contour>
    <contour>
      <point x="330" y="400" type="curve"/>
      <point x="330" y="150" type="line"/>
      <point x="277" y="150"/>
      <point x="250" y="200"/>
      <point x="250" y="300" type="curve" smooth="yes"/>
      <point x="250" y="367"/>
      <point x="277" y="400"/>
    </contour>
  </outline>
</glyph>
<glyph name="uni17DD" format="2">
  <unicode hex="17DD"/>
  <guideline x="-1181" y="0" angle="90"/>
  <anchor x="-719" y="1440" name="_um"/>
  <anchor x="-719" y="2097" name="um"/>
  <outline>
    <contour>
      <point x="-713" y="2040" type="curve" smooth="yes"/>
      <point x="-973" y="2040"/>
      <point x="-1129" y="1912"/>
      <point x="-1196" y="1770" type="curve" smooth="yes"/>
      <point x="-1206" y="1749"/>
      <point x="-1210" y="1731"/>
      <point x="-1210" y="1715" type="curve" smooth="yes"/>
      <point x="-1210" y="1678"/>
      <point x="-1185" y="1657"/>
      <point x="-1156" y="1657" type="curve" smooth="yes"/>
      <point x="-1129" y="1657"/>
      <point x="-1098" y="1674"/>
      <point x="-1077" y="1712" type="curve" smooth="yes"/>
      <point x="-1014" y="1826"/>
      <point x="-863" y="1880"/>
      <point x="-713" y="1880" type="curve" smooth="yes"/>
      <point x="-563" y="1880"/>
      <point x="-411" y="1826"/>
      <point x="-349" y="1712" type="curve" smooth="yes"/>
      <point x="-328" y="1674"/>
      <point x="-297" y="1657"/>
      <point x="-270" y="1657" type="curve" smooth="yes"/>
      <point x="-241" y="1657"/>
      <point x="-216" y="1678"/>
      <point x="-216" y="1715" type="curve" smooth="yes"/>
      <point x="-216" y="1731"/>
      <point x="-220" y="1749"/>
      <point x="-230" y="1770" type="curve" smooth="yes"/>
      <point x="-296" y="1911"/>
      <point x="-453" y="2040"/>
    </contour>
  </outline>
</glyph>
<glyph name="uni19E2" format="2">
  <advance width="1840"/>
  <unicode hex="19E2"/>
  <outline>
    <contour>
      <point x="1359" y="823" type="line"/>
      <point x="1359" y="768"/>
      <point x="1053" y="731"/>
      <point x="925" y="731" type="curve" smooth="yes"/>
      <point x="797" y="731"/>
      <point x="491" y="768"/>
      <point x="491" y="823" type="curve" smooth="yes"/>
      <point x="491" y="2005" type="line" smooth="yes"/>
      <point x="491" y="2156"/>
      <point x="411" y="2266"/>
      <point x="363" y="2312" type="curve"/>
      <point x="332" y="2338"/>
      <point x="288" y="2363"/>
      <point x="185" y="2363" type="curve" smooth="yes"/>
      <point x="103" y="2363"/>
      <point x="28" y="2295"/>
      <point x="17" y="2252" type="curve"/>
      <point x="88" y="2278"/>
      <point x="117" y="2278"/>
      <point x="141" y="2278" type="curve" smooth="yes"/>
      <point x="257" y="2278"/>
      <point x="303" y="2077"/>
      <point x="303" y="1985" type="curve" smooth="yes"/>
      <point x="303" y="784" type="line" smooth="yes"/>
      <point x="303" y="684"/>
      <point x="677" y="620"/>
      <point x="925" y="620" type="curve" smooth="yes"/>
      <point x="1173" y="620"/>
      <point x="1547" y="684"/>
      <point x="1547" y="784" type="curve" smooth="yes"/>
      <point x="1547" y="1802" type="line" smooth="yes"/>
      <point x="1547" y="1862"/>
      <point x="1401" y="2060"/>
      <point x="1300" y="2060" type="curve" smooth="yes"/>
      <point x="1247" y="2060"/>
      <point x="1203" y="2016"/>
      <point x="1162" y="1970" type="curve" smooth="yes"/>
      <point x="1129" y="1933"/>
      <point x="1090" y="1896"/>
      <point x="1079" y="1896" type="curve" smooth="yes"/>
      <point x="1068" y="1896"/>
      <point x="1029" y="1933"/>
      <point x="996" y="1970" type="curve" smooth="yes"/>
      <point x="955" y="2016"/>
      <point x="911" y="2060"/>
      <point x="858" y="2060" type="curve" smooth="yes"/>
      <point x="757" y="2060"/>
      <point x="611" y="1862"/>
      <point x="611" y="1802" type="curve" smooth="yes"/>
      <point x="611" y="1219" type="line"/>
      <point x="636" y="1156"/>
      <point x="717" y="1140"/>
      <point x="782" y="1140" type="curve"/>
      <point x="948" y="1171"/>
      <point x="1026" y="1309"/>
      <point x="1026" y="1388" type="curve" smooth="yes"/>
      <point x="1026" y="1516"/>
      <point x="926" y="1584"/>
      <point x="799" y="1591" type="curve"/>
      <point x="799" y="1765" type="line" smooth="yes"/>
      <point x="799" y="1813"/>
      <point x="855" y="1892"/>
      <point x="880" y="1892" type="curve" smooth="yes"/>
      <point x="884" y="1892"/>
      <point x="920" y="1858"/>
      <point x="952" y="1824" type="curve" smooth="yes"/>
      <point x="989" y="1783"/>
      <point x="1030" y="1741"/>
      <point x="1079" y="1741" type="curve" smooth="yes"/>
      <point x="1128" y="1741"/>
      <point x="1169" y="1783"/>
      <point x="1206" y="1824" type="curve" smooth="yes"/>
      <point x="1238" y="1858"/>
      <point x="1274" y="1892"/>
      <point x="1278" y="1892" type="curve" smooth="yes"/>
      <point x="1303" y="1892"/>
      <point x="1359" y="1813"/>
      <point x="1359" y="1765" type="curve" smooth="yes"/>
    </contour>
    <contour>
      <point x="904" y="1397" type="curve" smooth="yes"/>
      <point x="904" y="1336"/>
      <point x="850" y="1299"/>
      <point x="799" y="1277" type="curve"/>
      <point x="799" y="1485" type="line"/>
      <point x="847" y="1478"/>
      <point x="904" y="1447"/>
    </contour>
    <contour>
      <point x="1304" y="-1200" type="line"/>
      <point x="1304" y="240" type="line"/>
      <point x="1078" y="240" type="line"/>
      <point x="1078" y="154"/>
      <point x="944" y="-105"/>
      <point x="809" y="-105" type="curve" smooth="yes"/>
      <point x="723" y="-105"/>
      <point x="723" y="4"/>
      <point x="723" y="38" type="curve"/>
      <point x="785" y="50"/>
      <point x="852" y="114"/>
      <point x="852" y="170" type="curve"/>
      <point x="852" y="225"/>
      <point x="812" y="278"/>
      <point x="703" y="278" type="curve"/>
      <point x="579" y="278"/>
      <point x="497" y="178"/>
      <point x="497" y="38" type="curve"/>
      <point x="497" y="-75"/>
      <point x="609" y="-217"/>
      <point x="774" y="-217" type="curve"/>
      <point x="909" y="-217"/>
      <point x="1018" y="-116"/>
      <point x="1078" y="-18" type="curve"/>
      <point x="1078" y="-1200" type="line"/>
    </contour>
  </outline>
</glyph>
<glyph name="uni19E6" format="2">
  <advance width="1390"/>
  <unicode hex="19E6"/>
  <outline>
    <contour>
      <point x="1183" y="1340" type="curve" smooth="yes"/>
      <point x="1183" y="1791"/>
      <point x="955" y="2060"/>
      <point x="733" y="2060" type="curve"/>
      <point x="626" y="2060"/>
      <point x="573" y="2041"/>
      <point x="505" y="2005" type="curve"/>
      <point x="547" y="2069"/>
      <point x="583" y="2138"/>
      <point x="583" y="2217" type="curve"/>
      <point x="583" y="2323"/>
      <point x="479" y="2363"/>
      <point x="400" y="2363" type="curve"/>
      <point x="314" y="2363"/>
      <point x="246" y="2299"/>
      <point x="207" y="2217" type="curve"/>
      <point x="260" y="2237"/>
      <point x="303" y="2248"/>
      <point x="324" y="2248" type="curve"/>
      <point x="378" y="2248"/>
      <point x="411" y="2210"/>
      <point x="411" y="2169" type="curve"/>
      <point x="411" y="2027"/>
      <point x="324" y="1828"/>
      <point x="264" y="1734" type="curve"/>
      <point x="314" y="1749" type="line"/>
      <point x="396" y="1858"/>
      <point x="573" y="1926"/>
      <point x="718" y="1926" type="curve" smooth="yes"/>
      <point x="884" y="1926"/>
      <point x="995" y="1566"/>
      <point x="995" y="1340" type="curve"/>
      <point x="995" y="1040"/>
      <point x="840" y="752"/>
      <point x="669" y="752" type="curve"/>
      <point x="482" y="752"/>
      <point x="395" y="980"/>
      <point x="395" y="1104" type="curve"/>
      <point x="395" y="1214"/>
      <point x="411" y="1325"/>
      <point x="490" y="1325" type="curve"/>
      <point x="497" y="1325"/>
      <point x="512" y="1318"/>
      <point x="515" y="1307" type="curve"/>
      <point x="497" y="1296"/>
      <point x="483" y="1261"/>
      <point x="483" y="1229" type="curve"/>
      <point x="483" y="1164"/>
      <point x="541" y="1114"/>
      <point x="616" y="1114" type="curve"/>
      <point x="699" y="1114"/>
      <point x="749" y="1161"/>
      <point x="749" y="1261" type="curve"/>
      <point x="749" y="1382"/>
      <point x="629" y="1446"/>
      <point x="528" y="1446" type="curve"/>
      <point x="307" y="1446"/>
      <point x="207" y="1261"/>
      <point x="207" y="1100" type="curve"/>
      <point x="207" y="831"/>
      <point x="430" y="620"/>
      <point x="669" y="620" type="curve"/>
      <point x="937" y="620"/>
      <point x="1183" y="916"/>
    </contour>
    <contour>
      <point x="1084" y="-1200" type="line"/>
      <point x="1084" y="240" type="line"/>
      <point x="858" y="240" type="line"/>
      <point x="858" y="154"/>
      <point x="724" y="-105"/>
      <point x="589" y="-105" type="curve" smooth="yes"/>
      <point x="503" y="-105"/>
      <point x="503" y="4"/>
      <point x="503" y="38" type="curve"/>
      <point x="565" y="50"/>
      <point x="632" y="114"/>
      <point x="632" y="170" type="curve"/>
      <point x="632" y="225"/>
      <point x="592" y="278"/>
      <point x="483" y="278" type="curve"/>
      <point x="359" y="278"/>
      <point x="277" y="178"/>
      <point x="277" y="38" type="curve"/>
      <point x="277" y="-75"/>
      <point x="389" y="-217"/>
      <point x="554" y="-217" type="curve"/>
      <point x="689" y="-217"/>
      <point x="798" y="-116"/>
      <point x="858" y="-18" type="curve"/>
      <point x="858" y="-1200" type="line"/>
    </contour>
  </outline>
</glyph>
<glyph name="uni19E8" format="2">
  <advance width="1390"/>
  <unicode hex="19E8"/>
  <outline>
    <contour>
      <point x="214" y="1146" type="curve" smooth="yes"/>
      <point x="214" y="788"/>
      <point x="360" y="620"/>
      <point x="475" y="620" type="curve"/>
      <point x="589" y="620"/>
      <point x="664" y="673"/>
      <point x="719" y="724" type="curve"/>
      <point x="776" y="673"/>
      <point x="855" y="620"/>
      <point x="964" y="620" type="curve"/>
      <point x="1094" y="620"/>
      <point x="1190" y="902"/>
      <point x="1190" y="1063" type="curve"/>
      <point x="1190" y="1232"/>
      <point x="1102" y="1372"/>
      <point x="930" y="1372" type="curve"/>
      <point x="811" y="1372"/>
      <point x="716" y="1289"/>
      <point x="716" y="1186" type="curve"/>
      <point x="716" y="1131"/>
      <point x="741" y="1040"/>
      <point x="849" y="1040" type="curve"/>
      <point x="924" y="1040"/>
      <point x="982" y="1089"/>
      <point x="982" y="1153" type="curve"/>
      <point x="982" y="1186"/>
      <point x="964" y="1225"/>
      <point x="945" y="1232" type="curve"/>
      <point x="948" y="1236"/>
      <point x="952" y="1240"/>
      <point x="960" y="1240" type="curve" smooth="yes"/>
      <point x="986" y="1240"/>
      <point x="1022" y="1122"/>
      <point x="1022" y="1056" type="curve"/>
      <point x="1022" y="978"/>
      <point x="986" y="774"/>
      <point x="911" y="774" type="curve"/>
      <point x="881" y="774"/>
      <point x="787" y="849"/>
      <point x="719" y="916" type="curve"/>
      <point x="653" y="849"/>
      <point x="566" y="771"/>
      <point x="528" y="771" type="curve"/>
      <point x="424" y="771"/>
      <point x="402" y="1003"/>
      <point x="402" y="1125" type="curve"/>
      <point x="402" y="1461"/>
      <point x="506" y="1615"/>
      <point x="578" y="1615" type="curve"/>
      <point x="679" y="1615"/>
      <point x="818" y="1536"/>
      <point x="922" y="1536" type="curve"/>
      <point x="1073" y="1536"/>
      <point x="1166" y="1685"/>
      <point x="1166" y="1864" type="curve"/>
      <point x="1166" y="1925"/>
      <point x="1105" y="2060"/>
      <point x="1105" y="2128" type="curve"/>
      <point x="1105" y="2218"/>
      <point x="1137" y="2291"/>
      <point x="1219" y="2291" type="curve"/>
      <point x="1184" y="2331"/>
      <point x="1156" y="2363"/>
      <point x="1080" y="2363" type="curve" smooth="yes"/>
      <point x="983" y="2363"/>
      <point x="926" y="2263"/>
      <point x="926" y="2148" type="curve"/>
      <point x="926" y="2064"/>
      <point x="979" y="1951"/>
      <point x="979" y="1868" type="curve"/>
      <point x="979" y="1778"/>
      <point x="960" y="1703"/>
      <point x="881" y="1703" type="curve"/>
      <point x="764" y="1726"/>
      <point x="686" y="1782"/>
      <point x="532" y="1782" type="curve" smooth="yes"/>
      <point x="424" y="1782"/>
      <point x="214" y="1608"/>
    </contour>
    <contour>
      <point x="1104" y="-1200" type="line"/>
      <point x="1104" y="240" type="line"/>
      <point x="878" y="240" type="line"/>
      <point x="878" y="154"/>
      <point x="744" y="-105"/>
      <point x="609" y="-105" type="curve" smooth="yes"/>
      <point x="523" y="-105"/>
      <point x="523" y="4"/>
      <point x="523" y="38" type="curve"/>
      <point x="585" y="50"/>
      <point x="652" y="114"/>
      <point x="652" y="170" type="curve"/>
      <point x="652" y="225"/>
      <point x="612" y="278"/>
      <point x="503" y="278" type="curve"/>
      <point x="379" y="278"/>
      <point x="297" y="178"/>
      <point x="297" y="38" type="curve"/>
      <point x="297" y="-75"/>
      <point x="409" y="-217"/>
      <point x="574" y="-217" type="curve"/>
      <point x="709" y="-217"/>
      <point x="818" y="-116"/>
      <point x="878" y="-18" type="curve"/>
      <point x="878" y="-1200" type="line"/>
    </contour>
  </outline>
</glyph>
<glyph name="uni19ED" format="2">
  <advance width="3200"/>
  <unicode hex="19ED"/>
  <outline>
    <contour>
      <point x="640" y="1229" type="curve" smooth="yes"/>
      <point x="776" y="1229"/>
      <point x="899" y="1329"/>
      <point x="899" y="1461" type="curve"/>
      <point x="899" y="1562"/>
      <point x="836" y="1615"/>
      <point x="751" y="1615" type="curve"/>
      <point x="665" y="1615"/>
      <point x="643" y="1566"/>
      <point x="643" y="1536" type="curve"/>
      <point x="643" y="1494"/>
      <point x="663" y="1457"/>
      <point x="731" y="1457" type="curve"/>
      <point x="731" y="1400"/>
      <point x="689" y="1359"/>
      <point x="644" y="1359" type="curve"/>
      <point x="535" y="1359"/>
      <point x="466" y="1472"/>
      <point x="466" y="1604" type="curve"/>
      <point x="466" y="1817"/>
      <point x="606" y="1932"/>
      <point x="748" y="1932" type="curve"/>
      <point x="914" y="1932"/>
      <point x="1066" y="1776"/>
      <point x="1066" y="1378" type="curve"/>
      <point x="1066" y="1052"/>
      <point x="815" y="692"/>
      <point x="486" y="692" type="curve"/>
      <point x="463" y="692"/>
      <point x="446" y="692"/>
      <point x="425" y="695" type="curve"/>
      <point x="471" y="646"/>
      <point x="550" y="620"/>
      <point x="632" y="620" type="curve"/>
      <point x="921" y="620"/>
      <point x="1254" y="965"/>
      <point x="1254" y="1397" type="curve"/>
      <point x="1254" y="1858"/>
      <point x="1000" y="2060"/>
      <point x="748" y="2060" type="curve"/>
      <point x="474" y="2060"/>
      <point x="286" y="1876"/>
      <point x="286" y="1640" type="curve"/>
      <point x="286" y="1415"/>
      <point x="418" y="1229"/>
    </contour>
    <contour>
      <point x="1535" y="1892" type="curve"/>
      <point x="1535" y="699" type="line"/>
      <point x="1560" y="636"/>
      <point x="1641" y="620"/>
      <point x="1706" y="620" type="curve"/>
      <point x="1872" y="651"/>
      <point x="1950" y="789"/>
      <point x="1950" y="868" type="curve" smooth="yes"/>
      <point x="1950" y="996"/>
      <point x="1850" y="1064"/>
      <point x="1723" y="1071" type="curve"/>
      <point x="1723" y="1873" type="line" smooth="yes"/>
      <point x="1723" y="1928"/>
      <point x="1861" y="1948"/>
      <point x="1929" y="1948" type="curve" smooth="yes"/>
      <point x="1997" y="1948"/>
      <point x="2135" y="1928"/>
      <point x="2135" y="1873" type="curve" smooth="yes"/>
      <point x="2135" y="620" type="line"/>
      <point x="2323" y="620" type="line"/>
      <point x="2323" y="1873" type="line" smooth="yes"/>
      <point x="2323" y="1928"/>
      <point x="2461" y="1948"/>
      <point x="2529" y="1948" type="curve" smooth="yes"/>
      <point x="2597" y="1948"/>
      <point x="2735" y="1928"/>
      <point x="2735" y="1873" type="curve" smooth="yes"/>
      <point x="2735" y="620" type="line"/>
      <point x="2923" y="620" type="line"/>
      <point x="2923" y="1892" type="line" smooth="yes"/>
      <point x="2923" y="1992"/>
      <point x="2725" y="2060"/>
      <point x="2529" y="2060" type="curve" smooth="yes"/>
      <point x="2417" y="2060"/>
      <point x="2303" y="2038"/>
      <point x="2228" y="2001" type="curve"/>
      <point x="2153" y="2038"/>
      <point x="2041" y="2060"/>
      <point x="1929" y="2060" type="curve" smooth="yes"/>
      <point x="1733" y="2060"/>
      <point x="1535" y="1992"/>
    </contour>
    <contour>
      <point x="1828" y="877" type="curve" smooth="yes"/>
      <point x="1828" y="816"/>
      <point x="1774" y="779"/>
      <point x="1723" y="757" type="curve"/>
      <point x="1723" y="965" type="line"/>
      <point x="1771" y="958"/>
      <point x="1828" y="927"/>
    </contour>
    <contour>
      <point x="1984" y="-1200" type="line"/>
      <point x="1984" y="240" type="line"/>
      <point x="1758" y="240" type="line"/>
      <point x="1758" y="154"/>
      <point x="1624" y="-105"/>
      <point x="1489" y="-105" type="curve" smooth="yes"/>
      <point x="1403" y="-105"/>
      <point x="1403" y="4"/>
      <point x="1403" y="38" type="curve"/>
      <point x="1465" y="50"/>
      <point x="1532" y="114"/>
      <point x="1532" y="170" type="curve"/>
      <point x="1532" y="225"/>
      <point x="1492" y="278"/>
      <point x="1383" y="278" type="curve"/>
      <point x="1259" y="278"/>
      <point x="1177" y="178"/>
      <point x="1177" y="38" type="curve"/>
      <point x="1177" y="-75"/>
      <point x="1289" y="-217"/>
      <point x="1454" y="-217" type="curve"/>
      <point x="1589" y="-217"/>
      <point x="1698" y="-116"/>
      <point x="1758" y="-18" type="curve"/>
      <point x="1758" y="-1200" type="line"/>
    </contour>
  </outline>
</glyph>
<glyph name="uni19EE" format="2">
  <advance width="2660"/>
  <unicode hex="19EE"/>
  <outline>
    <contour>
      <point x="640" y="1229" type="curve" smooth="yes"/>
      <point x="776" y="1229"/>
      <point x="899" y="1329"/>
      <point x="899" y="1461" type="curve"/>
      <point x="899" y="1562"/>
      <point x="836" y="1615"/>
      <point x="751" y="1615" type="curve"/>
      <point x="665" y="1615"/>
      <point x="643" y="1566"/>
      <point x="643" y="1536" type="curve"/>
      <point x="643" y="1494"/>
      <point x="663" y="1457"/>
      <point x="731" y="1457" type="curve"/>
      <point x="731" y="1400"/>
      <point x="689" y="1359"/>
      <point x="644" y="1359" type="curve"/>
      <point x="535" y="1359"/>
      <point x="466" y="1472"/>
      <point x="466" y="1604" type="curve"/>
      <point x="466" y="1817"/>
      <point x="606" y="1932"/>
      <point x="748" y="1932" type="curve"/>
      <point x="914" y="1932"/>
      <point x="1066" y="1776"/>
      <point x="1066" y="1378" type="curve"/>
      <point x="1066" y="1052"/>
      <point x="815" y="692"/>
      <point x="486" y="692" type="curve"/>
      <point x="463" y="692"/>
      <point x="446" y="692"/>
      <point x="425" y="695" type="curve"/>
      <point x="471" y="646"/>
      <point x="550" y="620"/>
      <point x="632" y="620" type="curve"/>
      <point x="921" y="620"/>
      <point x="1254" y="965"/>
      <point x="1254" y="1397" type="curve"/>
      <point x="1254" y="1858"/>
      <point x="1000" y="2060"/>
      <point x="748" y="2060" type="curve"/>
      <point x="474" y="2060"/>
      <point x="286" y="1876"/>
      <point x="286" y="1640" type="curve"/>
      <point x="286" y="1415"/>
      <point x="418" y="1229"/>
    </contour>
    <contour>
      <point x="1418" y="1150" type="curve" smooth="yes"/>
      <point x="1418" y="756"/>
      <point x="1565" y="620"/>
      <point x="1682" y="620" type="curve"/>
      <point x="1716" y="620"/>
      <point x="1761" y="627"/>
      <point x="1801" y="634" type="curve"/>
      <point x="1848" y="643"/>
      <point x="1891" y="650"/>
      <point x="1926" y="650" type="curve"/>
      <point x="1993" y="650"/>
      <point x="2072" y="640"/>
      <point x="2137" y="630" type="curve"/>
      <point x="2181" y="624"/>
      <point x="2216" y="620"/>
      <point x="2242" y="620" type="curve"/>
      <point x="2302" y="620"/>
      <point x="2316" y="653"/>
      <point x="2316" y="669" type="curve"/>
      <point x="2316" y="728"/>
      <point x="2261" y="796"/>
      <point x="2203" y="866" type="curve"/>
      <point x="2146" y="935"/>
      <point x="2088" y="1014"/>
      <point x="2088" y="1093" type="curve"/>
      <point x="2088" y="1164"/>
      <point x="2105" y="1240"/>
      <point x="2143" y="1240" type="curve"/>
      <point x="2150" y="1240"/>
      <point x="2158" y="1236"/>
      <point x="2162" y="1229" type="curve"/>
      <point x="2139" y="1204"/>
      <point x="2132" y="1178"/>
      <point x="2132" y="1153" type="curve"/>
      <point x="2132" y="1089"/>
      <point x="2187" y="1040"/>
      <point x="2262" y="1040" type="curve"/>
      <point x="2333" y="1040"/>
      <point x="2392" y="1078"/>
      <point x="2392" y="1178" type="curve"/>
      <point x="2392" y="1280"/>
      <point x="2305" y="1359"/>
      <point x="2183" y="1359" type="curve"/>
      <point x="2011" y="1359"/>
      <point x="1920" y="1250"/>
      <point x="1920" y="1100" type="curve"/>
      <point x="1920" y="1003"/>
      <point x="1976" y="867"/>
      <point x="2084" y="767" type="curve"/>
      <point x="2034" y="774"/>
      <point x="1941" y="778"/>
      <point x="1916" y="778" type="curve"/>
      <point x="1891" y="778"/>
      <point x="1862" y="774"/>
      <point x="1829" y="770" type="curve"/>
      <point x="1801" y="767"/>
      <point x="1730" y="759"/>
      <point x="1719" y="759" type="curve" smooth="yes"/>
      <point x="1652" y="759"/>
      <point x="1606" y="974"/>
      <point x="1606" y="1131" type="curve"/>
      <point x="1606" y="1314"/>
      <point x="1772" y="1490"/>
      <point x="1927" y="1610" type="curve"/>
      <point x="2087" y="1734"/>
      <point x="2302" y="1902"/>
      <point x="2302" y="2069" type="curve"/>
      <point x="2302" y="2214"/>
      <point x="2249" y="2275"/>
      <point x="2151" y="2324" type="curve" smooth="yes"/>
      <point x="2106" y="2346"/>
      <point x="2051" y="2356"/>
      <point x="1987" y="2360" type="curve"/>
      <point x="2087" y="2309"/>
      <point x="2117" y="2181"/>
      <point x="2117" y="2109" type="curve"/>
      <point x="2117" y="1960"/>
      <point x="1944" y="1832"/>
      <point x="1790" y="1716" type="curve"/>
      <point x="1629" y="1595"/>
      <point x="1418" y="1374"/>
    </contour>
    <contour>
      <point x="1744" y="-1200" type="line"/>
      <point x="1744" y="240" type="line"/>
      <point x="1518" y="240" type="line"/>
      <point x="1518" y="154"/>
      <point x="1384" y="-105"/>
      <point x="1249" y="-105" type="curve" smooth="yes"/>
      <point x="1163" y="-105"/>
      <point x="1163" y="4"/>
      <point x="1163" y="38" type="curve"/>
      <point x="1225" y="50"/>
      <point x="1292" y="114"/>
      <point x="1292" y="170" type="curve"/>
      <point x="1292" y="225"/>
      <point x="1252" y="278"/>
      <point x="1143" y="278" type="curve"/>
      <point x="1019" y="278"/>
      <point x="937" y="178"/>
      <point x="937" y="38" type="curve"/>
      <point x="937" y="-75"/>
      <point x="1049" y="-217"/>
      <point x="1214" y="-217" type="curve"/>
      <point x="1349" y="-217"/>
      <point x="1458" y="-116"/>
      <point x="1518" y="-18" type="curve"/>
      <point x="1518" y="-1200" type="line"/>
    </contour>
  </outline>
</glyph>
<glyph name="uni19F4" format="2">
  <advance width="1390"/>
  <unicode hex="19F4"/>
  <outline>
    <contour>
      <point x="1084" y="620" type="line"/>
      <point x="1084" y="2060" type="line"/>
      <point x="858" y="2060" type="line"/>
      <point x="858" y="1974"/>
      <point x="724" y="1715"/>
      <point x="589" y="1715" type="curve" smooth="yes"/>
      <point x="503" y="1715"/>
      <point x="503" y="1824"/>
      <point x="503" y="1858" type="curve"/>
      <point x="565" y="1870"/>
      <point x="632" y="1934"/>
      <point x="632" y="1990" type="curve"/>
      <point x="632" y="2045"/>
      <point x="592" y="2098"/>
      <point x="483" y="2098" type="curve"/>
      <point x="359" y="2098"/>
      <point x="277" y="1998"/>
      <point x="277" y="1858" type="curve"/>
      <point x="277" y="1745"/>
      <point x="389" y="1603"/>
      <point x="554" y="1603" type="curve"/>
      <point x="689" y="1603"/>
      <point x="798" y="1704"/>
      <point x="858" y="1802" type="curve"/>
      <point x="858" y="620" type="line"/>
    </contour>
    <contour>
      <point x="208" y="-670" type="curve" smooth="yes"/>
      <point x="208" y="-1064"/>
      <point x="355" y="-1200"/>
      <point x="472" y="-1200" type="curve"/>
      <point x="506" y="-1200"/>
      <point x="551" y="-1193"/>
      <point x="591" y="-1186" type="curve"/>
      <point x="638" y="-1177"/>
      <point x="681" y="-1170"/>
      <point x="716" y="-1170" type="curve"/>
      <point x="783" y="-1170"/>
      <point x="862" y="-1180"/>
      <point x="927" y="-1190" type="curve"/>
      <point x="971" y="-1196"/>
      <point x="1006" y="-1200"/>
      <point x="1032" y="-1200" type="curve"/>
      <point x="1092" y="-1200"/>
      <point x="1106" y="-1167"/>
      <point x="1106" y="-1151" type="curve"/>
      <point x="1106" y="-1092"/>
      <point x="1051" y="-1024"/>
      <point x="993" y="-954" type="curve"/>
      <point x="936" y="-885"/>
      <point x="878" y="-806"/>
      <point x="878" y="-727" type="curve"/>
      <point x="878" y="-656"/>
      <point x="895" y="-580"/>
      <point x="933" y="-580" type="curve"/>
      <point x="940" y="-580"/>
      <point x="948" y="-584"/>
      <point x="952" y="-591" type="curve"/>
      <point x="929" y="-616"/>
      <point x="922" y="-642"/>
      <point x="922" y="-667" type="curve"/>
      <point x="922" y="-731"/>
      <point x="977" y="-780"/>
      <point x="1052" y="-780" type="curve"/>
      <point x="1123" y="-780"/>
      <point x="1182" y="-742"/>
      <point x="1182" y="-642" type="curve"/>
      <point x="1182" y="-540"/>
      <point x="1095" y="-461"/>
      <point x="973" y="-461" type="curve"/>
      <point x="801" y="-461"/>
      <point x="710" y="-570"/>
      <point x="710" y="-720" type="curve"/>
      <point x="710" y="-817"/>
      <point x="766" y="-953"/>
      <point x="874" y="-1053" type="curve"/>
      <point x="824" y="-1046"/>
      <point x="731" y="-1042"/>
      <point x="706" y="-1042" type="curve"/>
      <point x="681" y="-1042"/>
      <point x="652" y="-1046"/>
      <point x="619" y="-1050" type="curve"/>
      <point x="591" y="-1053"/>
      <point x="520" y="-1061"/>
      <point x="509" y="-1061" type="curve" smooth="yes"/>
      <point x="442" y="-1061"/>
      <point x="396" y="-846"/>
      <point x="396" y="-689" type="curve"/>
      <point x="396" y="-506"/>
      <point x="562" y="-330"/>
      <point x="717" y="-210" type="curve"/>
      <point x="877" y="-86"/>
      <point x="1092" y="82"/>
      <point x="1092" y="249" type="curve"/>
      <point x="1092" y="394"/>
      <point x="1039" y="455"/>
      <point x="941" y="504" type="curve" smooth="yes"/>
      <point x="896" y="526"/>
      <point x="841" y="536"/>
      <point x="777" y="540" type="curve"/>
      <point x="877" y="489"/>
      <point x="907" y="361"/>
      <point x="907" y="289" type="curve"/>
      <point x="907" y="140"/>
      <point x="734" y="12"/>
      <point x="580" y="-104" type="curve"/>
      <point x="419" y="-225"/>
      <point x="208" y="-446"/>
    </contour>
  </outline>
</glyph>
<glyph name="uni19F7" format="2">
  <advance width="1840"/>
  <unicode hex="19F7"/>
  <outline>
    <contour>
      <point x="1284" y="620" type="line"/>
      <point x="1284" y="2060" type="line"/>
      <point x="1058" y="2060" type="line"/>
      <point x="1058" y="1974"/>
      <point x="924" y="1715"/>
      <point x="789" y="1715" type="curve" smooth="yes"/>
      <point x="703" y="1715"/>
      <point x="703" y="1824"/>
      <point x="703" y="1858" type="curve"/>
      <point x="765" y="1870"/>
      <point x="832" y="1934"/>
      <point x="832" y="1990" type="curve"/>
      <point x="832" y="2045"/>
      <point x="792" y="2098"/>
      <point x="683" y="2098" type="curve"/>
      <point x="559" y="2098"/>
      <point x="477" y="1998"/>
      <point x="477" y="1858" type="curve"/>
      <point x="477" y="1745"/>
      <point x="589" y="1603"/>
      <point x="754" y="1603" type="curve"/>
      <point x="889" y="1603"/>
      <point x="998" y="1704"/>
      <point x="1058" y="1802" type="curve"/>
      <point x="1058" y="620" type="line"/>
    </contour>
    <contour>
      <point x="1295" y="-1200" type="curve" smooth="yes"/>
      <point x="1465" y="-1200"/>
      <point x="1577" y="-1106"/>
      <point x="1577" y="-1013" type="curve" smooth="yes"/>
      <point x="1577" y="185" type="line" smooth="yes"/>
      <point x="1577" y="342"/>
      <point x="1521" y="432"/>
      <point x="1472" y="476" type="curve" smooth="yes"/>
      <point x="1421" y="522"/>
      <point x="1375" y="540"/>
      <point x="1281" y="540" type="curve" smooth="yes"/>
      <point x="1185" y="540"/>
      <point x="1109" y="472"/>
      <point x="1098" y="429" type="curve"/>
      <point x="1170" y="455"/>
      <point x="1199" y="455"/>
      <point x="1221" y="455" type="curve" smooth="yes"/>
      <point x="1338" y="455"/>
      <point x="1389" y="293"/>
      <point x="1389" y="165" type="curve" smooth="yes"/>
      <point x="1389" y="-1006" type="line" smooth="yes"/>
      <point x="1389" y="-1061"/>
      <point x="1339" y="-1092"/>
      <point x="1295" y="-1092" type="curve" smooth="yes"/>
      <point x="1251" y="-1092"/>
      <point x="1201" y="-1061"/>
      <point x="1201" y="-1006" type="curve" smooth="yes"/>
      <point x="1201" y="-18" type="line" smooth="yes"/>
      <point x="1201" y="42"/>
      <point x="1055" y="240"/>
      <point x="954" y="240" type="curve" smooth="yes"/>
      <point x="901" y="240"/>
      <point x="857" y="196"/>
      <point x="816" y="150" type="curve" smooth="yes"/>
      <point x="783" y="113"/>
      <point x="744" y="76"/>
      <point x="733" y="76" type="curve" smooth="yes"/>
      <point x="722" y="76"/>
      <point x="683" y="113"/>
      <point x="650" y="150" type="curve" smooth="yes"/>
      <point x="609" y="196"/>
      <point x="565" y="240"/>
      <point x="512" y="240" type="curve" smooth="yes"/>
      <point x="411" y="240"/>
      <point x="265" y="42"/>
      <point x="265" y="-18" type="curve" smooth="yes"/>
      <point x="265" y="-1121" type="line"/>
      <point x="290" y="-1184"/>
      <point x="371" y="-1200"/>
      <point x="436" y="-1200" type="curve"/>
      <point x="602" y="-1169"/>
      <point x="680" y="-1031"/>
      <point x="680" y="-952" type="curve" smooth="yes"/>
      <point x="680" y="-824"/>
      <point x="580" y="-756"/>
      <point x="453" y="-749" type="curve"/>
      <point x="453" y="-55" type="line" smooth="yes"/>
      <point x="453" y="-7"/>
      <point x="509" y="72"/>
      <point x="534" y="72" type="curve" smooth="yes"/>
      <point x="538" y="72"/>
      <point x="574" y="38"/>
      <point x="606" y="4" type="curve" smooth="yes"/>
      <point x="643" y="-37"/>
      <point x="684" y="-79"/>
      <point x="733" y="-79" type="curve" smooth="yes"/>
      <point x="782" y="-79"/>
      <point x="823" y="-37"/>
      <point x="860" y="4" type="curve" smooth="yes"/>
      <point x="892" y="38"/>
      <point x="928" y="72"/>
      <point x="932" y="72" type="curve" smooth="yes"/>
      <point x="957" y="72"/>
      <point x="1013" y="-7"/>
      <point x="1013" y="-55" type="curve" smooth="yes"/>
      <point x="1013" y="-1013" type="line" smooth="yes"/>
      <point x="1013" y="-1106"/>
      <point x="1125" y="-1200"/>
    </contour>
    <contour>
      <point x="558" y="-943" type="curve" smooth="yes"/>
      <point x="558" y="-1004"/>
      <point x="504" y="-1041"/>
      <point x="453" y="-1063" type="curve"/>
      <point x="453" y="-855" type="line"/>
      <point x="501" y="-862"/>
      <point x="558" y="-893"/>
    </contour>
  </outline>
</glyph>
<glyph name="uni19FB" format="2">
  <advance width="2660"/>
  <unicode hex="19FB"/>
  <outline>
    <contour>
      <point x="1644" y="620" type="line"/>
      <point x="1644" y="2060" type="line"/>
      <point x="1418" y="2060" type="line"/>
      <point x="1418" y="1974"/>
      <point x="1284" y="1715"/>
      <point x="1149" y="1715" type="curve" smooth="yes"/>
      <point x="1063" y="1715"/>
      <point x="1063" y="1824"/>
      <point x="1063" y="1858" type="curve"/>
      <point x="1125" y="1870"/>
      <point x="1192" y="1934"/>
      <point x="1192" y="1990" type="curve"/>
      <point x="1192" y="2045"/>
      <point x="1152" y="2098"/>
      <point x="1043" y="2098" type="curve"/>
      <point x="919" y="2098"/>
      <point x="837" y="1998"/>
      <point x="837" y="1858" type="curve"/>
      <point x="837" y="1745"/>
      <point x="949" y="1603"/>
      <point x="1114" y="1603" type="curve"/>
      <point x="1249" y="1603"/>
      <point x="1358" y="1704"/>
      <point x="1418" y="1802" type="curve"/>
      <point x="1418" y="620" type="line"/>
    </contour>
    <contour>
      <point x="640" y="-591" type="curve" smooth="yes"/>
      <point x="776" y="-591"/>
      <point x="899" y="-491"/>
      <point x="899" y="-359" type="curve"/>
      <point x="899" y="-258"/>
      <point x="836" y="-205"/>
      <point x="751" y="-205" type="curve"/>
      <point x="665" y="-205"/>
      <point x="643" y="-254"/>
      <point x="643" y="-284" type="curve"/>
      <point x="643" y="-326"/>
      <point x="663" y="-363"/>
      <point x="731" y="-363" type="curve"/>
      <point x="731" y="-420"/>
      <point x="689" y="-461"/>
      <point x="644" y="-461" type="curve"/>
      <point x="535" y="-461"/>
      <point x="466" y="-348"/>
      <point x="466" y="-216" type="curve"/>
      <point x="466" y="-3"/>
      <point x="606" y="112"/>
      <point x="748" y="112" type="curve"/>
      <point x="914" y="112"/>
      <point x="1066" y="-44"/>
      <point x="1066" y="-442" type="curve"/>
      <point x="1066" y="-768"/>
      <point x="815" y="-1128"/>
      <point x="486" y="-1128" type="curve"/>
      <point x="463" y="-1128"/>
      <point x="446" y="-1128"/>
      <point x="425" y="-1125" type="curve"/>
      <point x="471" y="-1174"/>
      <point x="550" y="-1200"/>
      <point x="632" y="-1200" type="curve"/>
      <point x="921" y="-1200"/>
      <point x="1254" y="-855"/>
      <point x="1254" y="-423" type="curve"/>
      <point x="1254" y="38"/>
      <point x="1000" y="240"/>
      <point x="748" y="240" type="curve"/>
      <point x="474" y="240"/>
      <point x="286" y="56"/>
      <point x="286" y="-180" type="curve"/>
      <point x="286" y="-405"/>
      <point x="418" y="-591"/>
    </contour>
    <contour>
      <point x="1780" y="-591" type="curve" smooth="yes"/>
      <point x="1916" y="-591"/>
      <point x="2039" y="-491"/>
      <point x="2039" y="-359" type="curve"/>
      <point x="2039" y="-258"/>
      <point x="1976" y="-205"/>
      <point x="1891" y="-205" type="curve"/>
      <point x="1805" y="-205"/>
      <point x="1783" y="-254"/>
      <point x="1783" y="-284" type="curve"/>
      <point x="1783" y="-326"/>
      <point x="1803" y="-363"/>
      <point x="1871" y="-363" type="curve"/>
      <point x="1871" y="-420"/>
      <point x="1829" y="-461"/>
      <point x="1784" y="-461" type="curve"/>
      <point x="1675" y="-461"/>
      <point x="1606" y="-348"/>
      <point x="1606" y="-216" type="curve"/>
      <point x="1606" y="-3"/>
      <point x="1746" y="112"/>
      <point x="1888" y="112" type="curve"/>
      <point x="2054" y="112"/>
      <point x="2206" y="-44"/>
      <point x="2206" y="-442" type="curve"/>
      <point x="2206" y="-768"/>
      <point x="1955" y="-1128"/>
      <point x="1626" y="-1128" type="curve"/>
      <point x="1603" y="-1128"/>
      <point x="1586" y="-1128"/>
      <point x="1565" y="-1125" type="curve"/>
      <point x="1611" y="-1174"/>
      <point x="1690" y="-1200"/>
      <point x="1772" y="-1200" type="curve"/>
      <point x="2061" y="-1200"/>
      <point x="2394" y="-855"/>
      <point x="2394" y="-423" type="curve"/>
      <point x="2394" y="38"/>
      <point x="2140" y="240"/>
      <point x="1888" y="240" type="curve"/>
      <point x="1614" y="240"/>
      <point x="1426" y="56"/>
      <point x="1426" y="-180" type="curve"/>
      <point x="1426" y="-405"/>
      <point x="1558" y="-591"/>
    </contour>
  </outline>
</glyph>
<glyph name="approxequal" format="2">
  <advance width="1301"/>
  <unicode hex="2248"/>
  <outline>
    <contour>
      <point x="1241" y="572" type="line"/>
      <point x="1143" y="485"/>
      <point x="1058" y="425"/>
      <point x="930" y="425" type="curve" smooth="yes"/>
      <point x="880" y="425"/>
      <point x="822" y="434"/>
      <point x="755" y="455" type="curve" smooth="yes"/>
      <point x="654" y="487"/>
      <point x="526" y="549"/>
      <point x="392" y="549" type="curve" smooth="yes"/>
      <point x="382" y="549"/>
      <point x="371" y="549"/>
      <point x="361" y="548" type="curve"/>
      <point x="174" y="535"/>
      <point x="108" y="464"/>
      <point x="60" y="416" type="curve"/>
      <point x="60" y="280" type="line"/>
      <point x="155" y="372"/>
      <point x="230" y="429"/>
      <point x="357" y="429" type="curve" smooth="yes"/>
      <point x="428" y="429"/>
      <point x="516" y="411"/>
      <point x="633" y="371" type="curve"/>
      <point x="743" y="332"/>
      <point x="791" y="305"/>
      <point x="902" y="305" type="curve" smooth="yes"/>
      <point x="920" y="305"/>
      <point x="940" y="305"/>
      <point x="962" y="307" type="curve" smooth="yes"/>
      <point x="1080" y="315"/>
      <point x="1188" y="386"/>
      <point x="1241" y="436" type="curve"/>
    </contour>
    <contour>
      <point x="1241" y="907" type="line"/>
      <point x="1143" y="820"/>
      <point x="1058" y="760"/>
      <point x="930" y="760" type="curve" smooth="yes"/>
      <point x="880" y="760"/>
      <point x="822" y="769"/>
      <point x="755" y="790" type="curve" smooth="yes"/>
      <point x="654" y="822"/>
      <point x="526" y="884"/>
      <point x="392" y="884" type="curve" smooth="yes"/>
      <point x="382" y="884"/>
      <point x="371" y="884"/>
      <point x="361" y="883" type="curve"/>
      <point x="174" y="870"/>
      <point x="108" y="799"/>
      <point x="60" y="751" type="curve"/>
      <point x="60" y="615" type="line"/>
      <point x="153" y="706"/>
      <point x="230" y="764"/>
      <point x="357" y="764" type="curve" smooth="yes"/>
      <point x="429" y="764"/>
      <point x="517" y="746"/>
      <point x="633" y="705" type="curve" smooth="yes"/>
      <point x="742" y="667"/>
      <point x="790" y="641"/>
      <point x="899" y="641" type="curve" smooth="yes"/>
      <point x="918" y="641"/>
      <point x="939" y="641"/>
      <point x="962" y="643" type="curve" smooth="yes"/>
      <point x="1081" y="651"/>
      <point x="1187" y="722"/>
      <point x="1241" y="771" type="curve"/>
    </contour>
  </outline>
</glyph>
<glyph name="_L.ear" format="2">
  <advance width="734"/>
  <outline>
    <contour>
      <point x="461" y="960" type="line"/>
      <point x="461" y="1030"/>
      <point x="357" y="1086"/>
      <point x="202" y="1154" type="curve" smooth="yes"/>
      <point x="200" y="1155"/>
      <point x="199" y="1156"/>
      <point x="199" y="1158" type="curve" smooth="yes"/>
      <point x="206" y="1195"/>
      <point x="228" y="1237"/>
      <point x="265" y="1237" type="curve" smooth="yes"/>
      <point x="334" y="1237"/>
      <point x="387" y="1166"/>
      <point x="452" y="1166" type="curve" smooth="yes"/>
      <point x="543" y="1166"/>
      <point x="587" y="1273"/>
      <point x="593" y="1346" type="curve"/>
      <point x="570" y="1336"/>
      <point x="556" y="1334"/>
      <point x="533" y="1334" type="curve" smooth="yes"/>
      <point x="478" y="1334"/>
      <point x="383" y="1440"/>
      <point x="311" y="1440" type="curve" smooth="yes"/>
      <point x="228" y="1440"/>
      <point x="99" y="1177"/>
      <point x="99" y="1079" type="curve" smooth="yes"/>
      <point x="99" y="1075"/>
      <point x="101" y="1070"/>
      <point x="106" y="1069" type="curve" smooth="yes"/>
      <point x="211" y="1057"/>
      <point x="273" y="995"/>
      <point x="273" y="939" type="curve" smooth="yes"/>
      <point x="273" y="884" type="line"/>
      <point x="461" y="884" type="line"/>
    </contour>
  </outline>
</glyph>
<glyph name="_R.ear" format="2">
  <advance width="533"/>
  <anchor x="226" y="1236" name="_zxc1"/>
  <outline>
    <contour>
      <point x="213" y="1772" type="curve"/>
      <point x="213" y="1410" type="line" smooth="yes"/>
      <point x="213" y="1342"/>
      <point x="189" y="1297"/>
      <point x="156" y="1261" type="curve"/>
      <point x="297" y="1170" type="line"/>
      <point x="360" y="1237"/>
      <point x="401" y="1303"/>
      <point x="401" y="1410" type="curve" smooth="yes"/>
      <point x="401" y="1758" type="line" smooth="yes"/>
      <point x="401" y="1871"/>
      <point x="309" y="1926"/>
      <point x="217" y="1926" type="curve" smooth="yes"/>
      <point x="176" y="1926"/>
      <point x="135" y="1915"/>
      <point x="102" y="1893" type="curve"/>
      <point x="177" y="1883"/>
      <point x="213" y="1825"/>
    </contour>
  </outline>
</glyph>
<glyph name="_R.earLarge" format="2">
  <advance width="739"/>
  <outline>
    <contour>
      <point x="273" y="787" type="line"/>
      <point x="461" y="787" type="line"/>
      <point x="461" y="980" type="line" smooth="yes"/>
      <point x="461" y="1043"/>
      <point x="251" y="1132"/>
      <point x="202" y="1154" type="curve" smooth="yes"/>
      <point x="200" y="1155"/>
      <point x="199" y="1156"/>
      <point x="199" y="1158" type="curve" smooth="yes"/>
      <point x="199" y="1206"/>
      <point x="228" y="1259"/>
      <point x="264" y="1259" type="curve" smooth="yes"/>
      <point x="315" y="1259"/>
      <point x="369" y="1181"/>
      <point x="461" y="1181" type="curve" smooth="yes"/>
      <point x="539" y="1181"/>
      <point x="639" y="1257"/>
      <point x="639" y="1453" type="curve" smooth="yes"/>
      <point x="639" y="1682"/>
      <point x="434" y="1793"/>
      <point x="304" y="1793" type="curve" smooth="yes"/>
      <point x="243" y="1793"/>
      <point x="198" y="1766"/>
      <point x="198" y="1718" type="curve" smooth="yes"/>
      <point x="198" y="1653"/>
      <point x="255" y="1625"/>
      <point x="346" y="1589" type="curve" smooth="yes"/>
      <point x="438" y="1553"/>
      <point x="533" y="1510"/>
      <point x="533" y="1401" type="curve" smooth="yes"/>
      <point x="533" y="1376"/>
      <point x="527" y="1364"/>
      <point x="509" y="1364" type="curve" smooth="yes"/>
      <point x="474" y="1364"/>
      <point x="392" y="1439"/>
      <point x="313" y="1439" type="curve" smooth="yes"/>
      <point x="200" y="1439"/>
      <point x="99" y="1197"/>
      <point x="99" y="1080" type="curve" smooth="yes"/>
      <point x="99" y="1074"/>
      <point x="101" y="1070"/>
      <point x="106" y="1069" type="curve" smooth="yes"/>
      <point x="217" y="1053"/>
      <point x="273" y="996"/>
      <point x="273" y="938" type="curve" smooth="yes"/>
    </contour>
  </outline>
</glyph>
<glyph name="_bulgeArch" format="2">
  <advance width="1288"/>
  <outline>
    <contour>
      <point x="460" y="820" type="line"/>
      <point x="460" y="950" type="line" smooth="yes"/>
      <point x="460" y="1015"/>
      <point x="321" y="1114"/>
      <point x="201" y="1154" type="curve" smooth="yes"/>
      <point x="199" y="1155"/>
      <point x="197" y="1156"/>
      <point x="197" y="1158" type="curve" smooth="yes"/>
      <point x="197" y="1202"/>
      <point x="463" y="1254"/>
      <point x="607" y="1254" type="curve" smooth="yes"/>
      <point x="681" y="1254"/>
      <point x="894" y="1132"/>
      <point x="966" y="1085" type="curve" smooth="yes"/>
      <point x="989" y="1070"/>
      <point x="1000" y="1058"/>
      <point x="1000" y="1043" type="curve" smooth="yes"/>
      <point x="1000" y="920" type="line"/>
      <point x="1188" y="920" type="line"/>
      <point x="1188" y="1104" type="line" smooth="yes"/>
      <point x="1188" y="1155"/>
      <point x="1166" y="1183"/>
      <point x="1122" y="1212" type="curve" smooth="yes"/>
      <point x="1043" y="1264"/>
      <point x="745" y="1440"/>
      <point x="660" y="1440" type="curve" smooth="yes"/>
      <point x="439" y="1440"/>
      <point x="98" y="1292"/>
      <point x="98" y="1079" type="curve" smooth="yes"/>
      <point x="98" y="1075"/>
      <point x="100" y="1070"/>
      <point x="105" y="1069" type="curve" smooth="yes"/>
      <point x="210" y="1057"/>
      <point x="272" y="983"/>
      <point x="272" y="939" type="curve" smooth="yes"/>
      <point x="272" y="820" type="line"/>
    </contour>
  </outline>
</glyph>
<glyph name="_deepArch" format="2">
  <advance width="1014"/>
  <outline>
    <contour>
      <point x="118" y="934" type="curve"/>
      <point x="166" y="850" type="line"/>
      <point x="241" y="971"/>
      <point x="408" y="1241"/>
      <point x="489" y="1241" type="curve" smooth="yes"/>
      <point x="528" y="1241"/>
      <point x="652" y="1114"/>
      <point x="694" y="1066" type="curve" smooth="yes"/>
      <point x="707" y="1051"/>
      <point x="726" y="1027"/>
      <point x="726" y="991" type="curve" smooth="yes"/>
      <point x="726" y="0" type="line"/>
      <point x="914" y="0" type="line"/>
      <point x="914" y="1054" type="line" smooth="yes"/>
      <point x="914" y="1105"/>
      <point x="893" y="1133"/>
      <point x="842" y="1192" type="curve" smooth="yes"/>
      <point x="800" y="1240"/>
      <point x="598" y="1440"/>
      <point x="536" y="1440" type="curve" smooth="yes"/>
      <point x="405" y="1440"/>
      <point x="209" y="1118"/>
    </contour>
  </outline>
</glyph>
<glyph name="_deepArch2" format="2">
  <advance width="1146"/>
  <outline>
    <contour>
      <point x="181" y="978"/>
      <point x="465" y="1241"/>
      <point x="621" y="1241" type="curve" smooth="yes"/>
      <point x="660" y="1241"/>
      <point x="784" y="1114"/>
      <point x="826" y="1066" type="curve" smooth="yes"/>
      <point x="839" y="1051"/>
      <point x="858" y="1027"/>
      <point x="858" y="991" type="curve" smooth="yes"/>
      <point x="858" y="0" type="line"/>
      <point x="1046" y="0" type="line"/>
      <point x="1046" y="1054" type="line" smooth="yes"/>
      <point x="1046" y="1105"/>
      <point x="1025" y="1133"/>
      <point x="974" y="1192" type="curve" smooth="yes"/>
      <point x="932" y="1240"/>
      <point x="730" y="1440"/>
      <point x="668" y="1440" type="curve" smooth="yes"/>
      <point x="465" y="1440"/>
      <point x="36" y="982"/>
      <point x="36" y="814" type="curve" smooth="yes"/>
      <point x="36" y="810"/>
      <point x="38" y="806"/>
      <point x="43" y="804" type="curve"/>
      <point x="88" y="792"/>
      <point x="130" y="758"/>
      <point x="130" y="714" type="curve" smooth="yes"/>
      <point x="130" y="441" type="line"/>
      <point x="318" y="441" type="line"/>
      <point x="318" y="725" type="line" smooth="yes"/>
      <point x="318" y="790"/>
      <point x="254" y="839"/>
      <point x="184" y="879" type="curve" smooth="yes"/>
      <point x="182" y="880"/>
      <point x="181" y="881"/>
      <point x="181" y="883" type="curve" smooth="yes"/>
    </contour>
  </outline>
</glyph>
<glyph name="_mArch" format="2">
  <advance width="1996"/>
  <outline>
    <contour>
      <point x="1896" y="1163" type="line" smooth="yes"/>
      <point x="1896" y="1294"/>
      <point x="1189" y="1524"/>
      <point x="1137" y="1524" type="curve" smooth="yes"/>
      <point x="1062" y="1524"/>
      <point x="961" y="1372"/>
      <point x="937" y="1372" type="curve" smooth="yes"/>
      <point x="879" y="1372"/>
      <point x="493" y="1524"/>
      <point x="439" y="1524" type="curve" smooth="yes"/>
      <point x="346" y="1524"/>
      <point x="34" y="1268"/>
      <point x="34" y="1177" type="curve" smooth="yes"/>
      <point x="34" y="1102"/>
      <point x="114" y="1038"/>
      <point x="207" y="1009" type="curve"/>
      <point x="241" y="1046"/>
      <point x="304" y="1100"/>
      <point x="373" y="1118" type="curve"/>
      <point x="272" y="1152"/>
      <point x="231" y="1195"/>
      <point x="231" y="1231" type="curve" smooth="yes"/>
      <point x="231" y="1274"/>
      <point x="312" y="1335"/>
      <point x="385" y="1335" type="curve" smooth="yes"/>
      <point x="422" y="1335"/>
      <point x="795" y="1210"/>
      <point x="880" y="1210" type="curve" smooth="yes"/>
      <point x="953" y="1210"/>
      <point x="1022" y="1335"/>
      <point x="1083" y="1335" type="curve" smooth="yes"/>
      <point x="1112" y="1335"/>
      <point x="1708" y="1162"/>
      <point x="1708" y="1065" type="curve"/>
      <point x="1708" y="720" type="line"/>
      <point x="1896" y="720" type="line"/>
    </contour>
  </outline>
</glyph>
<glyph name="_mArch2" format="2">
  <advance width="2071"/>
  <outline>
    <contour>
      <point x="274" y="1167" type="curve" smooth="yes"/>
      <point x="274" y="1210"/>
      <point x="387" y="1335"/>
      <point x="460" y="1335" type="curve" smooth="yes"/>
      <point x="497" y="1335"/>
      <point x="870" y="1210"/>
      <point x="955" y="1210" type="curve" smooth="yes"/>
      <point x="1028" y="1210"/>
      <point x="1097" y="1335"/>
      <point x="1158" y="1335" type="curve" smooth="yes"/>
      <point x="1187" y="1335"/>
      <point x="1783" y="1162"/>
      <point x="1783" y="1065" type="curve"/>
      <point x="1783" y="720" type="line"/>
      <point x="1971" y="720" type="line"/>
      <point x="1971" y="1163" type="line" smooth="yes"/>
      <point x="1971" y="1294"/>
      <point x="1264" y="1524"/>
      <point x="1212" y="1524" type="curve" smooth="yes"/>
      <point x="1137" y="1524"/>
      <point x="1036" y="1372"/>
      <point x="1012" y="1372" type="curve" smooth="yes"/>
      <point x="954" y="1372"/>
      <point x="568" y="1524"/>
      <point x="514" y="1524" type="curve" smooth="yes"/>
      <point x="421" y="1524"/>
      <point x="100" y="1214"/>
      <point x="100" y="1123" type="curve" smooth="yes"/>
      <point x="100" y="1048"/>
      <point x="181" y="994"/>
      <point x="307" y="957" type="curve"/>
      <point x="307" y="935" type="line"/>
      <point x="495" y="935" type="line"/>
      <point x="495" y="1040" type="line"/>
      <point x="348" y="1075"/>
      <point x="274" y="1112"/>
    </contour>
  </outline>
</glyph>
<glyph name="_smoke" format="2">
  <advance width="1476"/>
  <outline>
    <contour>
      <point x="674" y="1216" type="curve" smooth="yes"/>
      <point x="747" y="1216"/>
      <point x="816" y="1341"/>
      <point x="877" y="1341" type="curve" smooth="yes"/>
      <point x="906" y="1341"/>
      <point x="1101" y="1216"/>
      <point x="1186" y="1216" type="curve" smooth="yes"/>
      <point x="1267" y="1216"/>
      <point x="1322" y="1304"/>
      <point x="1331" y="1390" type="curve"/>
      <point x="1303" y="1379"/>
      <point x="1290" y="1378"/>
      <point x="1277" y="1378" type="curve" smooth="yes"/>
      <point x="1202" y="1378"/>
      <point x="983" y="1530"/>
      <point x="931" y="1530" type="curve" smooth="yes"/>
      <point x="856" y="1530"/>
      <point x="755" y="1378"/>
      <point x="731" y="1378" type="curve" smooth="yes"/>
      <point x="673" y="1378"/>
      <point x="487" y="1530"/>
      <point x="433" y="1530" type="curve" smooth="yes"/>
      <point x="340" y="1530"/>
      <point x="98" y="1274"/>
      <point x="98" y="1183" type="curve" smooth="yes"/>
      <point x="98" y="1108"/>
      <point x="178" y="1044"/>
      <point x="271" y="1015" type="curve"/>
      <point x="305" y="1052"/>
      <point x="368" y="1092"/>
      <point x="437" y="1110" type="curve"/>
      <point x="336" y="1144"/>
      <point x="265" y="1201"/>
      <point x="265" y="1237" type="curve" smooth="yes"/>
      <point x="265" y="1280"/>
      <point x="336" y="1341"/>
      <point x="379" y="1341" type="curve" smooth="yes"/>
      <point x="416" y="1341"/>
      <point x="589" y="1216"/>
    </contour>
  </outline>
</glyph>
<glyph name="_smoke2" format="2">
  <advance width="1476"/>
  <outline>
    <contour>
      <point x="483" y="935" type="line"/>
      <point x="483" y="1040" type="line"/>
      <point x="336" y="1075"/>
      <point x="262" y="1112"/>
      <point x="262" y="1167" type="curve" smooth="yes"/>
      <point x="262" y="1240"/>
      <point x="336" y="1341"/>
      <point x="379" y="1341" type="curve" smooth="yes"/>
      <point x="416" y="1341"/>
      <point x="589" y="1216"/>
      <point x="674" y="1216" type="curve" smooth="yes"/>
      <point x="747" y="1216"/>
      <point x="816" y="1341"/>
      <point x="877" y="1341" type="curve" smooth="yes"/>
      <point x="906" y="1341"/>
      <point x="1101" y="1216"/>
      <point x="1186" y="1216" type="curve" smooth="yes"/>
      <point x="1267" y="1216"/>
      <point x="1322" y="1304"/>
      <point x="1331" y="1390" type="curve"/>
      <point x="1303" y="1379"/>
      <point x="1290" y="1378"/>
      <point x="1277" y="1378" type="curve" smooth="yes"/>
      <point x="1202" y="1378"/>
      <point x="983" y="1530"/>
      <point x="931" y="1530" type="curve" smooth="yes"/>
      <point x="856" y="1530"/>
      <point x="755" y="1378"/>
      <point x="731" y="1378" type="curve" smooth="yes"/>
      <point x="673" y="1378"/>
      <point x="487" y="1530"/>
      <point x="433" y="1530" type="curve" smooth="yes"/>
      <point x="340" y="1530"/>
      <point x="88" y="1214"/>
      <point x="88" y="1123" type="curve" smooth="yes"/>
      <point x="88" y="1048"/>
      <point x="169" y="994"/>
      <point x="295" y="957" type="curve"/>
      <point x="295" y="935" type="line"/>
    </contour>
  </outline>
</glyph>
<glyph name="_squirreltail" format="2">
  <advance width="1268"/>
  <outline>
    <contour>
      <point x="232" y="715" type="line"/>
      <point x="420" y="715" type="line"/>
      <point x="420" y="1049" type="line"/>
      <point x="288" y="1071"/>
      <point x="237" y="1113"/>
      <point x="237" y="1153" type="curve" smooth="yes"/>
      <point x="237" y="1205"/>
      <point x="308" y="1297"/>
      <point x="354" y="1297" type="curve" smooth="yes"/>
      <point x="437" y="1297"/>
      <point x="708" y="1115"/>
      <point x="878" y="1115" type="curve" smooth="yes"/>
      <point x="1022" y="1115"/>
      <point x="1147" y="1218"/>
      <point x="1147" y="1388" type="curve" smooth="yes"/>
      <point x="1147" y="1617"/>
      <point x="958" y="1742"/>
      <point x="835" y="1742" type="curve" smooth="yes"/>
      <point x="776" y="1742"/>
      <point x="732" y="1713"/>
      <point x="732" y="1653" type="curve" smooth="yes"/>
      <point x="732" y="1510"/>
      <point x="997" y="1557"/>
      <point x="997" y="1381" type="curve" smooth="yes"/>
      <point x="997" y="1322"/>
      <point x="946" y="1299"/>
      <point x="895" y="1299" type="curve" smooth="yes"/>
      <point x="774" y="1299"/>
      <point x="488" y="1489"/>
      <point x="375" y="1489" type="curve" smooth="yes"/>
      <point x="296" y="1489"/>
      <point x="77" y="1211"/>
      <point x="77" y="1098" type="curve" smooth="yes"/>
      <point x="77" y="1028"/>
      <point x="155" y="998"/>
      <point x="232" y="979" type="curve"/>
    </contour>
  </outline>
</glyph>
<glyph name="_subL.ear" format="2">
  <advance width="462"/>
  <outline>
    <contour>
      <point x="317" y="-455" type="line"/>
      <point x="317" y="-420"/>
      <point x="315" y="-412"/>
      <point x="108" y="-363" type="curve" smooth="yes"/>
      <point x="107" y="-363"/>
      <point x="106" y="-362"/>
      <point x="106" y="-361" type="curve" smooth="yes"/>
      <point x="106" y="-355"/>
      <point x="125" y="-334"/>
      <point x="149" y="-334" type="curve" smooth="yes"/>
      <point x="194" y="-334"/>
      <point x="259" y="-374"/>
      <point x="301" y="-374" type="curve" smooth="yes"/>
      <point x="361" y="-374"/>
      <point x="407" y="-281"/>
      <point x="411" y="-233" type="curve"/>
      <point x="396" y="-240"/>
      <point x="387" y="-241"/>
      <point x="372" y="-241" type="curve" smooth="yes"/>
      <point x="336" y="-241"/>
      <point x="230" y="-192"/>
      <point x="193" y="-192" type="curve" smooth="yes"/>
      <point x="129" y="-192"/>
      <point x="41" y="-353"/>
      <point x="41" y="-417" type="curve" smooth="yes"/>
      <point x="41" y="-420"/>
      <point x="43" y="-423"/>
      <point x="46" y="-423" type="curve" smooth="yes"/>
      <point x="114" y="-426"/>
      <point x="129" y="-452"/>
      <point x="129" y="-469" type="curve" smooth="yes"/>
      <point x="129" y="-554" type="line"/>
      <point x="317" y="-554" type="line"/>
    </contour>
  </outline>
</glyph>
<glyph name="_topArch" format="2">
  <advance width="1004"/>
  <outline>
    <contour>
      <point x="72" y="1139" type="curve"/>
      <point x="92" y="1120"/>
      <point x="126" y="1092"/>
      <point x="150" y="1078" type="curve"/>
      <point x="229" y="1155"/>
      <point x="359" y="1248"/>
      <point x="395" y="1248" type="curve" smooth="yes"/>
      <point x="441" y="1248"/>
      <point x="499" y="1218"/>
      <point x="678" y="1086" type="curve" smooth="yes"/>
      <point x="714" y="1060"/>
      <point x="716" y="1044"/>
      <point x="716" y="997" type="curve" smooth="yes"/>
      <point x="716" y="780" type="line"/>
      <point x="904" y="780" type="line"/>
      <point x="904" y="1071" type="line" smooth="yes"/>
      <point x="904" y="1144"/>
      <point x="886" y="1163"/>
      <point x="847" y="1195" type="curve" smooth="yes"/>
      <point x="713" y="1304"/>
      <point x="523" y="1440"/>
      <point x="451" y="1440" type="curve" smooth="yes"/>
      <point x="341" y="1440"/>
      <point x="130" y="1210"/>
    </contour>
  </outline>
</glyph>
<glyph name="_topArchshort" format="2">
  <advance width="1004"/>
  <outline>
    <contour>
      <point x="182" y="1277" type="curve"/>
      <point x="239" y="1209" type="line"/>
      <point x="301" y="1236"/>
      <point x="340" y="1252"/>
      <point x="379" y="1252" type="curve" smooth="yes"/>
      <point x="443" y="1252"/>
      <point x="507" y="1207"/>
      <point x="678" y="1086" type="curve" smooth="yes"/>
      <point x="715" y="1060"/>
      <point x="716" y="1044"/>
      <point x="716" y="997" type="curve" smooth="yes"/>
      <point x="716" y="780" type="line"/>
      <point x="904" y="780" type="line"/>
      <point x="904" y="1071" type="line" smooth="yes"/>
      <point x="904" y="1144"/>
      <point x="886" y="1163"/>
      <point x="847" y="1195" type="curve" smooth="yes"/>
      <point x="713" y="1304"/>
      <point x="523" y="1440"/>
      <point x="451" y="1440" type="curve" smooth="yes"/>
      <point x="341" y="1440"/>
      <point x="240" y="1348"/>
    </contour>
  </outline>
</glyph>
<glyph name="uni1780.alt" format="2">
  <advance width="1888"/>
  <outline>
    <component base="_stemloop" xOffset="195"/>
    <component base="_stemMd" xOffset="775"/>
    <component base="_stemMd" xOffset="1355"/>
    <component base="_stemSm" xOffset="195" yOffset="423"/>
    <component base="_curveShort" yScale="-1" xOffset="195" yOffset="1123"/>
    <component base="_curveShort" yScale="-1" xOffset="775" yOffset="1119"/>
    <contour>
      <point x="944" y="1216" type="curve" smooth="yes"/>
      <point x="1017" y="1216"/>
      <point x="1086" y="1341"/>
      <point x="1147" y="1341" type="curve" smooth="yes"/>
      <point x="1176" y="1341"/>
      <point x="1501" y="1216"/>
      <point x="1586" y="1216" type="curve" smooth="yes"/>
      <point x="1667" y="1216"/>
      <point x="1722" y="1304"/>
      <point x="1731" y="1390" type="curve"/>
      <point x="1703" y="1379"/>
      <point x="1690" y="1378"/>
      <point x="1677" y="1378" type="curve" smooth="yes"/>
      <point x="1602" y="1378"/>
      <point x="1253" y="1530"/>
      <point x="1201" y="1530" type="curve" smooth="yes"/>
      <point x="1126" y="1530"/>
      <point x="1025" y="1378"/>
      <point x="1001" y="1378" type="curve" smooth="yes"/>
      <point x="943" y="1378"/>
      <point x="557" y="1530"/>
      <point x="503" y="1530" type="curve" smooth="yes"/>
      <point x="410" y="1530"/>
      <point x="98" y="1274"/>
      <point x="98" y="1183" type="curve" smooth="yes"/>
      <point x="98" y="1108"/>
      <point x="178" y="1044"/>
      <point x="271" y="1015" type="curve"/>
      <point x="305" y="1052"/>
      <point x="368" y="1106"/>
      <point x="437" y="1124" type="curve"/>
      <point x="336" y="1158"/>
      <point x="295" y="1201"/>
      <point x="295" y="1237" type="curve" smooth="yes"/>
      <point x="295" y="1280"/>
      <point x="376" y="1341"/>
      <point x="449" y="1341" type="curve" smooth="yes"/>
      <point x="486" y="1341"/>
      <point x="859" y="1216"/>
    </contour>
  </outline>
</glyph>
<glyph name="uni178017B6.alt" format="2">
  <advance width="2616"/>
  <anchor x="1725" y="0" name="C6_1"/>
  <anchor x="2638" y="20" name="C6_2"/>
  <anchor x="1930" y="0" name="L_1"/>
  <anchor x="2680" y="20" name="L_2"/>
  <anchor x="1750" y="1000" name="UR_1"/>
  <anchor x="20" y="1000" name="UR_2"/>
  <anchor x="1725" y="1000" name="U_1"/>
  <anchor x="2720" y="1000" name="U_2"/>
  <anchor x="2196" y="1236" name="zxc1"/>
  <outline>
    <component base="_stemloop" xOffset="195"/>
    <component base="_stemMd" xOffset="775"/>
    <component base="_stemMd" xOffset="1355"/>
    <component base="_stemSm" xOffset="195" yOffset="423"/>
    <component base="_curveShort" yScale="-1" xOffset="195" yOffset="1123"/>
    <component base="_curveShort" yScale="-1" xOffset="775" yOffset="1119"/>
    <component base="_stemLg" xOffset="2083"/>
    <contour>
      <point x="2371" y="1073" type="line" smooth="yes"/>
      <point x="2371" y="1147"/>
      <point x="2355" y="1204"/>
      <point x="2281" y="1245" type="curve" smooth="yes"/>
      <point x="1987" y="1407"/>
      <point x="1219" y="1524"/>
      <point x="1177" y="1524" type="curve" smooth="yes"/>
      <point x="1102" y="1524"/>
      <point x="1001" y="1372"/>
      <point x="977" y="1372" type="curve" smooth="yes"/>
      <point x="919" y="1372"/>
      <point x="533" y="1524"/>
      <point x="479" y="1524" type="curve" smooth="yes"/>
      <point x="386" y="1524"/>
      <point x="74" y="1268"/>
      <point x="74" y="1177" type="curve" smooth="yes"/>
      <point x="74" y="1102"/>
      <point x="154" y="1038"/>
      <point x="247" y="1009" type="curve"/>
      <point x="281" y="1046"/>
      <point x="344" y="1100"/>
      <point x="413" y="1118" type="curve"/>
      <point x="312" y="1152"/>
      <point x="271" y="1195"/>
      <point x="271" y="1231" type="curve" smooth="yes"/>
      <point x="271" y="1274"/>
      <point x="352" y="1335"/>
      <point x="425" y="1335" type="curve" smooth="yes"/>
      <point x="462" y="1335"/>
      <point x="835" y="1210"/>
      <point x="920" y="1210" type="curve" smooth="yes"/>
      <point x="993" y="1210"/>
      <point x="1062" y="1335"/>
      <point x="1123" y="1335" type="curve" smooth="yes"/>
      <point x="1147" y="1335"/>
      <point x="1880" y="1226"/>
      <point x="2140" y="1104" type="curve" smooth="yes"/>
      <point x="2183" y="1084"/>
      <point x="2183" y="1055"/>
      <point x="2183" y="975" type="curve" smooth="yes"/>
      <point x="2183" y="720" type="line"/>
      <point x="2371" y="720" type="line"/>
    </contour>
  </outline>
</glyph>
<glyph name="uni178017C5.space.right" format="2">
  <advance width="2204"/>
  <anchor x="1231" y="0" name="L1"/>
  <anchor x="1959" y="0" name="L2"/>
  <anchor x="1231" y="1440" name="U1"/>
  <anchor x="1959" y="1922" name="U2"/>
  <anchor x="763" y="0" name="lm"/>
  <anchor x="763" y="1440" name="um"/>
  <anchor x="1546" y="1922" name="um2"/>
  <outline>
    <contour>
      <point x="1285" y="1236" type="curve" smooth="yes"/>
      <point x="1354" y="1236"/>
      <point x="1661" y="1081"/>
      <point x="1732" y="1035" type="curve" smooth="yes"/>
      <point x="1749" y="1024"/>
      <point x="1771" y="1005"/>
      <point x="1771" y="980" type="curve" smooth="yes"/>
      <point x="1771" y="0" type="line"/>
      <point x="1959" y="0" type="line"/>
      <point x="1959" y="1043" type="line" smooth="yes"/>
      <point x="1959" y="1102"/>
      <point x="1929" y="1146"/>
      <point x="1868" y="1188" type="curve"/>
      <point x="1924" y="1266"/>
      <point x="1959" y="1329"/>
      <point x="1959" y="1410" type="curve" smooth="yes"/>
      <point x="1959" y="1788" type="line" smooth="yes"/>
      <point x="1959" y="1858"/>
      <point x="1871" y="1922"/>
      <point x="1788" y="1922" type="curve" smooth="yes"/>
      <point x="1717" y="1922"/>
      <point x="1687" y="1908"/>
      <point x="1660" y="1893" type="curve"/>
      <point x="1735" y="1893"/>
      <point x="1771" y="1825"/>
      <point x="1771" y="1792" type="curve" smooth="yes"/>
      <point x="1771" y="1410" type="line" smooth="yes"/>
      <point x="1771" y="1356"/>
      <point x="1751" y="1313"/>
      <point x="1721" y="1271" type="curve"/>
      <point x="1583" y="1345"/>
      <point x="1389" y="1440"/>
      <point x="1341" y="1440" type="curve" smooth="yes"/>
      <point x="1229" y="1440"/>
      <point x="1190" y="1295"/>
      <point x="1180" y="1208" type="curve"/>
      <point x="1215" y="1232"/>
      <point x="1256" y="1236"/>
    </contour>
  </outline>
</glyph>
<glyph name="uni178617C5.right" format="2">
  <advance width="2244"/>
  <anchor x="1271" y="0" name="L1"/>
  <anchor x="1999" y="0" name="L2"/>
  <anchor x="1271" y="1440" name="U1"/>
  <anchor x="1999" y="1922" name="U2"/>
  <anchor x="803" y="0" name="lm"/>
  <anchor x="803" y="1440" name="um"/>
  <anchor x="1541" y="1922" name="um2"/>
  <outline>
    <contour>
      <point x="1908" y="1188" type="line"/>
      <point x="1964" y="1266"/>
      <point x="1999" y="1329"/>
      <point x="1999" y="1410" type="curve" smooth="yes"/>
      <point x="1999" y="1788" type="line" smooth="yes"/>
      <point x="1999" y="1858"/>
      <point x="1911" y="1922"/>
      <point x="1828" y="1922" type="curve" smooth="yes"/>
      <point x="1757" y="1922"/>
      <point x="1727" y="1908"/>
      <point x="1700" y="1893" type="curve"/>
      <point x="1775" y="1893"/>
      <point x="1811" y="1825"/>
      <point x="1811" y="1792" type="curve" smooth="yes"/>
      <point x="1811" y="1410" type="line" smooth="yes"/>
      <point x="1811" y="1355"/>
      <point x="1790" y="1313"/>
      <point x="1760" y="1270" type="curve"/>
    </contour>
    <contour>
      <point x="335" y="865" type="line"/>
      <point x="335" y="451" type="line"/>
      <point x="209" y="439"/>
      <point x="108" y="363"/>
      <point x="108" y="248" type="curve" smooth="yes"/>
      <point x="108" y="169"/>
      <point x="186" y="31"/>
      <point x="352" y="0" type="curve"/>
      <point x="417" y="0"/>
      <point x="498" y="15"/>
      <point x="523" y="78" type="curve"/>
      <point x="523" y="315" type="line"/>
      <point x="559" y="300"/>
      <point x="605" y="251"/>
      <point x="656" y="200" type="curve" smooth="yes"/>
      <point x="748" y="108"/>
      <point x="854" y="0"/>
      <point x="1019" y="0" type="curve" smooth="yes"/>
      <point x="1199" y="0"/>
      <point x="1271" y="104"/>
      <point x="1271" y="207" type="curve" smooth="yes"/>
      <point x="1271" y="822" type="line"/>
      <point x="1246" y="885"/>
      <point x="1165" y="900"/>
      <point x="1100" y="900" type="curve"/>
      <point x="934" y="869"/>
      <point x="856" y="729"/>
      <point x="856" y="640" type="curve" smooth="yes"/>
      <point x="856" y="526"/>
      <point x="953" y="458"/>
      <point x="1083" y="445" type="curve"/>
      <point x="1083" y="226" type="line" smooth="yes"/>
      <point x="1083" y="168"/>
      <point x="1048" y="136"/>
      <point x="994" y="136" type="curve" smooth="yes"/>
      <point x="933" y="136"/>
      <point x="848" y="194"/>
      <point x="777" y="267" type="curve" smooth="yes"/>
      <point x="701" y="345"/>
      <point x="613" y="432"/>
      <point x="523" y="451" type="curve"/>
      <point x="523" y="894" type="line"/>
    </contour>
    <contour>
      <point x="978" y="640" type="curve" smooth="yes"/>
      <point x="978" y="701"/>
      <point x="1032" y="741"/>
      <point x="1083" y="763" type="curve"/>
      <point x="1083" y="532" type="line"/>
      <point x="1017" y="551"/>
      <point x="978" y="587"/>
    </contour>
    <contour>
      <point x="230" y="257" type="curve" smooth="yes"/>
      <point x="230" y="307"/>
      <point x="287" y="338"/>
      <point x="335" y="345" type="curve"/>
      <point x="335" y="137" type="line"/>
      <point x="284" y="159"/>
      <point x="230" y="196"/>
    </contour>
    <contour>
      <point x="523" y="534" type="line"/>
      <point x="523" y="1000" type="line"/>
      <point x="421" y="1017"/>
      <point x="340" y="1047"/>
      <point x="340" y="1104" type="curve" smooth="yes"/>
      <point x="340" y="1140"/>
      <point x="418" y="1217"/>
      <point x="448" y="1237" type="curve" smooth="yes"/>
      <point x="456" y="1243"/>
      <point x="472" y="1249"/>
      <point x="487" y="1249" type="curve" smooth="yes"/>
      <point x="556" y="1249"/>
      <point x="979" y="1071"/>
      <point x="1064" y="1071" type="curve" smooth="yes"/>
      <point x="1101" y="1071"/>
      <point x="1142" y="1103"/>
      <point x="1191" y="1152" type="curve" smooth="yes"/>
      <point x="1240" y="1201"/>
      <point x="1284" y="1246"/>
      <point x="1315" y="1246" type="curve" smooth="yes"/>
      <point x="1384" y="1246"/>
      <point x="1701" y="1091"/>
      <point x="1772" y="1045" type="curve" smooth="yes"/>
      <point x="1789" y="1034"/>
      <point x="1811" y="1015"/>
      <point x="1811" y="990" type="curve" smooth="yes"/>
      <point x="1811" y="0" type="line"/>
      <point x="1999" y="0" type="line"/>
      <point x="1999" y="1053" type="line" smooth="yes"/>
      <point x="1999" y="1114"/>
      <point x="1967" y="1159"/>
      <point x="1902" y="1202" type="curve" smooth="yes"/>
      <point x="1844" y="1240"/>
      <point x="1433" y="1440"/>
      <point x="1361" y="1440" type="curve" smooth="yes"/>
      <point x="1317" y="1440"/>
      <point x="1266" y="1399"/>
      <point x="1226" y="1367" type="curve" smooth="yes"/>
      <point x="1197" y="1343"/>
      <point x="1139" y="1291"/>
      <point x="1111" y="1258" type="curve"/>
      <point x="1032" y="1283"/>
      <point x="617" y="1440"/>
      <point x="553" y="1440" type="curve" smooth="yes"/>
      <point x="469" y="1440"/>
      <point x="206" y="1185"/>
      <point x="181" y="1081" type="curve" smooth="yes"/>
      <point x="180" y="1076"/>
      <point x="180" y="1060"/>
      <point x="180" y="1049" type="curve" smooth="yes"/>
      <point x="180" y="983"/>
      <point x="270" y="951"/>
      <point x="335" y="930" type="curve"/>
      <point x="335" y="538" type="line"/>
    </contour>
  </outline>
</glyph>
<glyph name="uni179117B6" format="2">
  <advance width="2008"/>
  <anchor x="1131" y="0" name="L1"/>
  <anchor x="1763" y="0" name="L2"/>
  <anchor x="1131" y="1440" name="U1"/>
  <anchor x="1763" y="1440" name="U2"/>
  <anchor x="587" y="0" name="lm"/>
  <anchor x="718" y="1440" name="um"/>
  <anchor x="1350" y="1440" name="um2"/>
  <outline>
    <contour>
      <point x="869" y="701" type="line"/>
      <point x="869" y="744"/>
      <point x="882" y="766"/>
      <point x="908" y="766" type="curve" smooth="yes"/>
      <point x="936" y="766"/>
      <point x="953" y="748"/>
      <point x="953" y="709" type="curve" smooth="yes"/>
      <point x="953" y="675"/>
      <point x="925" y="652"/>
      <point x="903" y="652" type="curve" smooth="yes"/>
      <point x="869" y="652" type="line"/>
    </contour>
    <contour>
      <point x="681" y="502" type="curve"/>
      <point x="681" y="214" type="line" smooth="yes"/>
      <point x="681" y="158"/>
      <point x="651" y="112"/>
      <point x="587" y="112" type="curve" smooth="yes"/>
      <point x="523" y="112"/>
      <point x="493" y="158"/>
      <point x="493" y="214" type="curve" smooth="yes"/>
      <point x="493" y="449" type="line"/>
      <point x="305" y="449" type="line"/>
      <point x="305" y="217" type="line" smooth="yes"/>
      <point x="305" y="117"/>
      <point x="383" y="0"/>
      <point x="587" y="0" type="curve" smooth="yes"/>
      <point x="791" y="0"/>
      <point x="869" y="117"/>
      <point x="869" y="217" type="curve" smooth="yes"/>
      <point x="869" y="502" type="line"/>
      <point x="1042" y="505"/>
      <point x="1131" y="606"/>
      <point x="1131" y="709" type="curve" smooth="yes"/>
      <point x="1131" y="818"/>
      <point x="1027" y="896"/>
      <point x="906" y="896" type="curve" smooth="yes"/>
      <point x="759" y="896"/>
      <point x="681" y="803"/>
      <point x="681" y="652" type="curve"/>
      <point x="488" y="660"/>
      <point x="365" y="818"/>
      <point x="365" y="991" type="curve" smooth="yes"/>
      <point x="365" y="1172"/>
      <point x="461" y="1310"/>
      <point x="718" y="1310" type="curve" smooth="yes"/>
      <point x="880" y="1310"/>
      <point x="945" y="1250"/>
      <point x="945" y="1208" type="curve" smooth="yes"/>
      <point x="945" y="1177"/>
      <point x="942" y="1167"/>
      <point x="931" y="1156" type="curve"/>
      <point x="904" y="1179"/>
      <point x="875" y="1193"/>
      <point x="829" y="1193" type="curve" smooth="yes"/>
      <point x="761" y="1193"/>
      <point x="710" y="1158"/>
      <point x="710" y="1099" type="curve" smooth="yes"/>
      <point x="710" y="1020"/>
      <point x="795" y="967"/>
      <point x="874" y="967" type="curve" smooth="yes"/>
      <point x="911" y="967"/>
      <point x="975" y="980"/>
      <point x="1018" y="1010" type="curve" smooth="yes"/>
      <point x="1073" y="1050"/>
      <point x="1113" y="1106"/>
      <point x="1113" y="1189" type="curve" smooth="yes"/>
      <point x="1113" y="1320"/>
      <point x="1016" y="1440"/>
      <point x="718" y="1440" type="curve" smooth="yes"/>
      <point x="365" y="1440"/>
      <point x="177" y="1256"/>
      <point x="177" y="991" type="curve" smooth="yes"/>
      <point x="177" y="711"/>
      <point x="399" y="510"/>
    </contour>
    <contour>
      <point x="1254" y="1236" type="curve" smooth="yes"/>
      <point x="1323" y="1236"/>
      <point x="1465" y="1131"/>
      <point x="1536" y="1075" type="curve" smooth="yes"/>
      <point x="1553" y="1062"/>
      <point x="1575" y="1045"/>
      <point x="1575" y="1020" type="curve" smooth="yes"/>
      <point x="1575" y="0" type="line"/>
      <point x="1763" y="0" type="line"/>
      <point x="1763" y="1083" type="line" smooth="yes"/>
      <point x="1763" y="1144"/>
      <point x="1727" y="1184"/>
      <point x="1666" y="1232" type="curve" smooth="yes"/>
      <point x="1608" y="1278"/>
      <point x="1382" y="1440"/>
      <point x="1310" y="1440" type="curve" smooth="yes"/>
      <point x="1240" y="1440"/>
      <point x="1145" y="1349"/>
      <point x="1049" y="1249" type="curve" smooth="yes"/>
      <point x="942" y="1137"/>
      <point x="1075" y="1072"/>
      <point x="1103" y="1124" type="curve" smooth="yes"/>
      <point x="1132" y="1178"/>
      <point x="1205" y="1236"/>
    </contour>
  </outline>
</glyph>
<glyph name="uni1794.lig.left" format="2">
  <advance width="1476"/>
  <outline>
    <component base="_curve" xOffset="195"/>
    <component base="_stemSm" xOffset="943" yOffset="-152"/>
    <component base="_stemMd" xOffset="195" yOffset="241"/>
    <component base="_stemMd" xOffset="943" yOffset="148"/>
    <contour>
      <point x="1476" y="1235" type="curve"/>
      <point x="1476" y="1441" type="line"/>
      <point x="1340" y="1490"/>
      <point x="1220" y="1524"/>
      <point x="1200" y="1524" type="curve" smooth="yes"/>
      <point x="1125" y="1524"/>
      <point x="1024" y="1372"/>
      <point x="1000" y="1372" type="curve" smooth="yes"/>
      <point x="942" y="1372"/>
      <point x="556" y="1524"/>
      <point x="502" y="1524" type="curve" smooth="yes"/>
      <point x="409" y="1524"/>
      <point x="88" y="1214"/>
      <point x="88" y="1123" type="curve" smooth="yes"/>
      <point x="88" y="1048"/>
      <point x="169" y="994"/>
      <point x="295" y="957" type="curve"/>
      <point x="295" y="935" type="line"/>
      <point x="483" y="935" type="line"/>
      <point x="483" y="1040" type="line"/>
      <point x="336" y="1075"/>
      <point x="262" y="1112"/>
      <point x="262" y="1167" type="curve" smooth="yes"/>
      <point x="262" y="1210"/>
      <point x="375" y="1335"/>
      <point x="448" y="1335" type="curve" smooth="yes"/>
      <point x="485" y="1335"/>
      <point x="858" y="1210"/>
      <point x="943" y="1210" type="curve" smooth="yes"/>
      <point x="1016" y="1210"/>
      <point x="1085" y="1335"/>
      <point x="1146" y="1335" type="curve" smooth="yes"/>
      <point x="1161" y="1335"/>
      <point x="1322" y="1291"/>
    </contour>
  </outline>
</glyph>
<glyph name="uni179617C5.right" format="2">
  <advance width="2204"/>
  <anchor x="1231" y="0" name="L1"/>
  <anchor x="1959" y="0" name="L2"/>
  <anchor x="1231" y="1440" name="U1"/>
  <anchor x="1959" y="1922" name="U2"/>
  <anchor x="763" y="0" name="lm"/>
  <anchor x="763" y="1440" name="um"/>
  <anchor x="1501" y="1922" name="um2"/>
  <outline>
    <contour>
      <point x="295" y="1182" type="curve"/>
      <point x="295" y="78" type="line"/>
      <point x="320" y="15"/>
      <point x="401" y="0"/>
      <point x="466" y="0" type="curve"/>
      <point x="632" y="31"/>
      <point x="710" y="171"/>
      <point x="710" y="270" type="curve" smooth="yes"/>
      <point x="710" y="384"/>
      <point x="613" y="482"/>
      <point x="483" y="495" type="curve"/>
      <point x="483" y="1145" type="line" smooth="yes"/>
      <point x="483" y="1193"/>
      <point x="539" y="1272"/>
      <point x="564" y="1272" type="curve" smooth="yes"/>
      <point x="568" y="1272"/>
      <point x="604" y="1238"/>
      <point x="636" y="1204" type="curve" smooth="yes"/>
      <point x="673" y="1163"/>
      <point x="714" y="1121"/>
      <point x="763" y="1121" type="curve" smooth="yes"/>
      <point x="812" y="1121"/>
      <point x="853" y="1163"/>
      <point x="890" y="1204" type="curve" smooth="yes"/>
      <point x="922" y="1238"/>
      <point x="958" y="1272"/>
      <point x="962" y="1272" type="curve" smooth="yes"/>
      <point x="987" y="1272"/>
      <point x="1043" y="1193"/>
      <point x="1043" y="1145" type="curve" smooth="yes"/>
      <point x="1043" y="0" type="line"/>
      <point x="1231" y="0" type="line"/>
      <point x="1231" y="1182" type="line" smooth="yes"/>
      <point x="1231" y="1242"/>
      <point x="1085" y="1440"/>
      <point x="984" y="1440" type="curve" smooth="yes"/>
      <point x="931" y="1440"/>
      <point x="887" y="1396"/>
      <point x="846" y="1350" type="curve" smooth="yes"/>
      <point x="813" y="1313"/>
      <point x="774" y="1276"/>
      <point x="763" y="1276" type="curve" smooth="yes"/>
      <point x="752" y="1276"/>
      <point x="713" y="1313"/>
      <point x="680" y="1350" type="curve" smooth="yes"/>
      <point x="639" y="1396"/>
      <point x="595" y="1440"/>
      <point x="542" y="1440" type="curve" smooth="yes"/>
      <point x="441" y="1440"/>
      <point x="295" y="1242"/>
    </contour>
    <contour>
      <point x="588" y="270" type="curve" smooth="yes"/>
      <point x="588" y="199"/>
      <point x="534" y="159"/>
      <point x="483" y="137" type="curve"/>
      <point x="483" y="408" type="line"/>
      <point x="549" y="389"/>
      <point x="588" y="323"/>
    </contour>
    <contour>
      <point x="1771" y="1792" type="curve"/>
      <point x="1771" y="1410" type="line" smooth="yes"/>
      <point x="1771" y="1352"/>
      <point x="1747" y="1307"/>
      <point x="1714" y="1261" type="curve"/>
      <point x="1855" y="1170" type="line"/>
      <point x="1918" y="1257"/>
      <point x="1959" y="1323"/>
      <point x="1959" y="1410" type="curve" smooth="yes"/>
      <point x="1959" y="1788" type="line" smooth="yes"/>
      <point x="1959" y="1858"/>
      <point x="1871" y="1922"/>
      <point x="1788" y="1922" type="curve" smooth="yes"/>
      <point x="1717" y="1922"/>
      <point x="1687" y="1908"/>
      <point x="1660" y="1893" type="curve"/>
      <point x="1735" y="1893"/>
      <point x="1771" y="1825"/>
    </contour>
    <contour>
      <point x="1450" y="1236" type="curve" smooth="yes"/>
      <point x="1519" y="1236"/>
      <point x="1661" y="1131"/>
      <point x="1732" y="1075" type="curve" smooth="yes"/>
      <point x="1749" y="1062"/>
      <point x="1771" y="1045"/>
      <point x="1771" y="1020" type="curve" smooth="yes"/>
      <point x="1771" y="0" type="line"/>
      <point x="1959" y="0" type="line"/>
      <point x="1959" y="1083" type="line" smooth="yes"/>
      <point x="1959" y="1144"/>
      <point x="1923" y="1184"/>
      <point x="1862" y="1232" type="curve" smooth="yes"/>
      <point x="1804" y="1278"/>
      <point x="1578" y="1440"/>
      <point x="1506" y="1440" type="curve" smooth="yes"/>
      <point x="1436" y="1440"/>
      <point x="1351" y="1372"/>
      <point x="1185" y="1199" type="curve" smooth="yes"/>
      <point x="1078" y="1087"/>
      <point x="1164" y="1036"/>
      <point x="1216" y="1088" type="curve" smooth="yes"/>
      <point x="1306" y="1178"/>
      <point x="1401" y="1236"/>
    </contour>
  </outline>
</glyph>
<glyph name="uni179A.spc" format="2">
  <advance width="918"/>
  <anchor x="673" y="1440" name="U2"/>
  <anchor x="523" y="0" name="lm"/>
  <anchor x="549" y="1440" name="um"/>
  <outline>
    <contour>
      <point x="673" y="78" type="curve"/>
      <point x="673" y="950" type="line" smooth="yes"/>
      <point x="673" y="1015"/>
      <point x="534" y="1114"/>
      <point x="414" y="1154" type="curve" smooth="yes"/>
      <point x="412" y="1155"/>
      <point x="411" y="1156"/>
      <point x="411" y="1158" type="curve"/>
      <point x="411" y="1160" type="line"/>
      <point x="416" y="1183"/>
      <point x="431" y="1215"/>
      <point x="449" y="1227" type="curve" smooth="yes"/>
      <point x="457" y="1233"/>
      <point x="467" y="1236"/>
      <point x="477" y="1236" type="curve" smooth="yes"/>
      <point x="546" y="1236"/>
      <point x="579" y="1165"/>
      <point x="664" y="1165" type="curve" smooth="yes"/>
      <point x="755" y="1165"/>
      <point x="774" y="1260"/>
      <point x="805" y="1346" type="curve"/>
      <point x="782" y="1336"/>
      <point x="758" y="1334"/>
      <point x="735" y="1334" type="curve" smooth="yes"/>
      <point x="680" y="1334"/>
      <point x="595" y="1440"/>
      <point x="523" y="1440" type="curve" smooth="yes"/>
      <point x="439" y="1440"/>
      <point x="336" y="1185"/>
      <point x="311" y="1081" type="curve"/>
      <point x="311" y="1079" type="line"/>
      <point x="311" y="1075"/>
      <point x="313" y="1070"/>
      <point x="318" y="1069" type="curve" smooth="yes"/>
      <point x="423" y="1057"/>
      <point x="485" y="983"/>
      <point x="485" y="939" type="curve" smooth="yes"/>
      <point x="485" y="495" type="line"/>
      <point x="355" y="482"/>
      <point x="258" y="384"/>
      <point x="258" y="270" type="curve" smooth="yes"/>
      <point x="258" y="171"/>
      <point x="336" y="31"/>
      <point x="502" y="0" type="curve"/>
      <point x="567" y="0"/>
      <point x="648" y="15"/>
    </contour>
    <contour>
      <point x="380" y="270" type="curve" smooth="yes"/>
      <point x="380" y="323"/>
      <point x="419" y="389"/>
      <point x="485" y="408" type="curve"/>
      <point x="485" y="137" type="line"/>
      <point x="434" y="159"/>
      <point x="380" y="199"/>
    </contour>
  </outline>
</glyph>
<glyph name="uni179C17B6" format="2">
  <advance width="1496"/>
  <anchor x="1251" y="0" name="L2"/>
  <anchor x="523" y="1793" name="U1"/>
  <anchor x="1251" y="1440" name="U2"/>
  <anchor x="372" y="0" name="lm"/>
  <anchor x="399" y="1793" name="um"/>
  <anchor x="793" y="1793" name="um2"/>
  <outline>
    <contour>
      <point x="600" y="1192" type="line"/>
      <point x="636" y="1212"/>
      <point x="693" y="1236"/>
      <point x="761" y="1236" type="curve" smooth="yes"/>
      <point x="830" y="1236"/>
      <point x="953" y="1131"/>
      <point x="1024" y="1075" type="curve" smooth="yes"/>
      <point x="1041" y="1062"/>
      <point x="1063" y="1045"/>
      <point x="1063" y="1020" type="curve" smooth="yes"/>
      <point x="1063" y="0" type="line"/>
      <point x="1251" y="0" type="line"/>
      <point x="1251" y="1083" type="line" smooth="yes"/>
      <point x="1251" y="1144"/>
      <point x="1215" y="1184"/>
      <point x="1154" y="1232" type="curve" smooth="yes"/>
      <point x="1096" y="1278"/>
      <point x="889" y="1440"/>
      <point x="817" y="1440" type="curve" smooth="yes"/>
      <point x="771" y="1440"/>
      <point x="722" y="1415"/>
      <point x="691" y="1380" type="curve"/>
    </contour>
    <contour>
      <point x="523" y="78" type="curve"/>
      <point x="523" y="950" type="line" smooth="yes"/>
      <point x="523" y="1015"/>
      <point x="384" y="1114"/>
      <point x="264" y="1154" type="curve" smooth="yes"/>
      <point x="262" y="1155"/>
      <point x="261" y="1156"/>
      <point x="261" y="1158" type="curve"/>
      <point x="261" y="1160" type="line"/>
      <point x="266" y="1183"/>
      <point x="281" y="1215"/>
      <point x="299" y="1227" type="curve" smooth="yes"/>
      <point x="307" y="1233"/>
      <point x="317" y="1236"/>
      <point x="327" y="1236" type="curve" smooth="yes"/>
      <point x="396" y="1236"/>
      <point x="429" y="1165"/>
      <point x="514" y="1165" type="curve" smooth="yes"/>
      <point x="612" y="1165"/>
      <point x="696" y="1257"/>
      <point x="696" y="1453" type="curve" smooth="yes"/>
      <point x="696" y="1610"/>
      <point x="598" y="1793"/>
      <point x="398" y="1793" type="curve" smooth="yes"/>
      <point x="330" y="1793"/>
      <point x="291" y="1763"/>
      <point x="291" y="1713" type="curve" smooth="yes"/>
      <point x="291" y="1650"/>
      <point x="335" y="1616"/>
      <point x="421" y="1589" type="curve" smooth="yes"/>
      <point x="515" y="1560"/>
      <point x="607" y="1488"/>
      <point x="607" y="1390" type="curve" smooth="yes"/>
      <point x="607" y="1354"/>
      <point x="602" y="1334"/>
      <point x="585" y="1334" type="curve" smooth="yes"/>
      <point x="530" y="1334"/>
      <point x="445" y="1440"/>
      <point x="373" y="1440" type="curve" smooth="yes"/>
      <point x="289" y="1440"/>
      <point x="186" y="1185"/>
      <point x="161" y="1081" type="curve"/>
      <point x="161" y="1079" type="line"/>
      <point x="161" y="1075"/>
      <point x="163" y="1070"/>
      <point x="168" y="1069" type="curve" smooth="yes"/>
      <point x="273" y="1057"/>
      <point x="335" y="983"/>
      <point x="335" y="939" type="curve" smooth="yes"/>
      <point x="335" y="495" type="line"/>
      <point x="205" y="482"/>
      <point x="108" y="384"/>
      <point x="108" y="270" type="curve" smooth="yes"/>
      <point x="108" y="171"/>
      <point x="186" y="31"/>
      <point x="352" y="0" type="curve"/>
      <point x="417" y="0"/>
      <point x="498" y="15"/>
    </contour>
    <contour>
      <point x="230" y="270" type="curve" smooth="yes"/>
      <point x="230" y="323"/>
      <point x="269" y="389"/>
      <point x="335" y="408" type="curve"/>
      <point x="335" y="137" type="line"/>
      <point x="284" y="159"/>
      <point x="230" y="199"/>
    </contour>
  </outline>
</glyph>
<glyph name="uni17B1.alt2" format="2">
  <advance width="1358"/>
  <anchor x="1437" y="0" name="NG"/>
  <outline>
    <component base="_2"/>
    <contour>
      <point x="1004" y="564" type="line"/>
      <point x="1004" y="65" type="line" smooth="yes"/>
      <point x="1004" y="21"/>
      <point x="1007" y="0"/>
      <point x="1063" y="0" type="curve" smooth="yes"/>
      <point x="1224" y="0" type="line"/>
      <point x="1199" y="15"/>
      <point x="1192" y="26"/>
      <point x="1192" y="80" type="curve" smooth="yes"/>
      <point x="1192" y="564" type="line"/>
    </contour>
    <contour>
      <point x="441" y="1850" type="curve" smooth="yes"/>
      <point x="348" y="1850"/>
      <point x="106" y="1594"/>
      <point x="106" y="1503" type="curve" smooth="yes"/>
      <point x="106" y="1428"/>
      <point x="186" y="1364"/>
      <point x="279" y="1335" type="curve"/>
      <point x="313" y="1372"/>
      <point x="376" y="1412"/>
      <point x="445" y="1430" type="curve"/>
      <point x="344" y="1464"/>
      <point x="273" y="1521"/>
      <point x="273" y="1557" type="curve" smooth="yes"/>
      <point x="273" y="1600"/>
      <point x="344" y="1661"/>
      <point x="387" y="1661" type="curve" smooth="yes"/>
      <point x="467" y="1661"/>
      <point x="871" y="1466"/>
      <point x="1046" y="1466" type="curve" smooth="yes"/>
      <point x="1127" y="1466"/>
      <point x="1182" y="1554"/>
      <point x="1191" y="1640" type="curve"/>
      <point x="1163" y="1629"/>
      <point x="1150" y="1628"/>
      <point x="1117" y="1628" type="curve" smooth="yes"/>
      <point x="972" y="1628"/>
      <point x="543" y="1850"/>
    </contour>
  </outline>
</glyph>
<glyph name="uni17B6.lig.right" format="2">
  <advance width="728"/>
  <anchor x="308" y="1236" name="zxc1"/>
  <outline>
    <component base="_stemLg" xOffset="195"/>
    <contour>
      <point x="0" y="1435" type="curve"/>
      <point x="0" y="1245" type="line"/>
      <point x="44" y="1234"/>
      <point x="110" y="1194"/>
      <point x="257" y="1086" type="curve" smooth="yes"/>
      <point x="293" y="1060"/>
      <point x="295" y="1044"/>
      <point x="295" y="997" type="curve" smooth="yes"/>
      <point x="295" y="780" type="line"/>
      <point x="483" y="780" type="line"/>
      <point x="483" y="1071" type="line" smooth="yes"/>
      <point x="483" y="1144"/>
      <point x="465" y="1163"/>
      <point x="426" y="1195" type="curve" smooth="yes"/>
      <point x="292" y="1304"/>
      <point x="102" y="1440"/>
      <point x="30" y="1440" type="curve" smooth="yes"/>
      <point x="21" y="1440"/>
      <point x="10" y="1438"/>
    </contour>
  </outline>
</glyph>
<glyph name="uni17C6.ms.psom" format="2">
  <advance width="2932"/>
  <anchor x="1172" y="0" name="L"/>
  <anchor x="1172" y="1627" name="U"/>
  <outline>
    <contour>
      <point x="1231" y="68" type="curve"/>
      <point x="1231" y="822" type="line"/>
      <point x="1206" y="885"/>
      <point x="1125" y="900"/>
      <point x="1060" y="900" type="curve"/>
      <point x="894" y="869"/>
      <point x="816" y="729"/>
      <point x="816" y="640" type="curve" smooth="yes"/>
      <point x="816" y="526"/>
      <point x="913" y="458"/>
      <point x="1043" y="445" type="curve"/>
      <point x="1043" y="215" type="line" smooth="yes"/>
      <point x="1043" y="172"/>
      <point x="1038" y="150"/>
      <point x="1014" y="150" type="curve" smooth="yes"/>
      <point x="1003" y="150"/>
      <point x="944" y="191"/>
      <point x="873" y="247" type="curve" smooth="yes"/>
      <point x="837" y="275"/>
      <point x="799" y="300"/>
      <point x="763" y="300" type="curve" smooth="yes"/>
      <point x="727" y="300"/>
      <point x="689" y="275"/>
      <point x="653" y="247" type="curve" smooth="yes"/>
      <point x="582" y="191"/>
      <point x="523" y="150"/>
      <point x="512" y="150" type="curve" smooth="yes"/>
      <point x="488" y="150"/>
      <point x="483" y="172"/>
      <point x="483" y="215" type="curve" smooth="yes"/>
      <point x="483" y="1000" type="line"/>
      <point x="400" y="1016"/>
      <point x="300" y="1041"/>
      <point x="300" y="1104" type="curve" smooth="yes"/>
      <point x="300" y="1107" type="line" smooth="yes"/>
      <point x="300" y="1115"/>
      <point x="301" y="1136"/>
      <point x="311" y="1160" type="curve" smooth="yes"/>
      <point x="320" y="1182"/>
      <point x="351" y="1215"/>
      <point x="369" y="1227" type="curve" smooth="yes"/>
      <point x="377" y="1233"/>
      <point x="387" y="1236"/>
      <point x="397" y="1236" type="curve" smooth="yes"/>
      <point x="486" y="1236"/>
      <point x="789" y="1054"/>
      <point x="894" y="1054" type="curve" smooth="yes"/>
      <point x="1056" y="1054"/>
      <point x="1231" y="1186"/>
      <point x="1231" y="1374" type="curve" smooth="yes"/>
      <point x="1231" y="1468"/>
      <point x="1215" y="1519"/>
      <point x="1158" y="1602" type="curve" smooth="yes"/>
      <point x="1098" y="1689"/>
      <point x="1026" y="1743"/>
      <point x="930" y="1743" type="curve" smooth="yes"/>
      <point x="843" y="1743"/>
      <point x="813" y="1704"/>
      <point x="813" y="1658" type="curve" smooth="yes"/>
      <point x="813" y="1594"/>
      <point x="887" y="1550"/>
      <point x="951" y="1531" type="curve" smooth="yes"/>
      <point x="1092" y="1489"/>
      <point x="1111" y="1425"/>
      <point x="1111" y="1374" type="curve" smooth="yes"/>
      <point x="1111" y="1305"/>
      <point x="1040" y="1250"/>
      <point x="938" y="1250" type="curve" smooth="yes"/>
      <point x="859" y="1250"/>
      <point x="537" y="1440"/>
      <point x="443" y="1440" type="curve" smooth="yes"/>
      <point x="359" y="1440"/>
      <point x="166" y="1185"/>
      <point x="141" y="1081" type="curve" smooth="yes"/>
      <point x="140" y="1076"/>
      <point x="140" y="1055"/>
      <point x="140" y="1049" type="curve" smooth="yes"/>
      <point x="140" y="980"/>
      <point x="223" y="953"/>
      <point x="295" y="931" type="curve"/>
      <point x="295" y="68" type="line" smooth="yes"/>
      <point x="295" y="33"/>
      <point x="338" y="0"/>
      <point x="382" y="0" type="curve" smooth="yes"/>
      <point x="463" y="0" type="line" smooth="yes"/>
      <point x="516" y="0"/>
      <point x="581" y="46"/>
      <point x="613" y="72" type="curve" smooth="yes"/>
      <point x="683" y="128"/>
      <point x="737" y="168"/>
      <point x="763" y="168" type="curve" smooth="yes"/>
      <point x="789" y="168"/>
      <point x="843" y="128"/>
      <point x="913" y="72" type="curve" smooth="yes"/>
      <point x="945" y="46"/>
      <point x="1010" y="0"/>
      <point x="1063" y="0" type="curve" smooth="yes"/>
      <point x="1144" y="0" type="line" smooth="yes"/>
      <point x="1186" y="0"/>
      <point x="1231" y="33"/>
    </contour>
    <contour>
      <point x="1518" y="1856" type="curve" smooth="yes"/>
      <point x="1555" y="1856"/>
      <point x="1586" y="1880"/>
      <point x="1605" y="1904" type="curve" smooth="yes"/>
      <point x="1629" y="1933"/>
      <point x="1658" y="1958"/>
      <point x="1689" y="1958" type="curve" smooth="yes"/>
      <point x="1758" y="1958"/>
      <point x="1931" y="1856"/>
      <point x="2016" y="1856" type="curve" smooth="yes"/>
      <point x="2097" y="1856"/>
      <point x="2126" y="1961"/>
      <point x="2157" y="2047" type="curve"/>
      <point x="2134" y="2037"/>
      <point x="2110" y="2035"/>
      <point x="2087" y="2035" type="curve" smooth="yes"/>
      <point x="2022" y="2035"/>
      <point x="1799" y="2162"/>
      <point x="1727" y="2162" type="curve" smooth="yes"/>
      <point x="1703" y="2162"/>
      <point x="1674" y="2145"/>
      <point x="1644" y="2119" type="curve" smooth="yes"/>
      <point x="1616" y="2094"/>
      <point x="1593" y="2073"/>
      <point x="1565" y="2040" type="curve"/>
      <point x="1486" y="2065"/>
      <point x="1301" y="2162"/>
      <point x="1237" y="2162" type="curve" smooth="yes"/>
      <point x="1153" y="2162"/>
      <point x="968" y="1946"/>
      <point x="937" y="1874" type="curve" smooth="yes"/>
      <point x="934" y="1867"/>
      <point x="934" y="1859"/>
      <point x="934" y="1853" type="curve" smooth="yes"/>
      <point x="934" y="1822"/>
      <point x="982" y="1784"/>
      <point x="1055" y="1762" type="curve"/>
      <point x="1216" y="1806" type="line"/>
      <point x="1133" y="1822"/>
      <point x="1094" y="1859"/>
      <point x="1094" y="1886" type="curve" smooth="yes"/>
      <point x="1094" y="1902"/>
      <point x="1119" y="1933"/>
      <point x="1148" y="1949" type="curve" smooth="yes"/>
      <point x="1157" y="1954"/>
      <point x="1166" y="1958"/>
      <point x="1176" y="1958" type="curve" smooth="yes"/>
      <point x="1245" y="1958"/>
      <point x="1433" y="1856"/>
    </contour>
    <contour>
      <point x="1256" y="2384" type="curve" smooth="yes"/>
      <point x="1256" y="2258"/>
      <point x="1366" y="2157"/>
      <point x="1502" y="2157" type="curve" smooth="yes"/>
      <point x="1638" y="2157"/>
      <point x="1748" y="2258"/>
      <point x="1748" y="2384" type="curve" smooth="yes"/>
      <point x="1748" y="2509"/>
      <point x="1638" y="2610"/>
      <point x="1502" y="2610" type="curve" smooth="yes"/>
      <point x="1366" y="2610"/>
      <point x="1256" y="2509"/>
    </contour>
    <contour>
      <point x="1423" y="2384" type="curve" smooth="yes"/>
      <point x="1423" y="2424"/>
      <point x="1459" y="2457"/>
      <point x="1502" y="2457" type="curve" smooth="yes"/>
      <point x="1545" y="2457"/>
      <point x="1581" y="2424"/>
      <point x="1581" y="2384" type="curve" smooth="yes"/>
      <point x="1581" y="2343"/>
      <point x="1545" y="2310"/>
      <point x="1502" y="2310" type="curve" smooth="yes"/>
      <point x="1459" y="2310"/>
      <point x="1423" y="2343"/>
    </contour>
    <contour>
      <point x="938" y="640" type="curve" smooth="yes"/>
      <point x="938" y="701"/>
      <point x="992" y="741"/>
      <point x="1043" y="763" type="curve"/>
      <point x="1043" y="532" type="line"/>
      <point x="977" y="551"/>
      <point x="938" y="587"/>
    </contour>
    <contour>
      <point x="1771" y="850" type="line"/>
      <point x="1771" y="340" type="line"/>
      <point x="1722" y="370"/>
      <point x="1682" y="399"/>
      <point x="1652" y="399" type="curve" smooth="yes"/>
      <point x="1612" y="399"/>
      <point x="1586" y="373"/>
      <point x="1586" y="337" type="curve" smooth="yes"/>
      <point x="1586" y="272"/>
      <point x="1672" y="214"/>
      <point x="1771" y="176" type="curve"/>
      <point x="1771" y="-396" type="line" smooth="yes"/>
      <point x="1771" y="-452"/>
      <point x="1630" y="-486"/>
      <point x="1508" y="-486" type="curve" smooth="yes"/>
      <point x="1384" y="-486"/>
      <point x="1231" y="-452"/>
      <point x="1231" y="-396" type="curve" smooth="yes"/>
      <point x="1231" y="-229" type="line"/>
      <point x="1220" y="-167"/>
      <point x="1143" y="-150"/>
      <point x="1076" y="-150" type="curve"/>
      <point x="993" y="-167"/>
      <point x="910" y="-188"/>
      <point x="910" y="-265" type="curve" smooth="yes"/>
      <point x="910" y="-307"/>
      <point x="950" y="-372"/>
      <point x="1043" y="-375" type="curve"/>
      <point x="1043" y="-410" type="line" smooth="yes"/>
      <point x="1043" y="-512"/>
      <point x="1270" y="-598"/>
      <point x="1510" y="-598" type="curve" smooth="yes"/>
      <point x="1752" y="-598"/>
      <point x="1959" y="-512"/>
      <point x="1959" y="-410" type="curve" smooth="yes"/>
      <point x="1959" y="132" type="line"/>
      <point x="1968" y="131"/>
      <point x="1976" y="131"/>
      <point x="1984" y="131" type="curve" smooth="yes"/>
      <point x="2065" y="131"/>
      <point x="2142" y="187"/>
      <point x="2170" y="224" type="curve"/>
      <point x="2160" y="223"/>
      <point x="2148" y="222"/>
      <point x="2136" y="222" type="curve" smooth="yes"/>
      <point x="2084" y="222"/>
      <point x="2018" y="234"/>
      <point x="1959" y="252" type="curve"/>
      <point x="1959" y="850" type="line"/>
    </contour>
    <contour>
      <point x="1004" y="-269" type="curve" smooth="yes"/>
      <point x="1004" y="-251"/>
      <point x="1021" y="-243"/>
      <point x="1043" y="-237" type="curve"/>
      <point x="1043" y="-297" type="line"/>
      <point x="1016" y="-294"/>
      <point x="1004" y="-282"/>
    </contour>
    <contour>
      <point x="1959" y="773" type="line"/>
      <point x="1959" y="950" type="line" smooth="yes"/>
      <point x="1959" y="1015"/>
      <point x="1820" y="1114"/>
      <point x="1700" y="1154" type="curve" smooth="yes"/>
      <point x="1698" y="1155"/>
      <point x="1696" y="1156"/>
      <point x="1696" y="1158" type="curve"/>
      <point x="1696" y="1159"/>
      <point x="1696" y="1159"/>
      <point x="1697" y="1160" type="curve"/>
      <point x="1756" y="1209"/>
      <point x="1977" y="1236"/>
      <point x="2073" y="1236" type="curve" smooth="yes"/>
      <point x="2142" y="1236"/>
      <point x="2389" y="1121"/>
      <point x="2460" y="1075" type="curve" smooth="yes"/>
      <point x="2477" y="1064"/>
      <point x="2499" y="1045"/>
      <point x="2499" y="1020" type="curve" smooth="yes"/>
      <point x="2499" y="0" type="line"/>
      <point x="2687" y="0" type="line"/>
      <point x="2687" y="1083" type="line" smooth="yes"/>
      <point x="2687" y="1144"/>
      <point x="2655" y="1189"/>
      <point x="2590" y="1232" type="curve" smooth="yes"/>
      <point x="2532" y="1270"/>
      <point x="2201" y="1440"/>
      <point x="2129" y="1440" type="curve" smooth="yes"/>
      <point x="2020" y="1440"/>
      <point x="1827" y="1397"/>
      <point x="1735" y="1302" type="curve" smooth="yes"/>
      <point x="1666" y="1231"/>
      <point x="1617" y="1165"/>
      <point x="1597" y="1081" type="curve"/>
      <point x="1597" y="1079" type="line"/>
      <point x="1597" y="1075"/>
      <point x="1599" y="1070"/>
      <point x="1604" y="1069" type="curve" smooth="yes"/>
      <point x="1709" y="1057"/>
      <point x="1771" y="983"/>
      <point x="1771" y="939" type="curve" smooth="yes"/>
      <point x="1771" y="784" type="line"/>
    </contour>
  </outline>
</glyph>
<glyph name="uni17CA.narrow" format="2">
  <guideline x="-778"/>
  <anchor x="0" y="80" name="A0"/>
  <anchor x="-700" y="0" name="_H"/>
  <anchor x="20" y="1000" name="_UR"/>
  <anchor x="0" y="0" name="_def"/>
  <outline>
    <contour>
      <point x="-453" y="1594" type="curve" smooth="yes"/>
      <point x="-380" y="1594"/>
      <point x="-345" y="1702"/>
      <point x="-304" y="1702" type="curve" smooth="yes"/>
      <point x="-255" y="1702"/>
      <point x="-210" y="1594"/>
      <point x="-115" y="1594" type="curve" smooth="yes"/>
      <point x="-64" y="1594"/>
      <point x="-9" y="1668"/>
      <point x="0" y="1739" type="curve"/>
      <point x="-22" y="1730"/>
      <point x="-31" y="1729"/>
      <point x="-44" y="1729" type="curve" smooth="yes"/>
      <point x="-105" y="1729"/>
      <point x="-178" y="1859"/>
      <point x="-230" y="1859" type="curve" smooth="yes"/>
      <point x="-305" y="1859"/>
      <point x="-372" y="1733"/>
      <point x="-396" y="1733" type="curve" smooth="yes"/>
      <point x="-454" y="1733"/>
      <point x="-510" y="1859"/>
      <point x="-564" y="1859" type="curve" smooth="yes"/>
      <point x="-657" y="1859"/>
      <point x="-779" y="1691"/>
      <point x="-779" y="1615" type="curve" smooth="yes"/>
      <point x="-779" y="1593"/>
      <point x="-769" y="1580"/>
      <point x="-750" y="1566" type="curve"/>
      <point x="-685" y="1580"/>
      <point x="-664" y="1591"/>
      <point x="-624" y="1606" type="curve"/>
      <point x="-655" y="1625"/>
      <point x="-670" y="1648"/>
      <point x="-670" y="1667" type="curve" smooth="yes"/>
      <point x="-670" y="1687"/>
      <point x="-662" y="1702"/>
      <point x="-638" y="1702" type="curve" smooth="yes"/>
      <point x="-591" y="1702"/>
      <point x="-538" y="1594"/>
    </contour>
  </outline>
</glyph>
<glyph name="uni17D2178317B6.low" format="2">
  <advance width="1456"/>
  <anchor x="483" y="-1225" name="L1"/>
  <anchor x="1211" y="0" name="L2"/>
  <anchor x="1211" y="1440" name="U2"/>
  <anchor x="753" y="1440" name="um"/>
  <outline>
    <contour>
      <point x="-760" y="-908" type="curve" smooth="yes"/>
      <point x="-760" y="-891"/>
      <point x="-746" y="-883"/>
      <point x="-724" y="-876" type="curve"/>
      <point x="-724" y="-936" type="line"/>
      <point x="-750" y="-933"/>
      <point x="-760" y="-921"/>
    </contour>
    <contour>
      <point x="295" y="902" type="line"/>
      <point x="295" y="-1030" type="line" smooth="yes"/>
      <point x="295" y="-1078"/>
      <point x="224" y="-1113"/>
      <point x="123" y="-1113" type="curve" smooth="yes"/>
      <point x="21" y="-1113"/>
      <point x="-49" y="-1072"/>
      <point x="-49" y="-1037" type="curve" smooth="yes"/>
      <point x="-49" y="-1000"/>
      <point x="-159" y="-976"/>
      <point x="-247" y="-954" type="curve"/>
      <point x="-248" y="-954"/>
      <point x="-249" y="-953"/>
      <point x="-249" y="-951" type="curve"/>
      <point x="-249" y="-949" type="line"/>
      <point x="-245" y="-937"/>
      <point x="-240" y="-927"/>
      <point x="-226" y="-919" type="curve" smooth="yes"/>
      <point x="-220" y="-916"/>
      <point x="-212" y="-915"/>
      <point x="-206" y="-915" type="curve" smooth="yes"/>
      <point x="-155" y="-915"/>
      <point x="-131" y="-956"/>
      <point x="-69" y="-956" type="curve" smooth="yes"/>
      <point x="-2" y="-956"/>
      <point x="11" y="-893"/>
      <point x="35" y="-844" type="curve"/>
      <point x="18" y="-849"/>
      <point x="0" y="-849"/>
      <point x="-16" y="-849" type="curve" smooth="yes"/>
      <point x="-57" y="-849"/>
      <point x="-119" y="-790"/>
      <point x="-172" y="-790" type="curve" smooth="yes"/>
      <point x="-233" y="-790"/>
      <point x="-309" y="-936"/>
      <point x="-327" y="-995" type="curve"/>
      <point x="-327" y="-996" type="line"/>
      <point x="-327" y="-998"/>
      <point x="-325" y="-1001"/>
      <point x="-321" y="-1001" type="curve"/>
      <point x="-245" y="-1008"/>
      <point x="-222" y="-1027"/>
      <point x="-222" y="-1051" type="curve" smooth="yes"/>
      <point x="-222" y="-1087"/>
      <point x="-316" y="-1113"/>
      <point x="-389" y="-1113" type="curve" smooth="yes"/>
      <point x="-476" y="-1113"/>
      <point x="-561" y="-1085"/>
      <point x="-561" y="-1030" type="curve" smooth="yes"/>
      <point x="-561" y="-869" type="line"/>
      <point x="-573" y="-808"/>
      <point x="-646" y="-790"/>
      <point x="-714" y="-790" type="curve"/>
      <point x="-796" y="-808"/>
      <point x="-860" y="-830"/>
      <point x="-860" y="-906" type="curve" smooth="yes"/>
      <point x="-860" y="-947"/>
      <point x="-821" y="-1012"/>
      <point x="-729" y="-1015" type="curve"/>
      <point x="-729" y="-1038" type="line" smooth="yes"/>
      <point x="-729" y="-1138"/>
      <point x="-585" y="-1225"/>
      <point x="-389" y="-1225" type="curve" smooth="yes"/>
      <point x="-280" y="-1225"/>
      <point x="-193" y="-1199"/>
      <point x="-133" y="-1153" type="curve"/>
      <point x="-50" y="-1199"/>
      <point x="10" y="-1225"/>
      <point x="123" y="-1225" type="curve" smooth="yes"/>
      <point x="319" y="-1225"/>
      <point x="483" y="-1138"/>
      <point x="483" y="-1038" type="curve" smooth="yes"/>
      <point x="483" y="895" type="line"/>
    </contour>
    <contour>
      <point x="483" y="773" type="line"/>
      <point x="483" y="950" type="line" smooth="yes"/>
      <point x="483" y="1015"/>
      <point x="344" y="1114"/>
      <point x="224" y="1154" type="curve" smooth="yes"/>
      <point x="222" y="1155"/>
      <point x="220" y="1156"/>
      <point x="220" y="1158" type="curve"/>
      <point x="220" y="1159"/>
      <point x="220" y="1159"/>
      <point x="221" y="1160" type="curve"/>
      <point x="280" y="1209"/>
      <point x="501" y="1236"/>
      <point x="597" y="1236" type="curve" smooth="yes"/>
      <point x="666" y="1236"/>
      <point x="913" y="1121"/>
      <point x="984" y="1075" type="curve" smooth="yes"/>
      <point x="1001" y="1064"/>
      <point x="1023" y="1045"/>
      <point x="1023" y="1020" type="curve" smooth="yes"/>
      <point x="1023" y="0" type="line"/>
      <point x="1211" y="0" type="line"/>
      <point x="1211" y="1083" type="line" smooth="yes"/>
      <point x="1211" y="1144"/>
      <point x="1179" y="1189"/>
      <point x="1114" y="1232" type="curve" smooth="yes"/>
      <point x="1056" y="1270"/>
      <point x="725" y="1440"/>
      <point x="653" y="1440" type="curve" smooth="yes"/>
      <point x="544" y="1440"/>
      <point x="351" y="1397"/>
      <point x="259" y="1302" type="curve" smooth="yes"/>
      <point x="190" y="1231"/>
      <point x="141" y="1165"/>
      <point x="121" y="1081" type="curve"/>
      <point x="121" y="1079" type="line"/>
      <point x="121" y="1075"/>
      <point x="123" y="1070"/>
      <point x="128" y="1069" type="curve" smooth="yes"/>
      <point x="233" y="1057"/>
      <point x="295" y="983"/>
      <point x="295" y="939" type="curve" smooth="yes"/>
      <point x="295" y="784" type="line"/>
    </contour>
  </outline>
</glyph>
<glyph name="uni17D21788" format="2">
  <advance width="728"/>
  <guideline x="-1181"/>
  <anchor x="483" y="-710" name="L"/>
  <anchor x="483" y="1440" name="U"/>
  <anchor x="389" y="1440" name="um"/>
  <outline>
    <contour>
      <point x="295" y="906" type="line"/>
      <point x="295" y="-515" type="line" smooth="yes"/>
      <point x="295" y="-564"/>
      <point x="220" y="-598"/>
      <point x="121" y="-598" type="curve" smooth="yes"/>
      <point x="23" y="-598"/>
      <point x="-49" y="-564"/>
      <point x="-49" y="-515" type="curve" smooth="yes"/>
      <point x="-49" y="-476" type="line"/>
      <point x="-217" y="-479" type="line"/>
      <point x="-217" y="-515" type="line" smooth="yes"/>
      <point x="-217" y="-564"/>
      <point x="-281" y="-598"/>
      <point x="-345" y="-598" type="curve" smooth="yes"/>
      <point x="-409" y="-598"/>
      <point x="-473" y="-564"/>
      <point x="-473" y="-515" type="curve" smooth="yes"/>
      <point x="-473" y="-337" type="line" smooth="yes"/>
      <point x="-473" y="-237"/>
      <point x="-573" y="-150"/>
      <point x="-769" y="-150" type="curve" smooth="yes"/>
      <point x="-965" y="-150"/>
      <point x="-1065" y="-237"/>
      <point x="-1065" y="-337" type="curve" smooth="yes"/>
      <point x="-1065" y="-631" type="line"/>
      <point x="-1054" y="-691"/>
      <point x="-979" y="-710"/>
      <point x="-912" y="-710" type="curve"/>
      <point x="-829" y="-691"/>
      <point x="-765" y="-670"/>
      <point x="-765" y="-594" type="curve" smooth="yes"/>
      <point x="-765" y="-553"/>
      <point x="-804" y="-488"/>
      <point x="-897" y="-485" type="curve"/>
      <point x="-897" y="-343" type="line" smooth="yes"/>
      <point x="-897" y="-294"/>
      <point x="-833" y="-262"/>
      <point x="-769" y="-262" type="curve" smooth="yes"/>
      <point x="-705" y="-262"/>
      <point x="-641" y="-294"/>
      <point x="-641" y="-343" type="curve" smooth="yes"/>
      <point x="-641" y="-523" type="line" smooth="yes"/>
      <point x="-641" y="-623"/>
      <point x="-547" y="-710"/>
      <point x="-345" y="-710" type="curve" smooth="yes"/>
      <point x="-248" y="-710"/>
      <point x="-177" y="-689"/>
      <point x="-133" y="-651" type="curve"/>
      <point x="-56" y="-688"/>
      <point x="10" y="-710"/>
      <point x="123" y="-710" type="curve" smooth="yes"/>
      <point x="320" y="-710"/>
      <point x="483" y="-622"/>
      <point x="483" y="-523" type="curve" smooth="yes"/>
      <point x="483" y="913" type="line"/>
    </contour>
    <contour>
      <point x="-859" y="-591" type="curve" smooth="yes"/>
      <point x="-859" y="-609"/>
      <point x="-874" y="-619"/>
      <point x="-897" y="-625" type="curve"/>
      <point x="-897" y="-563" type="line"/>
      <point x="-870" y="-566"/>
      <point x="-859" y="-578"/>
    </contour>
    <contour>
      <point x="483" y="688" type="line"/>
      <point x="483" y="950" type="line" smooth="yes"/>
      <point x="483" y="1015"/>
      <point x="344" y="1114"/>
      <point x="224" y="1154" type="curve" smooth="yes"/>
      <point x="222" y="1155"/>
      <point x="221" y="1156"/>
      <point x="221" y="1158" type="curve"/>
      <point x="221" y="1160" type="line"/>
      <point x="226" y="1183"/>
      <point x="241" y="1215"/>
      <point x="259" y="1227" type="curve" smooth="yes"/>
      <point x="267" y="1233"/>
      <point x="277" y="1236"/>
      <point x="287" y="1236" type="curve" smooth="yes"/>
      <point x="356" y="1236"/>
      <point x="389" y="1165"/>
      <point x="474" y="1165" type="curve" smooth="yes"/>
      <point x="565" y="1165"/>
      <point x="584" y="1260"/>
      <point x="615" y="1346" type="curve"/>
      <point x="592" y="1336"/>
      <point x="568" y="1334"/>
      <point x="545" y="1334" type="curve" smooth="yes"/>
      <point x="490" y="1334"/>
      <point x="405" y="1440"/>
      <point x="333" y="1440" type="curve" smooth="yes"/>
      <point x="249" y="1440"/>
      <point x="146" y="1185"/>
      <point x="121" y="1081" type="curve"/>
      <point x="121" y="1079" type="line"/>
      <point x="121" y="1075"/>
      <point x="123" y="1070"/>
      <point x="128" y="1069" type="curve" smooth="yes"/>
      <point x="233" y="1057"/>
      <point x="295" y="983"/>
      <point x="295" y="939" type="curve" smooth="yes"/>
      <point x="295" y="688" type="line"/>
    </contour>
    <contour>
      <point x="-49" y="-496" type="line"/>
      <point x="-49" y="-467" type="line" smooth="yes"/>
      <point x="-49" y="-425"/>
      <point x="-160" y="-360"/>
      <point x="-248" y="-335" type="curve"/>
      <point x="-249" y="-335"/>
      <point x="-250" y="-334"/>
      <point x="-250" y="-332" type="curve"/>
      <point x="-250" y="-330" type="line"/>
      <point x="-246" y="-316"/>
      <point x="-241" y="-305"/>
      <point x="-227" y="-296" type="curve" smooth="yes"/>
      <point x="-221" y="-293"/>
      <point x="-213" y="-291"/>
      <point x="-207" y="-291" type="curve" smooth="yes"/>
      <point x="-156" y="-291"/>
      <point x="-132" y="-338"/>
      <point x="-70" y="-338" type="curve" smooth="yes"/>
      <point x="-3" y="-338"/>
      <point x="10" y="-266"/>
      <point x="34" y="-211" type="curve"/>
      <point x="17" y="-217"/>
      <point x="-1" y="-217"/>
      <point x="-17" y="-217" type="curve" smooth="yes"/>
      <point x="-58" y="-217"/>
      <point x="-120" y="-150"/>
      <point x="-173" y="-150" type="curve" smooth="yes"/>
      <point x="-234" y="-150"/>
      <point x="-310" y="-315"/>
      <point x="-328" y="-382" type="curve"/>
      <point x="-328" y="-384" type="line"/>
      <point x="-328" y="-387"/>
      <point x="-326" y="-389"/>
      <point x="-322" y="-389" type="curve"/>
      <point x="-246" y="-397"/>
      <point x="-217" y="-446"/>
      <point x="-217" y="-473" type="curve" smooth="yes"/>
      <point x="-217" y="-489" type="line"/>
    </contour>
  </outline>
</glyph>
<glyph name="uni17D21788.low" format="2">
  <advance width="728"/>
  <anchor x="483" y="-1225" name="L"/>
  <anchor x="483" y="1440" name="U"/>
  <anchor x="389" y="1440" name="um"/>
  <outline>
    <contour>
      <point x="295" y="880" type="line"/>
      <point x="295" y="-1030" type="line" smooth="yes"/>
      <point x="295" y="-1079"/>
      <point x="220" y="-1113"/>
      <point x="121" y="-1113" type="curve" smooth="yes"/>
      <point x="13" y="-1113"/>
      <point x="-49" y="-1072"/>
      <point x="-49" y="-1038" type="curve"/>
      <point x="-222" y="-1052" type="line"/>
      <point x="-222" y="-1068"/>
      <point x="-268" y="-1113"/>
      <point x="-345" y="-1113" type="curve" smooth="yes"/>
      <point x="-409" y="-1113"/>
      <point x="-473" y="-1079"/>
      <point x="-473" y="-1030" type="curve" smooth="yes"/>
      <point x="-473" y="-977" type="line" smooth="yes"/>
      <point x="-473" y="-877"/>
      <point x="-573" y="-790"/>
      <point x="-769" y="-790" type="curve" smooth="yes"/>
      <point x="-965" y="-790"/>
      <point x="-1065" y="-877"/>
      <point x="-1065" y="-977" type="curve" smooth="yes"/>
      <point x="-1065" y="-1146" type="line"/>
      <point x="-1054" y="-1206"/>
      <point x="-979" y="-1225"/>
      <point x="-912" y="-1225" type="curve"/>
      <point x="-829" y="-1206"/>
      <point x="-765" y="-1184"/>
      <point x="-765" y="-1108" type="curve" smooth="yes"/>
      <point x="-765" y="-1067"/>
      <point x="-804" y="-1003"/>
      <point x="-897" y="-1000" type="curve"/>
      <point x="-897" y="-983" type="line" smooth="yes"/>
      <point x="-897" y="-934"/>
      <point x="-833" y="-902"/>
      <point x="-769" y="-902" type="curve" smooth="yes"/>
      <point x="-705" y="-902"/>
      <point x="-641" y="-934"/>
      <point x="-641" y="-983" type="curve" smooth="yes"/>
      <point x="-641" y="-1038" type="line" smooth="yes"/>
      <point x="-641" y="-1138"/>
      <point x="-547" y="-1225"/>
      <point x="-345" y="-1225" type="curve" smooth="yes"/>
      <point x="-248" y="-1225"/>
      <point x="-177" y="-1204"/>
      <point x="-133" y="-1166" type="curve"/>
      <point x="-56" y="-1203"/>
      <point x="10" y="-1225"/>
      <point x="123" y="-1225" type="curve" smooth="yes"/>
      <point x="320" y="-1225"/>
      <point x="483" y="-1136"/>
      <point x="483" y="-1038" type="curve" smooth="yes"/>
      <point x="483" y="910" type="line"/>
    </contour>
    <contour>
      <point x="-859" y="-1105" type="curve" smooth="yes"/>
      <point x="-859" y="-1123"/>
      <point x="-874" y="-1133"/>
      <point x="-897" y="-1140" type="curve"/>
      <point x="-897" y="-1078" type="line"/>
      <point x="-870" y="-1081"/>
      <point x="-859" y="-1093"/>
    </contour>
    <contour>
      <point x="483" y="688" type="line"/>
      <point x="483" y="950" type="line" smooth="yes"/>
      <point x="483" y="1015"/>
      <point x="344" y="1114"/>
      <point x="224" y="1154" type="curve" smooth="yes"/>
      <point x="222" y="1155"/>
      <point x="221" y="1156"/>
      <point x="221" y="1158" type="curve"/>
      <point x="221" y="1160" type="line"/>
      <point x="226" y="1183"/>
      <point x="241" y="1215"/>
      <point x="259" y="1227" type="curve" smooth="yes"/>
      <point x="267" y="1233"/>
      <point x="277" y="1236"/>
      <point x="287" y="1236" type="curve" smooth="yes"/>
      <point x="356" y="1236"/>
      <point x="389" y="1165"/>
      <point x="474" y="1165" type="curve" smooth="yes"/>
      <point x="565" y="1165"/>
      <point x="584" y="1260"/>
      <point x="615" y="1346" type="curve"/>
      <point x="592" y="1336"/>
      <point x="568" y="1334"/>
      <point x="545" y="1334" type="curve" smooth="yes"/>
      <point x="490" y="1334"/>
      <point x="405" y="1440"/>
      <point x="333" y="1440" type="curve" smooth="yes"/>
      <point x="249" y="1440"/>
      <point x="146" y="1185"/>
      <point x="121" y="1081" type="curve"/>
      <point x="121" y="1079" type="line"/>
      <point x="121" y="1075"/>
      <point x="123" y="1070"/>
      <point x="128" y="1069" type="curve" smooth="yes"/>
      <point x="233" y="1057"/>
      <point x="295" y="983"/>
      <point x="295" y="939" type="curve" smooth="yes"/>
      <point x="295" y="688" type="line"/>
    </contour>
    <contour>
      <point x="-49" y="-1058" type="line"/>
      <point x="-49" y="-1037" type="line" smooth="yes"/>
      <point x="-49" y="-1000"/>
      <point x="-159" y="-976"/>
      <point x="-247" y="-954" type="curve"/>
      <point x="-248" y="-954"/>
      <point x="-249" y="-953"/>
      <point x="-249" y="-951" type="curve"/>
      <point x="-249" y="-949" type="line"/>
      <point x="-245" y="-937"/>
      <point x="-240" y="-927"/>
      <point x="-226" y="-919" type="curve" smooth="yes"/>
      <point x="-220" y="-916"/>
      <point x="-212" y="-915"/>
      <point x="-206" y="-915" type="curve" smooth="yes"/>
      <point x="-155" y="-915"/>
      <point x="-131" y="-956"/>
      <point x="-69" y="-956" type="curve" smooth="yes"/>
      <point x="-2" y="-956"/>
      <point x="11" y="-893"/>
      <point x="35" y="-844" type="curve"/>
      <point x="18" y="-849"/>
      <point x="0" y="-849"/>
      <point x="-16" y="-849" type="curve" smooth="yes"/>
      <point x="-57" y="-849"/>
      <point x="-119" y="-790"/>
      <point x="-172" y="-790" type="curve" smooth="yes"/>
      <point x="-233" y="-790"/>
      <point x="-309" y="-936"/>
      <point x="-327" y="-995" type="curve"/>
      <point x="-327" y="-996" type="line"/>
      <point x="-327" y="-998"/>
      <point x="-325" y="-1001"/>
      <point x="-321" y="-1001" type="curve"/>
      <point x="-245" y="-1008"/>
      <point x="-222" y="-1027"/>
      <point x="-222" y="-1051" type="curve" smooth="yes"/>
      <point x="-222" y="-1063" type="line"/>
    </contour>
  </outline>
</glyph>
<glyph name="uni17D2178817B6.low" format="2">
  <advance width="1456"/>
  <anchor x="483" y="-1225" name="L1"/>
  <anchor x="1211" y="0" name="L2"/>
  <anchor x="1211" y="1440" name="U2"/>
  <anchor x="753" y="1440" name="um"/>
  <outline>
    <contour>
      <point x="-859" y="-1105" type="curve" smooth="yes"/>
      <point x="-859" y="-1123"/>
      <point x="-874" y="-1133"/>
      <point x="-897" y="-1140" type="curve"/>
      <point x="-897" y="-1078" type="line"/>
      <point x="-870" y="-1081"/>
      <point x="-859" y="-1093"/>
    </contour>
    <contour>
      <point x="295" y="880" type="line"/>
      <point x="295" y="-1030" type="line" smooth="yes"/>
      <point x="295" y="-1079"/>
      <point x="220" y="-1113"/>
      <point x="121" y="-1113" type="curve" smooth="yes"/>
      <point x="13" y="-1113"/>
      <point x="-49" y="-1072"/>
      <point x="-49" y="-1038" type="curve"/>
      <point x="-222" y="-1052" type="line"/>
      <point x="-222" y="-1068"/>
      <point x="-268" y="-1113"/>
      <point x="-345" y="-1113" type="curve" smooth="yes"/>
      <point x="-409" y="-1113"/>
      <point x="-473" y="-1079"/>
      <point x="-473" y="-1030" type="curve" smooth="yes"/>
      <point x="-473" y="-977" type="line" smooth="yes"/>
      <point x="-473" y="-877"/>
      <point x="-573" y="-790"/>
      <point x="-769" y="-790" type="curve" smooth="yes"/>
      <point x="-965" y="-790"/>
      <point x="-1065" y="-877"/>
      <point x="-1065" y="-977" type="curve" smooth="yes"/>
      <point x="-1065" y="-1146" type="line"/>
      <point x="-1054" y="-1206"/>
      <point x="-979" y="-1225"/>
      <point x="-912" y="-1225" type="curve"/>
      <point x="-829" y="-1206"/>
      <point x="-765" y="-1184"/>
      <point x="-765" y="-1108" type="curve" smooth="yes"/>
      <point x="-765" y="-1067"/>
      <point x="-804" y="-1003"/>
      <point x="-897" y="-1000" type="curve"/>
      <point x="-897" y="-983" type="line" smooth="yes"/>
      <point x="-897" y="-934"/>
      <point x="-833" y="-902"/>
      <point x="-769" y="-902" type="curve" smooth="yes"/>
      <point x="-705" y="-902"/>
      <point x="-641" y="-934"/>
      <point x="-641" y="-983" type="curve" smooth="yes"/>
      <point x="-641" y="-1038" type="line" smooth="yes"/>
      <point x="-641" y="-1138"/>
      <point x="-547" y="-1225"/>
      <point x="-345" y="-1225" type="curve" smooth="yes"/>
      <point x="-248" y="-1225"/>
      <point x="-177" y="-1204"/>
      <point x="-133" y="-1166" type="curve"/>
      <point x="-56" y="-1203"/>
      <point x="10" y="-1225"/>
      <point x="123" y="-1225" type="curve" smooth="yes"/>
      <point x="320" y="-1225"/>
      <point x="483" y="-1136"/>
      <point x="483" y="-1038" type="curve" smooth="yes"/>
      <point x="483" y="910" type="line"/>
    </contour>
    <contour>
      <point x="-49" y="-1058" type="line"/>
      <point x="-49" y="-1037" type="line" smooth="yes"/>
      <point x="-49" y="-1000"/>
      <point x="-159" y="-976"/>
      <point x="-247" y="-954" type="curve"/>
      <point x="-248" y="-954"/>
      <point x="-249" y="-953"/>
      <point x="-249" y="-951" type="curve"/>
      <point x="-249" y="-949" type="line"/>
      <point x="-245" y="-937"/>
      <point x="-240" y="-927"/>
      <point x="-226" y="-919" type="curve" smooth="yes"/>
      <point x="-220" y="-916"/>
      <point x="-212" y="-915"/>
      <point x="-206" y="-915" type="curve" smooth="yes"/>
      <point x="-155" y="-915"/>
      <point x="-131" y="-956"/>
      <point x="-69" y="-956" type="curve" smooth="yes"/>
      <point x="-2" y="-956"/>
      <point x="11" y="-893"/>
      <point x="35" y="-844" type="curve"/>
      <point x="18" y="-849"/>
      <point x="0" y="-849"/>
      <point x="-16" y="-849" type="curve" smooth="yes"/>
      <point x="-57" y="-849"/>
      <point x="-119" y="-790"/>
      <point x="-172" y="-790" type="curve" smooth="yes"/>
      <point x="-233" y="-790"/>
      <point x="-309" y="-936"/>
      <point x="-327" y="-995" type="curve"/>
      <point x="-327" y="-996" type="line"/>
      <point x="-327" y="-998"/>
      <point x="-325" y="-1001"/>
      <point x="-321" y="-1001" type="curve"/>
      <point x="-245" y="-1008"/>
      <point x="-222" y="-1027"/>
      <point x="-222" y="-1051" type="curve" smooth="yes"/>
      <point x="-222" y="-1063" type="line"/>
    </contour>
    <contour>
      <point x="483" y="773" type="line"/>
      <point x="483" y="950" type="line" smooth="yes"/>
      <point x="483" y="1015"/>
      <point x="344" y="1114"/>
      <point x="224" y="1154" type="curve" smooth="yes"/>
      <point x="222" y="1155"/>
      <point x="220" y="1156"/>
      <point x="220" y="1158" type="curve"/>
      <point x="220" y="1159"/>
      <point x="220" y="1159"/>
      <point x="221" y="1160" type="curve"/>
      <point x="280" y="1209"/>
      <point x="501" y="1236"/>
      <point x="597" y="1236" type="curve" smooth="yes"/>
      <point x="666" y="1236"/>
      <point x="913" y="1121"/>
      <point x="984" y="1075" type="curve" smooth="yes"/>
      <point x="1001" y="1064"/>
      <point x="1023" y="1045"/>
      <point x="1023" y="1020" type="curve" smooth="yes"/>
      <point x="1023" y="0" type="line"/>
      <point x="1211" y="0" type="line"/>
      <point x="1211" y="1083" type="line" smooth="yes"/>
      <point x="1211" y="1144"/>
      <point x="1179" y="1189"/>
      <point x="1114" y="1232" type="curve" smooth="yes"/>
      <point x="1056" y="1270"/>
      <point x="725" y="1440"/>
      <point x="653" y="1440" type="curve" smooth="yes"/>
      <point x="544" y="1440"/>
      <point x="351" y="1397"/>
      <point x="259" y="1302" type="curve" smooth="yes"/>
      <point x="190" y="1231"/>
      <point x="141" y="1165"/>
      <point x="121" y="1081" type="curve"/>
      <point x="121" y="1079" type="line"/>
      <point x="121" y="1075"/>
      <point x="123" y="1070"/>
      <point x="128" y="1069" type="curve" smooth="yes"/>
      <point x="233" y="1057"/>
      <point x="295" y="983"/>
      <point x="295" y="939" type="curve" smooth="yes"/>
      <point x="295" y="784" type="line"/>
    </contour>
  </outline>
</glyph>
<glyph name="uni17D2179917B6" format="2">
  <advance width="1456"/>
  <anchor x="483" y="-598" name="L1"/>
  <anchor x="1211" y="0" name="L2"/>
  <anchor x="1211" y="1440" name="U2"/>
  <anchor x="753" y="1440" name="um"/>
  <outline>
    <contour>
      <point x="295" y="883" type="line"/>
      <point x="295" y="-396" type="line" smooth="yes"/>
      <point x="295" y="-452"/>
      <point x="154" y="-486"/>
      <point x="34" y="-486" type="curve" smooth="yes"/>
      <point x="-86" y="-486"/>
      <point x="-245" y="-452"/>
      <point x="-245" y="-396" type="curve" smooth="yes"/>
      <point x="-245" y="-336" type="line"/>
      <point x="-188" y="-329"/>
      <point x="-153" y="-289"/>
      <point x="-153" y="-257" type="curve" smooth="yes"/>
      <point x="-153" y="-186"/>
      <point x="-189" y="-161"/>
      <point x="-261" y="-150" type="curve"/>
      <point x="-332" y="-150"/>
      <point x="-421" y="-167"/>
      <point x="-433" y="-229" type="curve"/>
      <point x="-433" y="-411" type="line" smooth="yes"/>
      <point x="-433" y="-513"/>
      <point x="-206" y="-598"/>
      <point x="34" y="-598" type="curve" smooth="yes"/>
      <point x="274" y="-598"/>
      <point x="483" y="-513"/>
      <point x="483" y="-411" type="curve" smooth="yes"/>
      <point x="483" y="911" type="line"/>
    </contour>
    <contour>
      <point x="483" y="773" type="line"/>
      <point x="483" y="950" type="line" smooth="yes"/>
      <point x="483" y="1015"/>
      <point x="344" y="1114"/>
      <point x="224" y="1154" type="curve" smooth="yes"/>
      <point x="222" y="1155"/>
      <point x="220" y="1156"/>
      <point x="220" y="1158" type="curve"/>
      <point x="220" y="1159"/>
      <point x="220" y="1159"/>
      <point x="221" y="1160" type="curve"/>
      <point x="280" y="1209"/>
      <point x="501" y="1236"/>
      <point x="597" y="1236" type="curve" smooth="yes"/>
      <point x="666" y="1236"/>
      <point x="913" y="1121"/>
      <point x="984" y="1075" type="curve" smooth="yes"/>
      <point x="1001" y="1064"/>
      <point x="1023" y="1045"/>
      <point x="1023" y="1020" type="curve" smooth="yes"/>
      <point x="1023" y="0" type="line"/>
      <point x="1211" y="0" type="line"/>
      <point x="1211" y="1083" type="line" smooth="yes"/>
      <point x="1211" y="1144"/>
      <point x="1179" y="1189"/>
      <point x="1114" y="1232" type="curve" smooth="yes"/>
      <point x="1056" y="1270"/>
      <point x="725" y="1440"/>
      <point x="653" y="1440" type="curve" smooth="yes"/>
      <point x="544" y="1440"/>
      <point x="351" y="1397"/>
      <point x="259" y="1302" type="curve" smooth="yes"/>
      <point x="190" y="1231"/>
      <point x="141" y="1165"/>
      <point x="121" y="1081" type="curve"/>
      <point x="121" y="1079" type="line"/>
      <point x="121" y="1075"/>
      <point x="123" y="1070"/>
      <point x="128" y="1069" type="curve" smooth="yes"/>
      <point x="233" y="1057"/>
      <point x="295" y="983"/>
      <point x="295" y="939" type="curve" smooth="yes"/>
      <point x="295" y="784" type="line"/>
    </contour>
  </outline>
</glyph>
<glyph name="uni17D217A0" format="2">
  <guideline x="-715" y="0" angle="90"/>
  <anchor x="-245" y="-710" name="L"/>
  <anchor x="-245" y="0" name="_L"/>
  <anchor x="-715" y="0" name="_lm"/>
  <anchor x="-715" y="-710" name="lm"/>
  <outline>
    <contour>
      <point x="-1181" y="-525" type="line" smooth="yes"/>
      <point x="-1181" y="-625"/>
      <point x="-1101" y="-710"/>
      <point x="-905" y="-710" type="curve" smooth="yes"/>
      <point x="-709" y="-710"/>
      <point x="-629" y="-625"/>
      <point x="-629" y="-525" type="curve" smooth="yes"/>
      <point x="-629" y="-353" type="line" smooth="yes"/>
      <point x="-629" y="-285"/>
      <point x="-585" y="-262"/>
      <point x="-521" y="-262" type="curve" smooth="yes"/>
      <point x="-457" y="-262"/>
      <point x="-413" y="-283"/>
      <point x="-413" y="-351" type="curve" smooth="yes"/>
      <point x="-413" y="-710" type="line"/>
      <point x="-245" y="-710" type="line"/>
      <point x="-245" y="-336" type="line" smooth="yes"/>
      <point x="-245" y="-236"/>
      <point x="-325" y="-150"/>
      <point x="-521" y="-150" type="curve" smooth="yes"/>
      <point x="-717" y="-150"/>
      <point x="-797" y="-236"/>
      <point x="-797" y="-336" type="curve" smooth="yes"/>
      <point x="-797" y="-510" type="line" smooth="yes"/>
      <point x="-797" y="-578"/>
      <point x="-841" y="-598"/>
      <point x="-905" y="-598" type="curve" smooth="yes"/>
      <point x="-969" y="-598"/>
      <point x="-1013" y="-578"/>
      <point x="-1013" y="-510" type="curve" smooth="yes"/>
      <point x="-1013" y="-446" type="line"/>
      <point x="-1181" y="-479" type="line"/>
    </contour>
    <contour>
      <point x="-1013" y="-496" type="line"/>
      <point x="-1013" y="-467" type="line" smooth="yes"/>
      <point x="-1013" y="-425"/>
      <point x="-1124" y="-360"/>
      <point x="-1212" y="-335" type="curve"/>
      <point x="-1213" y="-335"/>
      <point x="-1214" y="-334"/>
      <point x="-1214" y="-332" type="curve"/>
      <point x="-1214" y="-330" type="line"/>
      <point x="-1210" y="-316"/>
      <point x="-1205" y="-305"/>
      <point x="-1191" y="-296" type="curve" smooth="yes"/>
      <point x="-1185" y="-293"/>
      <point x="-1177" y="-291"/>
      <point x="-1171" y="-291" type="curve" smooth="yes"/>
      <point x="-1120" y="-291"/>
      <point x="-1096" y="-338"/>
      <point x="-1034" y="-338" type="curve" smooth="yes"/>
      <point x="-967" y="-338"/>
      <point x="-954" y="-266"/>
      <point x="-930" y="-211" type="curve"/>
      <point x="-947" y="-217"/>
      <point x="-965" y="-217"/>
      <point x="-981" y="-217" type="curve" smooth="yes"/>
      <point x="-1022" y="-217"/>
      <point x="-1084" y="-150"/>
      <point x="-1137" y="-150" type="curve" smooth="yes"/>
      <point x="-1198" y="-150"/>
      <point x="-1274" y="-315"/>
      <point x="-1292" y="-382" type="curve"/>
      <point x="-1292" y="-384" type="line"/>
      <point x="-1292" y="-387"/>
      <point x="-1290" y="-389"/>
      <point x="-1286" y="-389" type="curve"/>
      <point x="-1210" y="-397"/>
      <point x="-1181" y="-446"/>
      <point x="-1181" y="-473" type="curve" smooth="yes"/>
      <point x="-1181" y="-489" type="line"/>
    </contour>
  </outline>
</glyph>
<glyph name="uni17D217A0.low" format="2">
  <anchor x="-245" y="-1225" name="L"/>
  <anchor x="-245" y="-710" name="_L"/>
  <anchor x="-715" y="-710" name="_lm"/>
  <anchor x="-715" y="-1225" name="lm"/>
  <outline>
    <contour>
      <point x="-1181" y="-1051" type="line"/>
      <point x="-1180" y="-1094"/>
      <point x="-1151" y="-1225"/>
      <point x="-905" y="-1225" type="curve" smooth="yes"/>
      <point x="-709" y="-1225"/>
      <point x="-629" y="-1138"/>
      <point x="-629" y="-1037" type="curve" smooth="yes"/>
      <point x="-629" y="-993" type="line" smooth="yes"/>
      <point x="-629" y="-925"/>
      <point x="-585" y="-902"/>
      <point x="-521" y="-902" type="curve" smooth="yes"/>
      <point x="-457" y="-902"/>
      <point x="-413" y="-925"/>
      <point x="-413" y="-993" type="curve" smooth="yes"/>
      <point x="-413" y="-1225" type="line"/>
      <point x="-245" y="-1225" type="line"/>
      <point x="-245" y="-976" type="line" smooth="yes"/>
      <point x="-245" y="-876"/>
      <point x="-325" y="-790"/>
      <point x="-521" y="-790" type="curve" smooth="yes"/>
      <point x="-717" y="-790"/>
      <point x="-797" y="-876"/>
      <point x="-797" y="-976" type="curve" smooth="yes"/>
      <point x="-797" y="-1023" type="line" smooth="yes"/>
      <point x="-797" y="-1091"/>
      <point x="-841" y="-1113"/>
      <point x="-905" y="-1113" type="curve" smooth="yes"/>
      <point x="-969" y="-1113"/>
      <point x="-1013" y="-1088"/>
      <point x="-1013" y="-1037" type="curve"/>
    </contour>
    <contour>
      <point x="-1013" y="-1058" type="line"/>
      <point x="-1013" y="-1037" type="line" smooth="yes"/>
      <point x="-1013" y="-1000"/>
      <point x="-1118" y="-976"/>
      <point x="-1206" y="-954" type="curve"/>
      <point x="-1207" y="-954"/>
      <point x="-1208" y="-953"/>
      <point x="-1208" y="-951" type="curve"/>
      <point x="-1208" y="-949" type="line"/>
      <point x="-1204" y="-937"/>
      <point x="-1199" y="-927"/>
      <point x="-1185" y="-919" type="curve" smooth="yes"/>
      <point x="-1179" y="-916"/>
      <point x="-1171" y="-915"/>
      <point x="-1165" y="-915" type="curve" smooth="yes"/>
      <point x="-1114" y="-915"/>
      <point x="-1090" y="-956"/>
      <point x="-1028" y="-956" type="curve" smooth="yes"/>
      <point x="-961" y="-956"/>
      <point x="-948" y="-893"/>
      <point x="-924" y="-844" type="curve"/>
      <point x="-941" y="-849"/>
      <point x="-959" y="-849"/>
      <point x="-975" y="-849" type="curve" smooth="yes"/>
      <point x="-1016" y="-849"/>
      <point x="-1078" y="-790"/>
      <point x="-1131" y="-790" type="curve" smooth="yes"/>
      <point x="-1192" y="-790"/>
      <point x="-1268" y="-936"/>
      <point x="-1286" y="-995" type="curve"/>
      <point x="-1286" y="-996" type="line"/>
      <point x="-1286" y="-998"/>
      <point x="-1284" y="-1001"/>
      <point x="-1280" y="-1001" type="curve"/>
      <point x="-1204" y="-1008"/>
      <point x="-1181" y="-1027"/>
      <point x="-1181" y="-1051" type="curve"/>
    </contour>
  </outline>
</glyph>
<glyph name="uni17D217A5" format="2">
  <anchor x="0" y="-350" name="B2"/>
  <anchor x="0" y="680" name="_B1"/>
  <anchor x="0" y="690" name="_B2"/>
  <anchor x="0" y="0" name="_D2"/>
  <anchor x="-20" y="0" name="_L"/>
  <anchor x="-639" y="0" name="_N"/>
  <anchor x="-639" y="0" name="_NC"/>
  <anchor x="0" y="0" name="_NG"/>
  <outline>
    <component base="uni17D2178F.low" yOffset="200"/>
    <contour>
      <point x="-975" y="-656" type="curve"/>
      <point x="-948" y="-636"/>
      <point x="-895" y="-607"/>
      <point x="-848" y="-597" type="curve"/>
      <point x="-916" y="-581"/>
      <point x="-954" y="-550"/>
      <point x="-954" y="-521" type="curve" smooth="yes"/>
      <point x="-954" y="-482"/>
      <point x="-902" y="-414"/>
      <point x="-868" y="-414" type="curve" smooth="yes"/>
      <point x="-806" y="-414"/>
      <point x="-585" y="-548"/>
      <point x="-460" y="-548" type="curve" smooth="yes"/>
      <point x="-325" y="-548"/>
      <point x="-264" y="-457"/>
      <point x="-264" y="-357" type="curve" smooth="yes"/>
      <point x="-264" y="-238"/>
      <point x="-350" y="-107"/>
      <point x="-492" y="-107" type="curve" smooth="yes"/>
      <point x="-535" y="-107"/>
      <point x="-568" y="-129"/>
      <point x="-568" y="-173" type="curve" smooth="yes"/>
      <point x="-568" y="-279"/>
      <point x="-372" y="-245"/>
      <point x="-372" y="-351" type="curve" smooth="yes"/>
      <point x="-372" y="-396"/>
      <point x="-410" y="-413"/>
      <point x="-447" y="-413" type="curve" smooth="yes"/>
      <point x="-536" y="-413"/>
      <point x="-769" y="-272"/>
      <point x="-852" y="-272" type="curve" smooth="yes"/>
      <point x="-910" y="-272"/>
      <point x="-1072" y="-477"/>
      <point x="-1072" y="-560" type="curve" smooth="yes"/>
      <point x="-1072" y="-613"/>
      <point x="-1014" y="-634"/>
    </contour>
  </outline>
</glyph>
<glyph name="uni17D217A6" format="2">
  <anchor x="0" y="-500" name="B2"/>
  <anchor x="0" y="680" name="_B1"/>
  <anchor x="0" y="690" name="_B2"/>
  <anchor x="0" y="0" name="_D2"/>
  <anchor x="-20" y="0" name="_L"/>
  <anchor x="-940" y="0" name="_N"/>
  <anchor x="-1030" y="0" name="_NC"/>
  <anchor x="-240" y="0" name="_NG"/>
  <outline>
    <component base="uni17D2178A" xOffset="-393" yOffset="-100"/>
    <component base="_substemMed" xOffset="-536" yOffset="-523"/>
    <contour>
      <point x="-1045" y="-1166" type="line"/>
      <point x="-1045" y="-1044" type="line"/>
      <point x="-1233" y="-1074" type="line"/>
      <point x="-1233" y="-1137" type="line" smooth="yes"/>
      <point x="-1233" y="-1203"/>
      <point x="-1159" y="-1225"/>
      <point x="-1084" y="-1225" type="curve" smooth="yes"/>
      <point x="-1009" y="-1225"/>
      <point x="-933" y="-1182"/>
      <point x="-933" y="-1102" type="curve" smooth="yes"/>
      <point x="-933" y="-1035"/>
      <point x="-981" y="-994"/>
      <point x="-1066" y="-994" type="curve"/>
      <point x="-1071" y="-1066" type="line"/>
      <point x="-1031" y="-1066"/>
      <point x="-1009" y="-1076"/>
      <point x="-1009" y="-1102" type="curve" smooth="yes"/>
      <point x="-1009" y="-1124"/>
      <point x="-1030" y="-1145"/>
      <point x="-1067" y="-1145" type="curve"/>
    </contour>
    <contour>
      <point x="-638" y="-1057" type="curve" smooth="yes"/>
      <point x="-638" y="-1049"/>
      <point x="-638" y="-1042"/>
      <point x="-638" y="-1034" type="curve" smooth="yes"/>
      <point x="-638" y="-919"/>
      <point x="-767" y="-868"/>
      <point x="-937" y="-868" type="curve" smooth="yes"/>
      <point x="-1085" y="-868"/>
      <point x="-1233" y="-919"/>
      <point x="-1233" y="-1034" type="curve" smooth="yes"/>
      <point x="-1233" y="-1094" type="line"/>
      <point x="-1045" y="-1094" type="line"/>
      <point x="-1045" y="-1020" type="line" smooth="yes"/>
      <point x="-1045" y="-985"/>
      <point x="-990" y="-967"/>
      <point x="-935" y="-967" type="curve" smooth="yes"/>
      <point x="-881" y="-967"/>
      <point x="-826" y="-985"/>
      <point x="-826" y="-1020" type="curve" smooth="yes"/>
      <point x="-826" y="-1034"/>
      <point x="-826" y="-1039"/>
      <point x="-826" y="-1053" type="curve" smooth="yes"/>
      <point x="-826" y="-1178"/>
      <point x="-675" y="-1221"/>
      <point x="-544" y="-1221" type="curve" smooth="yes"/>
      <point x="-396" y="-1221"/>
      <point x="-248" y="-1178"/>
      <point x="-248" y="-1033" type="curve" smooth="yes"/>
      <point x="-248" y="-995" type="line"/>
      <point x="-436" y="-995" type="line"/>
      <point x="-436" y="-1057" type="line" smooth="yes"/>
      <point x="-436" y="-1098"/>
      <point x="-487" y="-1119"/>
      <point x="-538" y="-1119" type="curve" smooth="yes"/>
      <point x="-588" y="-1119"/>
      <point x="-638" y="-1099"/>
    </contour>
    <contour>
      <point x="-436" y="-835" type="line"/>
      <point x="-248" y="-835" type="line"/>
      <point x="-248" y="-642" type="line" smooth="yes"/>
      <point x="-248" y="-579"/>
      <point x="-458" y="-490"/>
      <point x="-507" y="-468" type="curve" smooth="yes"/>
      <point x="-509" y="-467"/>
      <point x="-510" y="-466"/>
      <point x="-510" y="-464" type="curve" smooth="yes"/>
      <point x="-510" y="-456"/>
      <point x="-501" y="-443"/>
      <point x="-485" y="-443" type="curve" smooth="yes"/>
      <point x="-414" y="-443"/>
      <point x="-350" y="-521"/>
      <point x="-282" y="-521" type="curve" smooth="yes"/>
      <point x="-204" y="-521"/>
      <point x="-104" y="-445"/>
      <point x="-104" y="-299" type="curve" smooth="yes"/>
      <point x="-104" y="-100"/>
      <point x="-309" y="-35"/>
      <point x="-415" y="-35" type="curve" smooth="yes"/>
      <point x="-460" y="-35"/>
      <point x="-538" y="-46"/>
      <point x="-538" y="-91" type="curve" smooth="yes"/>
      <point x="-538" y="-133"/>
      <point x="-514" y="-143"/>
      <point x="-343" y="-194" type="curve" smooth="yes"/>
      <point x="-253" y="-228"/>
      <point x="-186" y="-277"/>
      <point x="-186" y="-316" type="curve" smooth="yes"/>
      <point x="-186" y="-331"/>
      <point x="-192" y="-343"/>
      <point x="-210" y="-343" type="curve" smooth="yes"/>
      <point x="-245" y="-343"/>
      <point x="-327" y="-263"/>
      <point x="-406" y="-263" type="curve" smooth="yes"/>
      <point x="-519" y="-263"/>
      <point x="-610" y="-445"/>
      <point x="-610" y="-542" type="curve" smooth="yes"/>
      <point x="-610" y="-548"/>
      <point x="-608" y="-552"/>
      <point x="-603" y="-553" type="curve" smooth="yes"/>
      <point x="-492" y="-569"/>
      <point x="-436" y="-626"/>
      <point x="-436" y="-684" type="curve" smooth="yes"/>
    </contour>
  </outline>
</glyph>
<glyph name="uni17D217AA" format="2">
  <anchor x="0" y="-440" name="B2"/>
  <anchor x="0" y="680" name="_B1"/>
  <anchor x="0" y="690" name="_B2"/>
  <anchor x="0" y="0" name="_D2"/>
  <anchor x="-20" y="0" name="_L"/>
  <anchor x="-639" y="0" name="_N"/>
  <anchor x="-639" y="0" name="_NC"/>
  <anchor x="0" y="0" name="_NG"/>
  <outline>
    <component base="uni17D217A7" yOffset="-405"/>
    <contour>
      <point x="-986" y="-612" type="curve"/>
      <point x="-959" y="-592"/>
      <point x="-906" y="-563"/>
      <point x="-859" y="-553" type="curve"/>
      <point x="-927" y="-537"/>
      <point x="-965" y="-506"/>
      <point x="-965" y="-477" type="curve" smooth="yes"/>
      <point x="-965" y="-438"/>
      <point x="-913" y="-370"/>
      <point x="-879" y="-370" type="curve" smooth="yes"/>
      <point x="-817" y="-370"/>
      <point x="-596" y="-504"/>
      <point x="-471" y="-504" type="curve" smooth="yes"/>
      <point x="-336" y="-504"/>
      <point x="-275" y="-413"/>
      <point x="-275" y="-313" type="curve" smooth="yes"/>
      <point x="-275" y="-194"/>
      <point x="-361" y="-63"/>
      <point x="-503" y="-63" type="curve" smooth="yes"/>
      <point x="-546" y="-63"/>
      <point x="-579" y="-85"/>
      <point x="-579" y="-129" type="curve" smooth="yes"/>
      <point x="-579" y="-235"/>
      <point x="-383" y="-201"/>
      <point x="-383" y="-307" type="curve" smooth="yes"/>
      <point x="-383" y="-352"/>
      <point x="-421" y="-369"/>
      <point x="-458" y="-369" type="curve" smooth="yes"/>
      <point x="-547" y="-369"/>
      <point x="-780" y="-228"/>
      <point x="-863" y="-228" type="curve" smooth="yes"/>
      <point x="-921" y="-228"/>
      <point x="-1083" y="-433"/>
      <point x="-1083" y="-516" type="curve" smooth="yes"/>
      <point x="-1083" y="-569"/>
      <point x="-1025" y="-590"/>
    </contour>
  </outline>
</glyph>
<glyph name="uni17D217AE" format="2">
  <guideline x="-945" y="0" angle="90"/>
  <anchor x="-245" y="-1060" name="L"/>
  <anchor x="-245" y="0" name="_L"/>
  <anchor x="-639" y="0" name="_lm"/>
  <anchor x="-639" y="-1060" name="lm"/>
  <outline>
    <contour>
      <point x="-945" y="-343" type="curve"/>
      <point x="-945" y="-801" type="line"/>
      <point x="-926" y="-848"/>
      <point x="-866" y="-859"/>
      <point x="-817" y="-859" type="curve"/>
      <point x="-693" y="-836"/>
      <point x="-673" y="-740"/>
      <point x="-673" y="-691" type="curve" smooth="yes"/>
      <point x="-673" y="-634"/>
      <point x="-729" y="-586"/>
      <point x="-804" y="-579" type="curve"/>
      <point x="-804" y="-371" type="line" smooth="yes"/>
      <point x="-804" y="-335"/>
      <point x="-763" y="-276"/>
      <point x="-744" y="-276" type="curve" smooth="yes"/>
      <point x="-741" y="-276"/>
      <point x="-714" y="-301"/>
      <point x="-690" y="-327" type="curve" smooth="yes"/>
      <point x="-662" y="-357"/>
      <point x="-632" y="-389"/>
      <point x="-595" y="-389" type="curve" smooth="yes"/>
      <point x="-558" y="-389"/>
      <point x="-528" y="-357"/>
      <point x="-500" y="-327" type="curve" smooth="yes"/>
      <point x="-476" y="-301"/>
      <point x="-449" y="-276"/>
      <point x="-446" y="-276" type="curve" smooth="yes"/>
      <point x="-427" y="-276"/>
      <point x="-386" y="-335"/>
      <point x="-386" y="-371" type="curve" smooth="yes"/>
      <point x="-386" y="-859" type="line"/>
      <point x="-245" y="-859" type="line"/>
      <point x="-245" y="-343" type="line" smooth="yes"/>
      <point x="-245" y="-298"/>
      <point x="-354" y="-150"/>
      <point x="-430" y="-150" type="curve" smooth="yes"/>
      <point x="-469" y="-150"/>
      <point x="-502" y="-183"/>
      <point x="-533" y="-217" type="curve" smooth="yes"/>
      <point x="-558" y="-245"/>
      <point x="-587" y="-273"/>
      <point x="-595" y="-273" type="curve" smooth="yes"/>
      <point x="-603" y="-273"/>
      <point x="-632" y="-245"/>
      <point x="-657" y="-217" type="curve" smooth="yes"/>
      <point x="-688" y="-183"/>
      <point x="-721" y="-150"/>
      <point x="-760" y="-150" type="curve" smooth="yes"/>
      <point x="-836" y="-150"/>
      <point x="-945" y="-298"/>
    </contour>
    <contour>
      <point x="-483" y="-1018" type="curve" smooth="yes"/>
      <point x="-483" y="-1059"/>
      <point x="-435" y="-1083"/>
      <point x="-394" y="-1086" type="curve"/>
      <point x="-394" y="-1102" type="line" smooth="yes"/>
      <point x="-394" y="-1138"/>
      <point x="-435" y="-1154"/>
      <point x="-467" y="-1154" type="curve" smooth="yes"/>
      <point x="-521" y="-1154"/>
      <point x="-569" y="-1113"/>
      <point x="-620" y="-1064" type="curve"/>
      <point x="-699" y="-991"/>
      <point x="-744" y="-967"/>
      <point x="-854" y="-967" type="curve" smooth="yes"/>
      <point x="-995" y="-967"/>
      <point x="-1045" y="-1079"/>
      <point x="-1045" y="-1104" type="curve"/>
      <point x="-986" y="-1055"/>
      <point x="-945" y="-1033"/>
      <point x="-886" y="-1033" type="curve" smooth="yes"/>
      <point x="-834" y="-1033"/>
      <point x="-749" y="-1093"/>
      <point x="-705" y="-1136" type="curve"/>
      <point x="-651" y="-1184"/>
      <point x="-586" y="-1225"/>
      <point x="-475" y="-1225" type="curve" smooth="yes"/>
      <point x="-425" y="-1225"/>
      <point x="-385" y="-1218"/>
      <point x="-352" y="-1206" type="curve"/>
      <point x="-328" y="-1221"/>
      <point x="-286" y="-1234"/>
      <point x="-231" y="-1234" type="curve" smooth="yes"/>
      <point x="-195" y="-1234"/>
      <point x="-179" y="-1229"/>
      <point x="-164" y="-1218" type="curve" smooth="yes"/>
      <point x="-144" y="-1204"/>
      <point x="-138" y="-1190"/>
      <point x="-132" y="-1168" type="curve"/>
      <point x="-150" y="-1174"/>
      <point x="-174" y="-1176"/>
      <point x="-186" y="-1176" type="curve" smooth="yes"/>
      <point x="-223" y="-1176"/>
      <point x="-262" y="-1164"/>
      <point x="-279" y="-1154" type="curve"/>
      <point x="-255" y="-1124"/>
      <point x="-245" y="-1086"/>
      <point x="-245" y="-1043" type="curve" smooth="yes"/>
      <point x="-245" y="-982"/>
      <point x="-317" y="-950"/>
      <point x="-379" y="-950" type="curve" smooth="yes"/>
      <point x="-434" y="-950"/>
      <point x="-483" y="-980"/>
    </contour>
    <contour>
      <point x="-744" y="-691" type="curve" smooth="yes"/>
      <point x="-744" y="-726"/>
      <point x="-775" y="-746"/>
      <point x="-804" y="-757" type="curve"/>
      <point x="-804" y="-622" type="line"/>
      <point x="-766" y="-631"/>
      <point x="-744" y="-664"/>
    </contour>
  </outline>
</glyph>
<glyph name="uni17D217B1" format="2">
  <anchor x="0" y="-240" name="B2"/>
  <anchor x="0" y="680" name="_B1"/>
  <anchor x="0" y="690" name="_B2"/>
  <anchor x="0" y="0" name="_D2"/>
  <anchor x="-20" y="0" name="_L"/>
  <anchor x="-639" y="0" name="_N"/>
  <anchor x="-639" y="0" name="_NC"/>
  <anchor x="0" y="0" name="_NG"/>
  <outline>
    <component base="uni17D217A7" yOffset="-190"/>
    <contour>
      <point x="-894" y="-417" type="curve"/>
      <point x="-767" y="-373" type="line"/>
      <point x="-844" y="-342"/>
      <point x="-878" y="-294"/>
      <point x="-878" y="-256" type="curve" smooth="yes"/>
      <point x="-878" y="-221"/>
      <point x="-851" y="-195"/>
      <point x="-803" y="-195" type="curve" smooth="yes"/>
      <point x="-769" y="-195"/>
      <point x="-724" y="-216"/>
      <point x="-669" y="-242" type="curve" smooth="yes"/>
      <point x="-589" y="-280"/>
      <point x="-488" y="-327"/>
      <point x="-387" y="-327" type="curve" smooth="yes"/>
      <point x="-284" y="-327"/>
      <point x="-221" y="-249"/>
      <point x="-206" y="-215" type="curve"/>
      <point x="-225" y="-221"/>
      <point x="-244" y="-224"/>
      <point x="-295" y="-224" type="curve" smooth="yes"/>
      <point x="-369" y="-224"/>
      <point x="-459" y="-198"/>
      <point x="-545" y="-154" type="curve" smooth="yes"/>
      <point x="-631" y="-110"/>
      <point x="-724" y="-69"/>
      <point x="-802" y="-69" type="curve" smooth="yes"/>
      <point x="-939" y="-69"/>
      <point x="-1020" y="-158"/>
      <point x="-1020" y="-248" type="curve" smooth="yes"/>
      <point x="-1020" y="-309"/>
      <point x="-982" y="-373"/>
    </contour>
  </outline>
</glyph>
